<?xml version="1.0" encoding="utf-8"?>
<!-- Generator: Adobe Illustrator 15.0.2, SVG Export Plug-In . SVG Version: 6.00 Build 0)  -->
<!DOCTYPE svg PUBLIC "-//W3C//DTD SVG 1.1//EN" "http://www.w3.org/Graphics/SVG/1.1/DTD/svg11.dtd">
<svg version="1.1" id="Ebene_1" xmlns="http://www.w3.org/2000/svg" xmlns:xlink="http://www.w3.org/1999/xlink" x="0px" y="0px"
	 width="70px" height="70px" viewBox="0 0 70 70" enable-background="new 0 0 70 70" xml:space="preserve">
<g id="Top">
	<g>
		
			<linearGradient id="SVGID_1_" gradientUnits="userSpaceOnUse" x1="132.6006" y1="-177.9004" x2="132.6006" y2="-161.6514" gradientTransform="matrix(1 0 0 -1 -97.6001 -149.9004)">
			<stop  offset="0.0319" style="stop-color:#515151"/>
			<stop  offset="0.1065" style="stop-color:#606060"/>
			<stop  offset="0.2574" style="stop-color:#787878"/>
			<stop  offset="0.4176" style="stop-color:#898989"/>
			<stop  offset="0.5918" style="stop-color:#939393"/>
			<stop  offset="0.8061" style="stop-color:#969696"/>
		</linearGradient>
		<path fill="url(#SVGID_1_)" d="M54.93,25.557C55.094,26.9,54.122,28,52.768,28H17.232c-1.354,0-2.327-1.1-2.161-2.443
			l1.398-11.363c0.166-1.344,1.409-2.443,2.763-2.443h31.536c1.354,0,2.598,1.1,2.762,2.443L54.93,25.557z"/>
	</g>
	
		<linearGradient id="SVGID_2_" gradientUnits="userSpaceOnUse" x1="132.6709" y1="-175.7563" x2="130.4525" y2="-152.1434" gradientTransform="matrix(1 0 0 -1 -97.6001 -149.9004)">
		<stop  offset="0.0182" style="stop-color:#C9C9C9"/>
		<stop  offset="0.0594" style="stop-color:#D6D6D6"/>
		<stop  offset="0.1491" style="stop-color:#EDEDED"/>
		<stop  offset="0.2341" style="stop-color:#FAFAFA"/>
		<stop  offset="0.3091" style="stop-color:#FFFFFF"/>
		<stop  offset="0.444" style="stop-color:#FCFCFC"/>
		<stop  offset="0.5444" style="stop-color:#F3F3F3"/>
		<stop  offset="0.6335" style="stop-color:#E2E2E2"/>
		<stop  offset="0.7162" style="stop-color:#CCCCCC"/>
		<stop  offset="0.7936" style="stop-color:#AFAFAF"/>
		<stop  offset="0.847" style="stop-color:#969696"/>
		<stop  offset="0.8871" style="stop-color:#999999"/>
		<stop  offset="0.9197" style="stop-color:#A3A3A3"/>
		<stop  offset="0.9496" style="stop-color:#B4B4B4"/>
		<stop  offset="0.9681" style="stop-color:#C3C3C3"/>
	</linearGradient>
	<path fill="url(#SVGID_2_)" d="M48.583,6.083c-0.458-1.333-27.958,0.417-28.917-1s0,21,0,21h29.917
		C49.583,26.083,49.041,7.417,48.583,6.083z"/>
</g>
<g id="Bottom">
	<g>
		
			<linearGradient id="SVGID_3_" gradientUnits="userSpaceOnUse" x1="132.2236" y1="-201.4004" x2="132.2236" y2="-194.9004" gradientTransform="matrix(1 0 0 -1 -97.6001 -149.9004)">
			<stop  offset="0.0319" style="stop-color:#515151"/>
			<stop  offset="0.0436" style="stop-color:#535353"/>
			<stop  offset="0.1881" style="stop-color:#646464"/>
			<stop  offset="0.3455" style="stop-color:#6E6E6E"/>
			<stop  offset="0.5394" style="stop-color:#717171"/>
			<stop  offset="0.5939" style="stop-color:#7D7D7D"/>
			<stop  offset="0.6874" style="stop-color:#8B8B8B"/>
			<stop  offset="0.8024" style="stop-color:#949494"/>
			<stop  offset="1" style="stop-color:#969696"/>
		</linearGradient>
		<path fill="url(#SVGID_3_)" d="M58.298,45.211C58.18,45.096,57.949,45,57.784,45H11.133c-0.165,0-0.391,0.1-0.501,0.223
			L8.16,47.945c-0.111,0.121-0.132,0.338-0.047,0.479l1.691,2.819c0.085,0.141,0.289,0.257,0.454,0.257h48.733
			c0.165,0,0.368-0.116,0.454-0.257l1.691-2.819c0.084-0.141,0.059-0.352-0.061-0.468L58.298,45.211z"/>
	</g>
</g>
<g id="Front">
	<g>
		
			<linearGradient id="SVGID_4_" gradientUnits="userSpaceOnUse" x1="132.5996" y1="-195.9004" x2="132.5996" y2="-175.6504" gradientTransform="matrix(1 0 0 -1 -97.6001 -149.9004)">
			<stop  offset="0.0319" style="stop-color:#515151"/>
			<stop  offset="0.1065" style="stop-color:#606060"/>
			<stop  offset="0.2574" style="stop-color:#787878"/>
			<stop  offset="0.4176" style="stop-color:#898989"/>
			<stop  offset="0.5918" style="stop-color:#939393"/>
			<stop  offset="0.8061" style="stop-color:#969696"/>
		</linearGradient>
		<path fill="url(#SVGID_4_)" d="M63.063,43.538c0,1.354-1.106,2.462-2.461,2.462H9.399c-1.354,0-2.462-1.107-2.462-2.462V28.212
			c0-1.354,1.108-2.462,2.462-2.462H60.6c1.354,0,2.463,1.108,2.463,2.462V43.538L63.063,43.538z"/>
	</g>
	
		<linearGradient id="SVGID_5_" gradientUnits="userSpaceOnUse" x1="132.5996" y1="-194.9004" x2="132.5996" y2="-178.1094" gradientTransform="matrix(1 0 0 -1 -97.6001 -149.9004)">
		<stop  offset="0.0319" style="stop-color:#3C89C9"/>
		<stop  offset="0.0703" style="stop-color:#4792CF"/>
		<stop  offset="0.1962" style="stop-color:#66ABE0"/>
		<stop  offset="0.3283" style="stop-color:#7EBEEE"/>
		<stop  offset="0.4678" style="stop-color:#8FCCF7"/>
		<stop  offset="0.6195" style="stop-color:#99D4FD"/>
		<stop  offset="0.8061" style="stop-color:#9CD7FF"/>
	</linearGradient>
	<path fill="url(#SVGID_5_)" d="M58.25,42.539c0,1.354-0.995,2.461-2.213,2.461H13.962c-1.217,0-2.213-1.107-2.213-2.461v-14.33
		H58.25V42.539z"/>
	<polygon id="highlight" opacity="0.22" fill="#FFFFFF" enable-background="new    " points="11.749,37.539 11.749,28.209 
		58.25,28.209 58.25,34.667 	"/>
	
		<rect x="60.833" y="28.542" fill="#E7ED00" stroke="#717171" stroke-width="0.1173" stroke-miterlimit="10" width="2.25" height="0.917"/>
	
		<rect x="60.833" y="30.541" fill="#C8FF00" stroke="#717171" stroke-width="0.1173" stroke-miterlimit="10" width="2.25" height="0.918"/>
	<line fill="none" stroke="#717171" stroke-width="0.2" stroke-miterlimit="10" x1="11.749" y1="28.209" x2="11.749" y2="25.75"/>
	<line fill="none" stroke="#717171" stroke-width="0.2" stroke-miterlimit="10" x1="58.25" y1="28.209" x2="58.25" y2="25.75"/>
	
		<line fill="none" stroke="#717171" stroke-width="0.1919" stroke-miterlimit="10" x1="58.25" y1="28.209" x2="11.749" y2="28.209"/>
</g>
</svg>
