<?xml version="1.0" encoding="utf-8"?>
<!DOCTYPE svg PUBLIC "-//W3C//DTD SVG 1.1//EN" "http://www.w3.org/Graphics/SVG/1.1/DTD/svg11.dtd">
<svg version="1.1" xmlns="http://www.w3.org/2000/svg" xmlns:xlink="http://www.w3.org/1999/xlink" x="0px" y="0px"
	 width="16px" height="16px" viewBox="0.5 16.5 16 16" enable-background="new 0.5 16.5 16 16" xml:space="preserve">
<g>    
    <path fill="#666666" d="m 6.272,27.932 -4.212,0 0,-1.033 1.562,0 0,-4.598 -1.288,0 0,-0.793 c 0.353,-0.066 0.655,-0.145 0.908,-0.236 0.253,-0.091 0.489,-0.203 0.709,-0.336 l 0.946,0 0,5.963 1.375,0 z m 2.717,-0.11 C 8.835,27.982 8.64,28.064 8.406,28.064 8.172,28.064 7.975,27.982 7.818,27.822 7.66,27.66 7.581,27.455 7.581,27.207 c 0,-0.25 0.079,-0.455 0.237,-0.617 0.157,-0.16 0.354,-0.242 0.588,-0.242 0.234,0 0.429,0.082 0.583,0.242 0.154,0.162 0.231,0.367 0.231,0.617 10e-4,0.248 -0.076,0.453 -0.231,0.615 z m 0,-3.761 c -0.154,0.16 -0.349,0.242 -0.583,0.242 -0.234,0 -0.431,-0.082 -0.588,-0.242 -0.158,-0.162 -0.237,-0.367 -0.237,-0.617 0,-0.248 0.079,-0.453 0.237,-0.615 0.157,-0.162 0.354,-0.242 0.588,-0.242 0.234,0 0.429,0.08 0.583,0.242 0.154,0.162 0.231,0.367 0.231,0.615 10e-4,0.249 -0.076,0.454 -0.231,0.617 z m 1.739,3.871 0,-1.033 1.562,0 0,-4.598 -1.287,0 0,-0.793 c 0.353,-0.066 0.654,-0.145 0.907,-0.236 0.253,-0.091 0.49,-0.203 0.71,-0.336 l 0.946,0 0,5.963 1.375,0 0,1.033 z"/>
</g>
</svg>
