<?xml version="1.0" encoding="UTF-8" standalone="no"?>
<svg id="Ebene_4" xmlns:rdf="http://www.w3.org/1999/02/22-rdf-syntax-ns#" xmlns="http://www.w3.org/2000/svg" xml:space="preserve" height="20.062" viewBox="0 0 46.380093 20.062443" width="46.38" version="1.1" y="0px" x="0px" xmlns:cc="http://creativecommons.org/ns#" xmlns:dc="http://purl.org/dc/elements/1.1/"><path id="path3" fill="#FFA45E" d="m2.2293 19.544c-0.708 0-1.27-0.276-1.55-0.759-0.278-0.481-0.235-1.11 0.119-1.72l9-15.6c0.3537-0.613 0.8757-0.965 1.4297-0.965s1.08 0.352 1.43 0.965l9 15.6c0.354 0.613 0.397 1.24 0.119 1.72-0.279 0.482-0.844 0.759-1.55 0.759h-18" stroke="#fff"/><circle id="ellipse5" cy="15.444" cx="11.229" r="1.25" fill="#fff"/><path id="path7" fill="#fff" d="m11.229 5.734c-0.6 0-1 0.45-1 1v5.01c0 0.5 0.4 1 1 1s1-0.5 1-1v-5.01c0-0.55-0.4-1-1-1z"/><g id="g4154" transform="translate(23.153 -2.9376)"><path id="path4142" fill="#c00" stroke="#fff" d="m3 22.5c-0.708 0-1.27-0.276-1.55-0.759-0.278-0.481-0.235-1.11 0.119-1.72l9-15.6c0.354-0.613 0.876-0.965 1.43-0.965s1.08 0.352 1.43 0.965l9 15.6c0.354 0.613 0.397 1.24 0.119 1.72-0.279 0.482-0.844 0.759-1.55 0.759h-18"/><circle id="ellipse4144" cy="18.4" cx="12" r="1.25" fill="#fff"/><path id="path4146" fill="#fff" d="m12 8.69c-0.6 0-1 0.45-1 1v5.01c0 0.5 0.4 1 1 1s1-0.5 1-1v-5.01c0-0.55-0.4-1-1-1z"/></g></svg>
