<?xml version="1.0" encoding="utf-8"?>
<!-- Generator: Adobe Illustrator 15.0.2, SVG Export Plug-In . SVG Version: 6.00 Build 0)  -->
<!DOCTYPE svg PUBLIC "-//W3C//DTD SVG 1.1//EN" "http://www.w3.org/Graphics/SVG/1.1/DTD/svg11.dtd">
<svg version="1.1" id="Ebene_1" xmlns="http://www.w3.org/2000/svg" x="0px"
     y="0px"
     width="70px" height="70px" viewBox="0 0 70 70" enable-background="new 0 0 70 70" xml:space="preserve">
<g id="Ebene_1_2_">
	<g id="Ebene_1_1_">
		<g id="Keyboard">
			<g>
				
					<linearGradient id="SVGID_1_" gradientUnits="userSpaceOnUse" x1="224.2734" y1="831.9775" x2="224.2734"
                          y2="808.6547" gradientTransform="matrix(1 0 0 1 -195.2002 -770.8008)">
					<stop offset="0.0319" style="stop-color:#808080"/>
            <stop offset="0.1229" style="stop-color:#939393"/>
            <stop offset="0.2702" style="stop-color:#ABABAB"/>
            <stop offset="0.4266" style="stop-color:#BCBCBC"/>
            <stop offset="0.5968" style="stop-color:#C6C6C6"/>
            <stop offset="0.8061" style="stop-color:#C9C9C9"/>
				</linearGradient>
        <path fill="url(#SVGID_1_)" d="M54.645,59.48c0.195,0.459-0.053,0.836-0.553,0.836H3.891c-0.5,0-0.604-0.272-0.232-0.605
					l8.023-7.191c0.373-0.334,1.086-0.605,1.586-0.605h37.255c0.498,0,1.065,0.377,1.265,0.836L54.645,59.48z"/>

        <path fill="none" stroke="#8D8D8D" stroke-width="0.25" stroke-linecap="round" stroke-linejoin="round"
              stroke-miterlimit="10" d="
					M54.645,59.48c0.195,0.459-0.053,0.836-0.553,0.836H3.891c-0.5,0-0.604-0.272-0.232-0.605l8.023-7.191
					c0.373-0.334,1.086-0.605,1.586-0.605h37.255c0.498,0,1.065,0.377,1.265,0.836L54.645,59.48z"/>
			</g>
      <g>
				<g>
					<g>
						<path fill="#717171" d="M35.428,58.134c0,0.25-0.205,0.454-0.455,0.454H7.335c-0.25,0-0.304-0.139-0.119-0.307l5.638-5.154
							c0.184-0.17,0.539-0.309,0.789-0.309h21.332c0.25,0,0.454,0.205,0.454,0.455L35.428,58.134L35.428,58.134z"/>
					</g>
          <g>
						<path fill="#717171" d="M44.049,58.16c0.086,0.236,0.359,0.428,0.609,0.428h7.465c0.25,0,0.375-0.188,0.279-0.42l-2.049-4.93
							c-0.098-0.229-0.379-0.42-0.629-0.42h-7.17c-0.25,0-0.386,0.191-0.301,0.428L44.049,58.16z"/>
					</g>
          <g>
						<path fill="#717171" d="M36.201,58.134c0,0.25,0.205,0.454,0.455,0.454h6.135c0.25,0,0.382-0.189,0.293-0.426l-0.156-0.409
							c-0.089-0.233-0.365-0.421-0.615-0.416l-1.045,0.021c-0.25,0.004-0.509-0.189-0.574-0.432l-0.021-0.082
							c-0.065-0.242-0.321-0.439-0.571-0.439h-1.316c-0.25,0-0.444,0.205-0.432,0.453l0.002,0.059
							c0.016,0.25-0.181,0.455-0.431,0.459l-1.269,0.021c-0.25,0.006-0.454,0.211-0.454,0.461L36.201,58.134L36.201,58.134z"/>
					</g>
          <g>
						<path fill="#717171" d="M36.201,54.566c0,0.25,0.205,0.455,0.455,0.455h4.845c0.25,0,0.396-0.195,0.323-0.437l-0.402-1.333
							c-0.07-0.238-0.335-0.438-0.585-0.438h-4.181c-0.25,0-0.455,0.205-0.455,0.455V54.566z"/>
					</g>
				</g>
			</g>
		</g>
    <g id="Display_Foot">
			<g>
				
					<linearGradient id="SVGID_2_" gradientUnits="userSpaceOnUse" x1="538.5127" y1="-1411.0938" x2="514.7744"
                          y2="-1411.0938" gradientTransform="matrix(1 0 0 -1 -488 -1361.502)">
					<stop offset="0" style="stop-color:#4D4D4D"/>
            <stop offset="1" style="stop-color:#999999"/>
				</linearGradient>
        <path fill="url(#SVGID_2_)" d="M50.359,48.076c0,0.965-6.758,1.404-12.371,1.404c-3.889,0-10.914-0.348-11.367-1.267
					c0,0.446,0,1.502,0,1.661c0,0.725,4.803,1.234,11.357,1.234c6.554,0,12.381-0.643,12.381-1.361
					C50.359,49.591,50.359,48.539,50.359,48.076z"/>
        <path fill="#808080" d="M38.49,46.869c6.556,0,11.869,0.584,11.869,1.307c0,0.721-5.313,1.42-11.869,1.42
					c-6.701,0-11.869-0.697-11.869-1.42S31.936,46.869,38.49,46.869z"/>
			</g>

      <linearGradient id="SVGID_3_" gradientUnits="userSpaceOnUse" x1="529.0771" y1="-1405.124" x2="524.0811"
                      y2="-1405.124" gradientTransform="matrix(1 0 0 -1 -488 -1361.502)">
				<stop offset="0" style="stop-color:#999999"/>
        <stop offset="0.0417" style="stop-color:#8D8D8D"/>
        <stop offset="0.1617" style="stop-color:#717171"/>
        <stop offset="0.2821" style="stop-color:#5D5D5D"/>
        <stop offset="0.4021" style="stop-color:#515151"/>
        <stop offset="0.5212" style="stop-color:#4D4D4D"/>
        <stop offset="0.6202" style="stop-color:#565656"/>
        <stop offset="0.7817" style="stop-color:#6E6E6E"/>
        <stop offset="0.9844" style="stop-color:#969696"/>
        <stop offset="1" style="stop-color:#999999"/>
			</linearGradient>
      <path fill="url(#SVGID_3_)"
            d="M41.045,48.459c0,0-1.477,0.096-2.498,0.096s-2.499-0.096-2.499-0.096v-9.768h4.997V48.459z"/>
		</g>
    <g id="Display">
			<g>
				
					<radialGradient id="SVGID_4_" cx="419.1797" cy="-1378.9521" r="24.0778"
                          gradientTransform="matrix(1.15 0 0 -1 -453.9686 -1361.502)" gradientUnits="userSpaceOnUse">
					<stop offset="0" style="stop-color:#F2F2F2"/>
            <stop offset="1" style="stop-color:#666666"/>
				</radialGradient>
        <path fill="url(#SVGID_4_)" d="M12.764,9.684c0-1.1,0.9-2,2-2H63.01c1.1,0,2,0.9,2,2v30.073c0,1.101-0.9,2-2,2H14.764
					c-1.1,0-2-0.899-2-2V9.684z"/>

        <path fill="none" stroke="#666666" stroke-width="0.2436" stroke-linecap="round" stroke-linejoin="round"
              stroke-miterlimit="10" d="
					M12.764,9.684c0-1.1,0.9-2,2-2H63.01c1.1,0,2,0.9,2,2v30.073c0,1.101-0.9,2-2,2H14.764c-1.1,0-2-0.899-2-2V9.684z"/>
			</g>
      <g>
				
					<radialGradient id="SVGID_5_" cx="405.4619" cy="-1370.8037" r="53.3339" fx="447.4194" fy="-1377.9913"
                          gradientTransform="matrix(1.1935 0 0 -1 -444.2062 -1361.502)" gradientUnits="userSpaceOnUse">
					<stop offset="0" style="stop-color:#4D4D4D"/>
            <stop offset="1" style="stop-color:#999999"/>
				</radialGradient>
        <path fill="url(#SVGID_5_)" d="M13.786,10.705c0-1.1,0.9-2,2-2h46.429c1.1,0,2,0.9,2,2V38.51c0,1.1-0.9,2-2,2H15.786
					c-1.1,0-2-0.9-2-2V10.705z"/>
			</g>
      <g>
				
					<radialGradient id="SVGID_6_" cx="406.25" cy="-1370.8877" r="34.1874"
                          gradientTransform="matrix(1.1923 0 0 -1 -444.4653 -1361.502)" gradientUnits="userSpaceOnUse">
					<stop offset="0" style="stop-color:#9CD7FF"/>
            <stop offset="1" style="stop-color:#3C89C9"/>
				</radialGradient>
        <path fill="url(#SVGID_6_)" d="M14.354,11.16c0-1.1,0.9-2,2-2h45.294c1.1,0,2,0.9,2,2v26.895c0,1.1-0.9,2-2,2H16.354
					c-1.1,0-2-0.9-2-2V11.16z"/>
			</g>
      <path opacity="0.24" fill="#F2F2F2" d="M14.354,32.498V11.16c0-1.1,0.9-2,2-2h45.294c1.1,0,2,0.9,2,2v13.539l-23.164,4.94
				c-1.064,0.273-2.836,0.547-3.935,0.609L14.354,32.498z"/>
		</g>
	</g>
  <g id="Mouse">
		<g id="XMLID_1_">
			<g>
				<path fill="#C9C9C9" d="M62.088,54.158c-0.003-0.002-0.005-0.002-0.007,0c-0.188-0.061-0.429-0.254-0.702-0.482
					C61.646,53.83,61.889,53.998,62.088,54.158z"/>

        <radialGradient id="SVGID_7_" cx="454.1748" cy="1266.7139" r="6.3766"
                        gradientTransform="matrix(1 0 0 1 -390.4004 -1211.6016)" gradientUnits="userSpaceOnUse">
					<stop offset="0.1939" style="stop-color:#C9C9C9"/>
          <stop offset="0.3299" style="stop-color:#C6C6C6"/>
          <stop offset="0.4405" style="stop-color:#BCBCBC"/>
          <stop offset="0.5421" style="stop-color:#ABABAB"/>
          <stop offset="0.6378" style="stop-color:#939393"/>
          <stop offset="0.697" style="stop-color:#808080"/>
				</radialGradient>
        <path fill="url(#SVGID_7_)" d="M62.081,54.158c0.005,0.002,0.007,0.002,0.009,0.002c0.002,0.004,0.006,0.004,0.006,0.004
					c0.084,0.023,0.153,0.021,0.213-0.021c0.017-0.008,0.026-0.021,0.037-0.041c0.604-0.119,1.329-0.154,2.197-0.086
					c2.032,1.545,3.77,4.625,1.18,5.801c-2.048,0.929-3.543,0.783-4.722-0.485c-0.624-0.675-1.239-1.47-1.729-2.265
					C59.537,55.932,60.166,54.623,62.081,54.158z"/>

        <radialGradient id="SVGID_8_" cx="606.8809" cy="1434.1973" r="3.8245"
                        gradientTransform="matrix(0.9761 0.2173 -0.1478 0.6641 -318.8444 -1029.3551)"
                        gradientUnits="userSpaceOnUse">
					<stop offset="0.1939" style="stop-color:#C9C9C9"/>
          <stop offset="0.3739" style="stop-color:#C6C6C6"/>
          <stop offset="0.5203" style="stop-color:#BCBCBC"/>
          <stop offset="0.6549" style="stop-color:#ABABAB"/>
          <stop offset="0.7816" style="stop-color:#939494"/>
          <stop offset="0.8364" style="stop-color:#868787"/>
				</radialGradient>
        <path fill="url(#SVGID_8_)" d="M59.271,57.066c-0.893-1.438-1.355-2.869-0.664-3.533c0.244-0.236,0.539-0.422,0.863-0.559
					c0.6,0.051,1.307,0.346,1.9,0.691c0.002,0,0.005,0.004,0.007,0.006c0.272,0.229,0.519,0.426,0.702,0.482
					C60.166,54.623,59.537,55.932,59.271,57.066z"/>

        <radialGradient id="SVGID_9_" cx="452.0352" cy="1266.8896" r="3.928"
                        gradientTransform="matrix(1 0 0 1 -390.4004 -1211.6016)" gradientUnits="userSpaceOnUse">
					<stop offset="0.1939" style="stop-color:#C9C9C9"/>
          <stop offset="0.3496" style="stop-color:#C6C6C6"/>
          <stop offset="0.4761" style="stop-color:#BCBCBC"/>
          <stop offset="0.5925" style="stop-color:#ABABAB"/>
          <stop offset="0.702" style="stop-color:#939393"/>
          <stop offset="0.7697" style="stop-color:#808080"/>
				</radialGradient>
        <path fill="url(#SVGID_9_)" d="M59.471,52.977c1.353-0.564,3.287-0.266,4.963,0.955c0.035,0.025,0.073,0.055,0.109,0.084
					c-0.867-0.068-1.818-0.033-2.427,0.086c-0.109-0.105-0.763-0.449-0.744-0.434C60.775,53.32,60.068,53.025,59.471,52.977z"/>
			</g>
      <g>
				<path fill="none" stroke="#717171" stroke-width="0.1136" stroke-linecap="round" stroke-miterlimit="10" d="M59.471,52.977
					c1.353-0.564,3.287-0.266,4.963,0.955c0.035,0.025,0.073,0.055,0.109,0.084c2.032,1.545,3.77,4.627,1.18,5.801
					c-2.048,0.93-3.543,0.785-4.722-0.484c-0.624-0.676-1.239-1.471-1.729-2.264c-0.892-1.438-1.354-2.871-0.664-3.533
					C58.852,53.297,59.146,53.111,59.471,52.977z"/>
        <path fill="none" stroke="#717171" stroke-width="0.1136" stroke-linecap="round" stroke-miterlimit="10" d="M62.088,54.158
					c0.083-0.021,0.168-0.041,0.258-0.057c0.604-0.119,1.329-0.154,2.197-0.086"/>
        <path fill="none" stroke="#717171" stroke-width="0.1136" stroke-linecap="round" stroke-miterlimit="10" d="M59.27,57.078
					c0-0.002,0.002-0.008,0.002-0.012c0.269-1.135,0.896-2.441,2.813-2.908"/>
        <path fill="none" stroke="#717171" stroke-width="0.1136" stroke-linecap="round" stroke-miterlimit="10" d="M61.372,53.668
					c-0.597-0.35-1.306-0.643-1.901-0.693"/>
        <path fill="none" stroke="#717171" stroke-width="0.1136" stroke-linecap="round" stroke-miterlimit="10" d="M62.09,54.16
					c0-0.002,0-0.002-0.002-0.002c-0.199-0.16-0.441-0.328-0.709-0.482"/>
        <path fill="#4D4D4D" d="M61.57,53.498c0.354,0.264,0.438,0.48,0.548,0.604c-0.091,0.018-0.173,0.033-0.259,0.059
					c-0.355-0.393-0.996-0.666-0.955-0.727C60.999,53.291,61.374,53.354,61.57,53.498z"/>
			</g>
		</g>
	</g>
</g>
</svg>
