<svg version="1.1" id="usericon_male3" xmlns="http://www.w3.org/2000/svg" x="0px" y="0px" width="75px" height="75px" viewBox="0 0 75 75" xml:space="preserve">
    <circle fill="#EAD3D3" stroke="#E5CCCC" stroke-miterlimit="10" cx="37.5" cy="37.5" r="37"/>
    <path fill="#8E7968" d="M51.8,52.22h-5.33V38.39H28.38v13.83h-5.33c-6.23,0-11.55,4.01-13.55,9.57
      c6.78,7.85,16.8,12.82,27.99,12.82c11.13,0,21.11-4.92,27.89-12.7C63.42,56.28,58.07,52.22,51.8,52.22z"/>
    <path fill="#8E7968" d="M65.39,61.7c-2.02-5.51-7.32-9.48-13.51-9.48h-5.33V38.39H37.5V74.6C48.66,74.55,58.64,69.56,65.39,61.7z"
      />
    <path opacity="0.05" d="M39.32,48.44h-3.96c-6.6,0-12-5.4-12-12v-8.89c0-6.6,5.4-12,12-12h3.96c6.6,0,12,5.4,12,12v8.89
      C51.32,43.04,45.92,48.44,39.32,48.44z"/>
    <path fill="#998474" d="M39.48,47.2h-3.96c-6.6,0-12-5.4-12-12V24.4c0-6.6,5.4-12,12-12h3.96c6.6,0,12,5.4,12,12v10.8
      C51.48,41.8,46.08,47.2,39.48,47.2z"/>
    <path fill="#8E7968" d="M41.61,14.31H37.5V47.2h4.11c5.43,0,9.87-4.44,9.87-9.87V24.18C51.48,18.75,47.04,14.31,41.61,14.31z"/>
    <path opacity="0.15" fill="#56513A" d="M51.71,14.56c-2.09-3.73-7.73-6.41-14.39-6.41s-12.29,2.68-14.39,6.41
      c-2.29,2.5-3.7,5.81-3.7,9.44v3.23c0,3.94,1.66,7.51,4.3,10.07V25.82c0-1.15,0.21-2.24,0.57-3.27c2.64,2.87,7.56,4.81,13.21,4.81
      c3.01,0,6.63-1.37,8.99-2.32c-0.58-0.59-0.83-1.27-0.94-2.3c-0.15-1.38,1.03-2.47,2.47-2.47c1.62,0,2.96,1.17,3.23,2.71
      c0.27,0.9,0.43,1.85,0.43,2.83v11.09c2.42-2.52,3.92-5.93,3.92-9.68V24C55.41,20.37,54,17.06,51.71,14.56z"/>
    <path fill="#493A2F" d="M51.71,13.23c-2.09-3.73-7.73-6.41-14.39-6.41s-12.29,2.68-14.39,6.41c-2.29,2.5-3.7,5.81-3.7,9.44v4.87
      c0,3.94,1.66,7.51,4.3,10.07V24.49c0-1.15,0.21-2.24,0.57-3.27c2.64,2.87,7.56,4.81,13.21,4.81c3.01,0,5.8-0.55,8.16-1.49
      c-0.58-0.59-0.94-1.4-0.94-2.3c0-1.82,1.47-3.29,3.29-3.29c1.62,0,2.96,1.17,3.23,2.71c0.27,0.9,0.43,1.85,0.43,2.83v12.73
      c2.42-2.52,3.92-5.93,3.92-9.68v-4.87C55.41,19.03,54,15.72,51.71,13.23z"/>
    <path fill="#56473C" d="M36.85,15.24c0-3.27,2.08-6.15,5.27-7.95c-1.48-0.3-3.05-0.48-4.69-0.48c-6.65,0-12.29,2.68-14.39,6.41
      c-2.29,2.5-3.7,5.81-3.7,9.44v4.87c0,3.94,1.66,7.51,4.3,10.07V24.49c0-1.15,0.21-2.24,0.57-3.27c2.64,2.87,7.56,4.81,13.21,4.81
      c2.92,0,5.63-0.52,7.95-1.41c-0.03-0.04-0.05-0.08-0.08-0.12C40.37,23.11,36.85,19.49,36.85,15.24z"/>
    <path fill="#4E6887" d="M51.8,52.22h-0.97c0.01,0.07,0.03,0.14,0.03,0.21c0,2.63-6.01,4.75-13.43,4.75
      c-7.42,0-13.43-2.13-13.43-4.75c0-0.07,0.02-0.14,0.03-0.21h-0.97c-6.23,0-11.55,4.01-13.55,9.57
      c6.78,7.85,16.8,12.82,27.99,12.82c11.13,0,21.11-4.92,27.89-12.7C63.42,56.28,58.07,52.22,51.8,52.22z"/>
    <path fill="#3E587C" d="M51.87,52.22H50.9c0.01,0.07,0.03,0.14,0.03,0.21c0,2.63-6.01,4.75-13.43,4.75c-0.06,0-0.12,0-0.18,0V74.6
      c0.06,0,0.12,0,0.18,0c11.16,0,21.16-4.95,27.94-12.76C63.46,56.26,58.12,52.22,51.87,52.22z"/>
  </svg>