<svg version="1.1" xmlns="http://www.w3.org/2000/svg" style="display: block" width="60px" height="15px">
  <circle r="5" fill="#DADADA" transform="translate(5.5 5.5)"></circle>
  <circle r="5" fill="#9945E9" transform="translate(5 5)"></circle>
  <path transform="translate(1.5 1.25) scale(0.0045)" fill="white"
        d="M1856 960q-1 32-288 96l-352 32-224 64h-64l-293 352h69q26 0 45 4.5t19 11.5-19 11.5-45 4.5h-320v-32h64v-416h-160l-192 224h-96l-32-32v-192h32v-32h128v-8l-192-24v-128l192-24v-8h-128v-32h-32v-192l32-32h96l192 224h160v-416h-64v-32h320q26 0 45 4.5t19 11.5-19 11.5-45 4.5h-69l293 352h64l224 64 352 32q261 58 287 93z"></path>
  <text fill="#999" style="font-family: Roboto; font-size: 9px" transform="translate(14 8.5)">Travel</text>
</svg>
