<?xml version="1.0" encoding="UTF-8"?>
<svg id="Ebene_1" data-name="Ebene 1" xmlns="http://www.w3.org/2000/svg" width="32" height="32" viewBox="0 0 32 32">
  <path d="m2.509,30.203c.411.012.809-.148,1.096-.443.288-.292.445-.689.435-1.099V2.883c.01-.413-.153-.811-.448-1.099-.293-.294-.694-.454-1.109-.443-.411-.012-.809.148-1.096.443-.288.292-.445.689-.435,1.099v25.779c-.01.413.153.811.448,1.099.293.294.694.454,1.109.443Zm25.355-2.133c.581.475,1.398.536,2.043.152.662-.318,1.073-.997,1.048-1.731V5.064c.025-.734-.386-1.413-1.048-1.731-.645-.383-1.461-.323-2.043.152l-15.499,10.645c-.549.369-.872.992-.859,1.653-.015.659.309,1.279.859,1.643l15.499,10.643Zm.005-3.763l-12.485-8.533,12.485-8.549v17.083Z" fill="#ebeef0"/>
</svg>
