<?xml version="1.0" encoding="utf-8"?>
<!DOCTYPE svg PUBLIC "-//W3C//DTD SVG 1.1//EN" "http://www.w3.org/Graphics/SVG/1.1/DTD/svg11.dtd">
<svg version="1.1" xmlns="http://www.w3.org/2000/svg" xmlns:xlink="http://www.w3.org/1999/xlink" x="0px" y="0px"
	 width="16px" height="16px" viewBox="0.5 16.5 16 16" enable-background="new 0.5 16.5 16 16" xml:space="preserve">
<g>    
    <rect x="1.5" y="17.5" width="12" height="14" fill="none"></rect>
    <polygon fill="#666666" points="12.5,24.5 12.5,30.5 2.5,30.5 2.5,18.5 12.5,18.5 12.5,20.5 13.5,20.5 13.5,17.5 1.5,17.5       1.5,31.5 13.5,31.5 13.5,24.5"/>
    <polygon fill="#666666" points="11.5,19.5 3.5,19.5 3.5,17.5 5.5,17.5 5.5,16.5 9.5,16.5 9.5,17.5 11.5,17.5     "/>
    <polygon fill="#666666" points="16.5,23.5 13.5,20.5 13.5,23.5    "/>
    <polygon fill="#666666" points="12.5,20.5 7.5,20.5 7.5,32.5 16.5,32.5 16.5,24.5 12.5,24.5    "/>
</g>
</svg>
