<?xml version="1.0" encoding="utf-8"?>
<!-- ////////////////////////////////////////////////////////////////////////
     // @license
     // This demo file is part of yFiles for HTML 2.6.
     // Copyright (c) 2000-2023 by yWorks GmbH, Vor dem Kreuzberg 28,
     // 72070 Tuebingen, Germany. All rights reserved.
     //
     // yFiles demo files exhibit yFiles for HTML functionalities. Any redistribution
     // of demo files in source code or binary form, with or without
     // modification, is not permitted.
     //
     // Owners of a valid software license for a yFiles for HTML version that this
     // demo is shipped with are allowed to use the demo source code as basis
     // for their own yFiles for HTML powered applications. Use of such programs is
     // governed by the rights and conditions as set out in the yFiles for HTML
     // license agreement.
     //
     // THIS SOFTWARE IS PROVIDED ''AS IS'' AND ANY EXPRESS OR IMPLIED
     // WARRANTIES, INCLUDING, BUT NOT LIMITED TO, THE IMPLIED WARRANTIES OF
     // MERCHANTABILITY AND FITNESS FOR A PARTICULAR PURPOSE ARE DISCLAIMED. IN
     // NO EVENT SHALL yWorks BE LIABLE FOR ANY DIRECT, INDIRECT, INCIDENTAL,
     // SPECIAL, EXEMPLARY, OR CONSEQUENTIAL DAMAGES (INCLUDING, BUT NOT LIMITED
     // TO, PROCUREMENT OF SUBSTITUTE GOODS OR SERVICES; LOSS OF USE, DATA, OR
     // PROFITS; OR BUSINESS INTERRUPTION) HOWEVER CAUSED AND ON ANY THEORY OF
     // LIABILITY, WHETHER IN CONTRACT, STRICT LIABILITY, OR TORT (INCLUDING
     // NEGLIGENCE OR OTHERWISE) ARISING IN ANY WAY OUT OF THE USE OF THIS
     // SOFTWARE, EVEN IF ADVISED OF THE POSSIBILITY OF SUCH DAMAGE.
     //
     ////////////////////////////////////////////////////////////////////////-->

<svg id="Ebene_1" data-name="Ebene 1" xmlns="http://www.w3.org/2000/svg" viewBox="-10 -10 111 110"><defs><style>.cls-1{fill:#666;}</style></defs><path class="cls-1" d="M48,26.92H15.23a3.46,3.46,0,1,1,0-6.92H48a3.46,3.46,0,0,1,0,6.92Z"/><path class="cls-1" d="M73.69,26.92h-12a3.46,3.46,0,1,1,0-6.92h12a3.46,3.46,0,1,1,0,6.92Z"/><path class="cls-1" d="M30.17,47.77H15.23a3.46,3.46,0,1,1,0-6.91H30.17a3.46,3.46,0,1,1,0,6.91Z"/><path class="cls-1" d="M59.65,34.87a3.45,3.45,0,0,1-3.46-3.45V16.11a3.46,3.46,0,1,1,6.91,0V31.42A3.44,3.44,0,0,1,59.65,34.87Z"/><path class="cls-1" d="M32.34,55.49A3.46,3.46,0,0,1,28.89,52V36.72a3.46,3.46,0,0,1,6.91,0V52A3.46,3.46,0,0,1,32.34,55.49Z"/><path class="cls-1" d="M45.6,75.86a3.46,3.46,0,0,1-3.45-3.46V57.09a3.46,3.46,0,0,1,6.91,0V72.4A3.46,3.46,0,0,1,45.6,75.86Z"/><path class="cls-1" d="M32.34,68.75H15.23a3.46,3.46,0,1,1,0-6.91H32.34a3.46,3.46,0,1,1,0,6.91Z"/><path class="cls-1" d="M73.69,47.65H45.6a3.46,3.46,0,0,1,0-6.91H73.69a3.46,3.46,0,1,1,0,6.91Z"/><path class="cls-1" d="M73.69,68.75H45.6a3.46,3.46,0,0,1,0-6.91H73.69a3.46,3.46,0,1,1,0,6.91Z"/></svg>
