<?xml version="1.0" encoding="UTF-8"?>
<svg id="Ebene_1" data-name="Ebene 1" xmlns="http://www.w3.org/2000/svg" width="17.042" height="17.037" viewBox="0 0 17.042 17.037">
  <path d="m6.597,10.426c-1.047-1.062-1.034-2.772.028-3.818,1.062-1.047,2.772-1.034,3.818.028,1.047,1.062,1.034,2.772-.028,3.818-.508.501-1.193.78-1.906.777-.721.006-1.412-.285-1.912-.805Zm-.825.817c1.504,1.516,3.952,1.526,5.469.022,1.516-1.504,1.526-3.952.022-5.469-1.504-1.516-3.952-1.526-5.469-.022-.727.721-1.138,1.701-1.144,2.725-.021,1.029.383,2.021,1.117,2.741l.004.002Zm7.922,3.328c.107.113.255.177.411.176.156.001.305-.062.412-.174.113-.106.177-.254.176-.408,0-.155-.062-.303-.174-.41l-1.365-1.38c-.107-.113-.255-.177-.411-.176-.156-.001-.306.062-.414.175-.113.106-.177.254-.176.408,0,.155.062.303.174.41l1.366,1.379ZM3.89,4.661c.107.113.255.177.411.176.156.001.305-.062.412-.174.113-.106.177-.254.176-.408,0-.155-.062-.303-.174-.41l-1.365-1.38c-.107-.113-.255-.177-.411-.176-.156-.001-.306.062-.414.175-.113.106-.177.254-.176.408,0,.155.062.303.174.41l1.366,1.379Zm8.485.045c.106.113.254.177.408.176.155,0,.303-.062.41-.174l1.377-1.362c.113-.107.177-.255.176-.411.001-.156-.062-.306-.175-.414-.106-.113-.254-.177-.408-.176-.155,0-.303.062-.41.174l-1.377,1.362c-.113.107-.177.255-.176.411,0,.156.063.305.176.412h-.001ZM2.466,14.511c.106.113.254.177.408.176.155,0,.303-.062.41-.174l1.378-1.363c.113-.107.177-.255.176-.411.001-.156-.062-.306-.175-.414-.106-.113-.254-.177-.408-.176-.155,0-.303.062-.41.174l-1.377,1.362c-.113.107-.177.255-.176.411-.001.156.062.306.175.414h-.001Zm12.051-5.382l1.547.022c.157.004.308-.06.415-.176.109-.11.173-.256.18-.411.002-.326-.261-.591-.586-.593,0,0,0,0,0,0l-1.548.006c-.149.009-.29.072-.394.179-.108.1-.171.239-.177.386-.006.15.053.295.162.399.104.109.246.174.397.183l.004.004Zm-13.544-.064l1.548-.006c.152-.009.295-.075.4-.185.109-.103.17-.248.168-.398.009-.151-.048-.299-.156-.405-.108-.11-.256-.17-.41-.167l-1.547-.022c-.157-.004-.308.06-.415.176-.109.11-.173.256-.18.411-.002.326.261.591.586.593,0,0,0,0,0,0l.006.002Zm7.575-5.969c.31.009.568-.234.578-.544,0-.009,0-.019,0-.028l.022-1.547c.004-.157-.06-.308-.176-.415-.11-.109-.256-.173-.411-.18-.326-.002-.591.261-.593.586,0,0,0,0,0,0l.006,1.548c.002.147.063.286.171.386.106.113.25.183.404.195h-.001Zm-.072,13.555c.326.002.591-.261.593-.586h0s-.006-1.548-.006-1.548c.006-.153-.052-.302-.161-.41-.106-.109-.253-.168-.405-.162-.155-.009-.306.048-.417.157-.11.108-.17.256-.167.41l-.022,1.547c-.004.157.06.308.176.415.11.108.256.172.41.179h-.001Z" fill="#fff"/>
</svg>
