<?xml version="1.0" encoding="UTF-8"?>
<svg id="Ebene_1" data-name="Ebene 1" xmlns="http://www.w3.org/2000/svg" width="16.878" height="17.164" viewBox="0 0 16.878 17.164">
  <path d="m7.998,17.121C3.199,16.722-.368,12.508.03,7.709c.152-1.829.877-3.563,2.071-4.955C3.365,1.351,5.052.399,6.906.043c.63-.113,1.051-.003,1.265.33.215.413.198.909-.044,1.307-.14.333-.254.676-.341,1.026-.087.352-.145.71-.173,1.071-.274,3.302,2.181,6.202,5.483,6.476.017.001.034.003.051.004.401.034.804.031,1.205-.011.375-.041.723-.084,1.042-.13.6-.128.951-.088,1.281.227.286.38.271.864.051,1.26-.638,1.718-1.808,3.187-3.339,4.194-1.589,1.051-3.493,1.518-5.388,1.323Zm.091-1.154c3.332.263,6.436-1.707,7.616-4.834-.422.132-.857.22-1.297.262-.45.045-.904.051-1.355.015-3.948-.301-6.903-3.746-6.602-7.693,0-.011.002-.022.003-.033.034-.415.104-.825.209-1.228.129-.48.298-.948.507-1.399-1.594.346-3.033,1.198-4.103,2.429C.304,6.572.566,11.313,3.652,14.076c1.23,1.102,2.789,1.766,4.436,1.891h.002Z" fill="#fff"/>
</svg>
