<?xml version="1.0" encoding="UTF-8" standalone="no"?>
<svg
 xmlns="http://www.w3.org/2000/svg"
 version="1.1"
 x="0px" y="0px" width="50px" height="24px"
 viewBox="0 0 50 24"
 xml:space="preserve">
  <g>
    <path stroke="white" fill="#FFA45E" d="M3 22.5c-0.708 0-1.27-0.276-1.55-0.759-0.278-0.481-0.235-1.11 0.119-1.72l9-15.6c0.354-0.613 0.876-0.965 1.43-0.965s1.08 0.352 1.43 0.965l9 15.6c0.354 0.613 0.397 1.24 0.119 1.72-0.279 0.482-0.844 0.759-1.55 0.759h-18"/>
    <ellipse fill="white" rx="1.25" ry="1.25" cx="12.00" cy="18.40"/>
    <path fill="white" d="M12 8.69c-0.6 0-1 0.45-1 1v5.01c0 0.5 0.4 1 1 1s1-0.5 1-1v-5.01c0-0.55-0.4-1-1-1z"/>
  </g>
  <g transform="translate(26, 0)">
    <path stroke="white" fill="#CC0000" d="M3 22.5c-0.708 0-1.27-0.276-1.55-0.759-0.278-0.481-0.235-1.11 0.119-1.72l9-15.6c0.354-0.613 0.876-0.965 1.43-0.965s1.08 0.352 1.43 0.965l9 15.6c0.354 0.613 0.397 1.24 0.119 1.72-0.279 0.482-0.844 0.759-1.55 0.759h-18"/>
    <ellipse fill="white" rx="1.25" ry="1.25" cx="12.00" cy="18.40"/>
    <path fill="white" d="M12 8.69c-0.6 0-1 0.45-1 1v5.01c0 0.5 0.4 1 1 1s1-0.5 1-1v-5.01c0-0.55-0.4-1-1-1z"/>
  </g>
</svg>
