<svg xmlns="http://www.w3.org/2000/svg" height="40" width="40" viewBox="0 0 40 40.000001"><g display="block"><path d="M16.7 13.81l-5.931 5.315M19.434 10.221l2.86-6.435M19.963 14.007l5.208 7.192M26.327 24.985l-1.085 9.59M8.21 22.713L5.63 30.032M14.994 30.032l-.627 6.183M6.857 33.195l5.426 3.642M10.508 22.713l3.046 3.533M23.135 36.754l-7.066 1.068M17.078 27.298l7.571-3.365M28.435 22.259l5.678-2.498" stroke="#FFF" stroke-miterlimit="10" stroke-width=".25236" fill="none"/><path d="M16.7 10.221h3.785v3.786h-3.786zM24.65 21.199h3.785v3.786h-3.786zM21.242 0h3.786v3.786h-3.786zM13.292 26.246h3.786v3.786h-3.786zM6.983 18.928h3.786v3.785H6.983zM23.135 34.575h3.785v3.785h-3.785zM3.072 30.032h3.785v3.785H3.072zM12.283 36.215h3.786v3.786h-3.786zM34.113 17.035h3.785v3.785h-3.785z" stroke="#FFF" fill="#FFF"/></g></svg>
