<?xml version="1.0" encoding="utf-8"?>
<!-- ////////////////////////////////////////////////////////////////////////
     // @license
     // This demo file is part of yFiles for HTML 2.6.
     // Copyright (c) 2000-2023 by yWorks GmbH, Vor dem Kreuzberg 28,
     // 72070 Tuebingen, Germany. All rights reserved.
     //
     // yFiles demo files exhibit yFiles for HTML functionalities. Any redistribution
     // of demo files in source code or binary form, with or without
     // modification, is not permitted.
     //
     // Owners of a valid software license for a yFiles for HTML version that this
     // demo is shipped with are allowed to use the demo source code as basis
     // for their own yFiles for HTML powered applications. Use of such programs is
     // governed by the rights and conditions as set out in the yFiles for HTML
     // license agreement.
     //
     // THIS SOFTWARE IS PROVIDED ''AS IS'' AND ANY EXPRESS OR IMPLIED
     // WARRANTIES, INCLUDING, BUT NOT LIMITED TO, THE IMPLIED WARRANTIES OF
     // MERCHANTABILITY AND FITNESS FOR A PARTICULAR PURPOSE ARE DISCLAIMED. IN
     // NO EVENT SHALL yWorks BE LIABLE FOR ANY DIRECT, INDIRECT, INCIDENTAL,
     // SPECIAL, EXEMPLARY, OR CONSEQUENTIAL DAMAGES (INCLUDING, BUT NOT LIMITED
     // TO, PROCUREMENT OF SUBSTITUTE GOODS OR SERVICES; LOSS OF USE, DATA, OR
     // PROFITS; OR BUSINESS INTERRUPTION) HOWEVER CAUSED AND ON ANY THEORY OF
     // LIABILITY, WHETHER IN CONTRACT, STRICT LIABILITY, OR TORT (INCLUDING
     // NEGLIGENCE OR OTHERWISE) ARISING IN ANY WAY OUT OF THE USE OF THIS
     // SOFTWARE, EVEN IF ADVISED OF THE POSSIBILITY OF SUCH DAMAGE.
     //
     ////////////////////////////////////////////////////////////////////////-->

<svg xmlns="http://www.w3.org/2000/svg" viewBox="0 0 113.39 113.39">
  <path
    d="M12.39 47.29l.1 19.3a27.74 27.74 0 0 0 13.9 23.8l16.8 9.6a27.32 27.32 0 0 0 27.5-.2L87.39 90A27.44 27.44 0 0 0 101 66.09l-.1-19.4A27.86 27.86 0 0 0 87 22.89l-16.7-9.5a27.32 27.32 0 0 0-27.5.2l-16.7 9.8a27.5 27.5 0 0 0-13.7 23.9"
    fill="#fff"/>
  <path
    d="M66.39 75.79a13.53 13.53 0 0 1 2 3.1 5.64 5.64 0 0 1-.9 6.2 5.54 5.54 0 0 1-7.4.7 6 6 0 0 1-2.2-5 10.86 10.86 0 0 1 1.1-3.9 25.54 25.54 0 0 0 1.4-3.5 14.12 14.12 0 0 0 .4-4.6c-.1-1.6-.3-3.1-.5-4.7a11.49 11.49 0 0 0-2.8-6 14.65 14.65 0 0 0-5.2-3.4c-.9-.4-1.7-.8-2.6-1.1a13.45 13.45 0 0 0-6.3-.9c-1.4.1-2.7.4-4.1.4a6.21 6.21 0 0 1-4.4-1.5 5.48 5.48 0 0 1-1.1-7 5.55 5.55 0 0 1 7.8-1.7 8 8 0 0 1 2.3 2.2l1.7 2.3a12.94 12.94 0 0 0 3.3 3.3 14 14 0 0 0 3 1.5c1 .4 2 .9 3 1.3a11.55 11.55 0 0 0 5.5.8 12.46 12.46 0 0 0 4.6-1.5c1.2-.7 2.3-1.6 3.5-2.4a13.43 13.43 0 0 0 3.2-3.1 14.59 14.59 0 0 0 1.7-3 15.9 15.9 0 0 1 2.1-4.1 6.14 6.14 0 0 1 3.8-2.5 5.2 5.2 0 0 1 5 1.6 5.26 5.26 0 0 1 1.4 4.6 5.74 5.74 0 0 1-3 4.1 13.58 13.58 0 0 1-4.9 1.2 15.19 15.19 0 0 0-5.1 1.2c-.6.3-1.1.6-1.6.9a38.77 38.77 0 0 0-3.3 2.3 14.06 14.06 0 0 0-3.6 3.7 12.57 12.57 0 0 0-1.5 3.8 17 17 0 0 0 0 4.5 22.26 22.26 0 0 0 .5 3.6 13 13 0 0 0 1.8 4.6c.5.7 1 1.4 1.4 2"
    fill="#29323c"/>
  <path
    d="M71.39 64a13.54 13.54 0 0 1 3.6.8 5.85 5.85 0 0 1 3.8 5 5.39 5.39 0 0 1-4.7 5.7 5.79 5.79 0 0 1-5.1-2 10 10 0 0 1-1.9-3.5 36.83 36.83 0 0 0-1.5-3.5 10.88 10.88 0 0 0-2.9-3.5c-1.2-1-2.4-2-3.7-2.9a11.46 11.46 0 0 0-6.2-2.3 13.93 13.93 0 0 0-6.1 1.3 27.73 27.73 0 0 1-2.6 1A13.93 13.93 0 0 0 39 64c-.9 1.1-1.7 2.2-2.6 3.2a7 7 0 0 1-4.2 2.1 5.47 5.47 0 0 1-5.7-4.2 5.54 5.54 0 0 1 4.3-6.7 8.55 8.55 0 0 1 3.2-.1c.9.1 1.9.3 2.8.4a18.48 18.48 0 0 0 4.7 0 19.66 19.66 0 0 0 3.2-1l3-1.2a12.23 12.23 0 0 0 4.5-3.3 11.72 11.72 0 0 0 2.2-4.3c.3-1.4.5-2.8.7-4.2a17 17 0 0 0 .1-4.5 17.83 17.83 0 0 0-.9-3.3 32.55 32.55 0 0 1-1.5-4.4 6.49 6.49 0 0 1 .9-4.5 5.19 5.19 0 0 1 4.7-2.4 5.36 5.36 0 0 1 4.3 2.3 5.56 5.56 0 0 1 .8 5 12.06 12.06 0 0 1-2.7 4.3 15.66 15.66 0 0 0-2.8 4.4 12.09 12.09 0 0 0-.5 1.8c-.3 1.3-.5 2.6-.7 4a13 13 0 0 0 .1 5.2 12.45 12.45 0 0 0 1.7 3.7 23.45 23.45 0 0 0 3.1 3.2 32.53 32.53 0 0 0 2.9 2.3 13 13 0 0 0 4.5 2 19.53 19.53 0 0 1 2.3.2"
    fill="#29323c"/>
</svg>
