<?xml version="1.0" encoding="UTF-8" standalone="no"?>
<svg viewBox="0 0 27.427475 58.442263" height="141.39258" width="114.28114" xmlns="http://www.w3.org/2000/svg">
  <path style="fill:#782121;stroke:#000000;stroke-width:1.08968"
        d="m 36.787001,15.437054 a 23.073263,19.013904 0 0 1 -11.536631,16.466524 23.073263,19.013904 0 0 1 -23.0732634,0 23.073263,19.013904 0 0 1 -11.536631,-16.466524 H 13.713738 Z"/>
  <path
     style="fill:#000000;fill-opacity:1;stroke-width:0.215267"
     d="m 4.3833396,33.314503 -6.618177,24.699895 1.59682301,0.427864 6.61817699,-24.699894 z" />
  <rect
     style="fill:#000000;fill-opacity:1;stroke-width:0.215267"
     width="25.571239"
     height="1.6533333"
     x="-63.327171"
     y="-12.944276"
     transform="matrix(-0.25881905,-0.96592583,-0.96592583,0.25881905,0,0)" />
  <rect
     style="fill:#000000;fill-opacity:1;stroke-width:0.161953"
     width="23.313301"
     height="1.6533333"
     x="1.6636219"
     y="44.968658" />
  <path
     style="fill:#000000;fill-opacity:1;stroke-width:0.358878"
     d="m 3.2295396,0 c -0.118966,1.271693 -0.06171,2.544993 -0.0044,3.817271 0.09765,0.76781 0.232645,1.541767 0.685448,2.241433 0.224816,0.404869 0.526768,0.579229 0.993979,0.81824 0.518606,0.264694 0.886985,0.710655 1.164352,1.128015 0.25549,0.485026 0.203327,1.014202 0.188464,1.525153 0.02728,0.455462 -0.0889,0.90076 -0.154893,1.350638 -0.0229,0.156996 -0.02827,0.314745 -0.03249,0.472472 0,0 1.389366,0.535659 1.389366,0.535659 v 0 c 0.0021,-0.154522 0.0048,-0.309114 0.0255,-0.463047 0.06233,-0.453408 0.189154,-0.900938 0.159786,-1.359804 0.01686,-0.52591 0.07216,-1.068 -0.156079,-1.574339 C 7.2984976,8.174667 7.0498696,7.899789 6.7751476,7.620454 6.7046976,7.548824 6.6415956,7.472011 6.5583336,7.408669 6.5011836,7.365199 6.4251866,7.338609 6.3586146,7.303573 6.1487036,7.207953 5.6936356,6.992665 5.5530236,6.854471 5.4576636,6.760751 5.4308756,6.633931 5.3326426,6.541481 4.8359946,5.871216 4.7319916,5.096737 4.6145136,4.346413 4.5554336,3.077485 4.4890996,1.80733 4.6136866,0.538975 4.6136866,0.538975 3.2295696,0 3.2295696,0 Z" />
  <path
     style="fill:#000000;fill-opacity:1;stroke-width:0.358878"
     d="m 10.413089,0 c -0.118966,1.271693 -0.06171,2.544993 -0.0044,3.817271 0.09765,0.76781 0.232645,1.541767 0.685448,2.241433 0.224816,0.404869 0.526768,0.579229 0.993979,0.81824 0.518606,0.264694 0.886985,0.710655 1.164352,1.128015 0.25549,0.485026 0.203327,1.014202 0.188464,1.525153 0.02728,0.455462 -0.0889,0.90076 -0.154893,1.350638 -0.0229,0.156996 -0.02827,0.314745 -0.03249,0.472472 0,0 1.389366,0.535659 1.389366,0.535659 v 0 c 0.0021,-0.154522 0.0048,-0.309114 0.0255,-0.463047 0.06233,-0.453408 0.189154,-0.900938 0.159786,-1.359804 0.01686,-0.52591 0.07216,-1.068 -0.156079,-1.574339 C 14.482047,8.174667 14.233419,7.899789 13.958697,7.620454 13.888247,7.548824 13.825145,7.472011 13.741883,7.408669 13.684733,7.365199 13.608736,7.338609 13.542164,7.303573 13.332253,7.207953 12.877185,6.992665 12.736573,6.854471 12.641213,6.760751 12.614425,6.633931 12.516192,6.541481 12.019544,5.871216 11.915541,5.096737 11.798063,4.346413 11.738983,3.077485 11.672649,1.80733 11.797236,0.538975 11.797236,0.538975 10.413119,0 10.413119,0 Z" />
  <path
     style="fill:#000000;fill-opacity:1;stroke-width:0.358878"
     d="m 17.299298,0.511119 c -0.118966,1.271693 -0.06171,2.544993 -0.0044,3.81727 0.09765,0.76781 0.232645,1.541768 0.685448,2.241433 0.224816,0.404871 0.526768,0.57923 0.993979,0.818241 0.518606,0.264694 0.886985,0.710655 1.164352,1.128014 0.25549,0.485026 0.203327,1.014202 0.188464,1.525154 0.02728,0.455461 -0.0889,0.900759 -0.154893,1.350637 -0.0229,0.156996 -0.02827,0.314746 -0.03249,0.472473 0,0 1.389366,0.535658 1.389366,0.535658 v 0 c 0.0021,-0.154521 0.0048,-0.309114 0.0255,-0.463046 0.06233,-0.453409 0.189154,-0.900939 0.159786,-1.359803 C 21.73127,10.05124 21.78657,9.509149 21.558331,9.002809 21.368256,8.685785 21.119628,8.410907 20.844906,8.131572 20.774456,8.059942 20.711354,7.98313 20.628092,7.919788 20.570942,7.876308 20.494945,7.849728 20.428373,7.814692 20.218462,7.719072 19.763394,7.503784 19.622782,7.36559 19.527422,7.27187 19.500634,7.14505 19.402401,7.0526 18.905753,6.382335 18.80175,5.607856 18.684272,4.857531 18.625192,3.588603 18.558858,2.31845 18.683445,1.050094 c 0,0 -1.384117,-0.538975 -1.384117,-0.538975 z" />
</svg>
