<?xml version="1.0" encoding="UTF-8" standalone="no"?>
<svg
   width="44.224274mm"
   height="31.098526mm"
   viewBox="0 0 44.224274 31.098526"
   xmlns="http://www.w3.org/2000/svg">
  <g transform="translate(-51.053394,-67.737982)">
    <g
       transform="matrix(0.27340277,0,0,0.27340277,51.053394,74.985709)">
      <g
         transform="matrix(0.46984631,0.17101007,-0.17101007,0.46984631,104.45537,-27.128605)">
        <rect
           style="stroke:#000000"
           x="0"
           y="2"
           height="82"
           width="120" />
        <rect
           style="fill:#ffffff;stroke:#000000"
           x="0"
           y="4"
           height="20"
           width="20"/>
        <rect
           style="stroke:#000000"
           x="20"
           y="4"
           height="20"
           width="20" />
        <rect
           style="fill:#ffffff;stroke:#000000"
           x="40"
           y="4"
           height="20"
           width="20"/>
        <rect
           style="stroke:#000000"
           x="60"
           y="4"
           height="20"
           width="20" />
        <rect
           style="fill:#ffffff;stroke:#000000"
           x="80"
           y="4"
           height="20"
           width="20" />
        <rect
           style="stroke:#000000"
           x="100"
           y="4"
           height="20"
           width="20"/>
        <rect
           style="stroke:#000000"
           x="0"
           y="24"
           height="20"
           width="20" />
        <rect
           style="fill:#ffffff;stroke:#000000"
           x="20"
           y="24"
           height="20"
           width="20"/>
        <rect
           style="stroke:#000000"
           x="40"
           y="24"
           height="20"
           width="20" />
        <rect
           style="fill:#ffffff;stroke:#000000"
           x="60"
           y="24"
           height="20"
           width="20" />
        <rect
           style="stroke:#000000"
           x="80"
           y="24"
           height="20"
           width="20"/>
        <rect
           style="fill:#ffffff;stroke:#000000"
           x="100"
           y="24"
           height="20"
           width="20"/>
        <rect
           style="fill:#ffffff;stroke:#000000"
           x="0"
           y="44"
           height="20"
           width="20"/>
        <rect
           style="stroke:#000000"
           x="20"
           y="44"
           height="20"
           width="20" />
        <rect
           style="fill:#ffffff;stroke:#000000"
           x="40"
           y="44"
           height="20"
           width="20" />
        <rect
           style="stroke:#000000"
           x="60"
           y="44"
           height="20"
           width="20" />
        <rect
           style="fill:#ffffff;stroke:#000000"
           x="80"
           y="44"
           height="20"
           width="20"/>
        <rect
           style="stroke:#000000"
           x="100"
           y="44"
           height="20"
           width="20" />
        <rect
           style="stroke:#000000"
           x="0"
           y="64"
           height="20"
           width="20" />
        <rect
           style="fill:#ffffff;stroke:#000000"
           x="20"
           y="64"
           height="20"
           width="20"/>
        <rect
           style="stroke:#000000"
           x="40"
           y="64"
           height="20"
           width="20"/>
        <rect
           style="fill:#ffffff;stroke:#000000"
           x="60"
           y="64"
           height="20"
           width="20" />
        <rect
           style="stroke:#000000"
           x="80"
           y="64"
           height="20"
           width="20" />
        <rect
           style="fill:#ffffff;stroke:#000000"
           x="100"
           y="64"
           height="20"
           width="20" />
        <rect
           style="stroke:#000000"
           x="0"
           y="2"
           height="240"
           width="2"/>
        <rect
           style="stroke:#000000"
           x="2"
           y="84"
           height="2"
           width="120"/>
        <rect
           style="stroke:#000000"
           x="120"
           y="2"
           height="82"
           width="2" />
      </g>
      <g
         transform="matrix(-0.46984631,0.17101007,0.17101007,0.46984631,57.299658,-27.128398)">
        <rect
           style="stroke:#000000"
           x="0"
           y="2"
           height="82"
           width="120" />
        <rect
           style="fill:#ffffff;stroke:#000000"
           x="0"
           y="4"
           height="20"
           width="20" />
        <rect
           style="stroke:#000000"
           x="20"
           y="4"
           height="20"
           width="20" />
        <rect
           style="fill:#ffffff;stroke:#000000"
           x="40"
           y="4"
           height="20"
           width="20" />
        <rect
           style="stroke:#000000"
           x="60"
           y="4"
           height="20"
           width="20" />
        <rect
           style="fill:#ffffff;stroke:#000000"
           x="80"
           y="4"
           height="20"
           width="20" />
        <rect
           style="stroke:#000000"
           x="100"
           y="4"
           height="20"
           width="20" />
        <rect
           style="stroke:#000000"
           x="0"
           y="24"
           height="20"
           width="20" />
        <rect
           style="fill:#ffffff;stroke:#000000"
           x="20"
           y="24"
           height="20"
           width="20" />
        <rect
           style="stroke:#000000"
           x="40"
           y="24"
           height="20"
           width="20" />
        <rect
           style="fill:#ffffff;stroke:#000000"
           x="60"
           y="24"
           height="20"
           width="20"/>
        <rect
           style="stroke:#000000"
           x="80"
           y="24"
           height="20"
           width="20" />
        <rect
           style="fill:#ffffff;stroke:#000000"
           x="100"
           y="24"
           height="20"
           width="20" />
        <rect
           style="fill:#ffffff;stroke:#000000"
           x="0"
           y="44"
           height="20"
           width="20" />
        <rect
           style="stroke:#000000"
           x="20"
           y="44"
           height="20"
           width="20" />
        <rect
           style="fill:#ffffff;stroke:#000000"
           x="40"
           y="44"
           height="20"
           width="20" />
        <rect
           style="stroke:#000000"
           x="60"
           y="44"
           height="20"
           width="20" />
        <rect
           style="fill:#ffffff;stroke:#000000"
           x="80"
           y="44"
           height="20"
           width="20"/>
        <rect
           style="stroke:#000000"
           x="100"
           y="44"
           height="20"
           width="20" />
        <rect
           style="stroke:#000000"
           x="0"
           y="64"
           height="20"
           width="20" />
        <rect
           style="fill:#ffffff;stroke:#000000"
           x="20"
           y="64"
           height="20"
           width="20"/>
        <rect
           style="stroke:#000000"
           x="40"
           y="64"
           height="20"
           width="20" />
        <rect
           style="fill:#ffffff;stroke:#000000"
           x="60"
           y="64"
           height="20"
           width="20" />
        <rect
           style="stroke:#000000"
           x="80"
           y="64"
           height="20"
           width="20" />
        <rect
           style="fill:#ffffff;stroke:#000000"
           x="100"
           y="64"
           height="20"
           width="20"/>
        <rect
           style="stroke:#000000"
           x="0"
           y="2"
           height="240"
           width="2" />
        <rect
           style="stroke:#000000"
           x="2"
           y="84"
           height="2"
           width="120" />
        <rect
           style="stroke:#000000"
           x="120"
           y="2"
           height="82"
           width="2" />
      </g>
    </g>
  </g>
</svg>
