<?xml version="1.0" encoding="utf-8"?>
<!-- Generator: Adobe Illustrator 23.0.1, SVG Export Plug-In . SVG Version: 6.00 Build 0)  -->
<svg version="1.1" id="Layer_1" xmlns="http://www.w3.org/2000/svg" x="0px" y="0px"
	 viewBox="0 0 1000 394.6" style="enable-background:new 0 0 1000 394.6;" xml:space="preserve">
<style type="text/css">
	.st0{fill:#242265;}
	.st1{fill:#FF6C00;}
</style>
<g id="yWorks_1_">
	<path class="st0" d="M645.7,197c0-28.6,20.6-48.8,49.6-48.8s49.8,20.1,49.8,48.8s-20.7,48.9-49.8,48.9
		C666.2,245.9,645.7,225.6,645.7,197 M722.1,197c0-17-10.8-28.8-26.7-28.8c-15.8,0-26.7,11.8-26.7,28.8s11,28.9,26.7,28.9
		C711.3,225.8,722.1,213.9,722.1,197"/>
	<path class="st0" d="M822.2,152.6l-5.8,19.1c-3.5-1.3-7.3-2.1-12-2.1c-13,0-22,8.5-22,23.2v50.4h-22.6v-92.6h15.3l4.4,13.7
		c5.4-10.4,14.7-15.8,26.7-15.8C812.7,148.6,817.9,150.1,822.2,152.6"/>
	<path class="st1" d="M534.5,150.7v0.6l-48.6,122.8h-24v-0.4l14.6-32.7l-39.7-89.7v-0.6h24.5l25.8,62l23.7-62.1L534.5,150.7
		L534.5,150.7z"/>
	<path class="st0" d="M621.8,150.7l-14.3,41.1c-1.3,3.5-2.5,7.3-3.5,11.4c-1.6-4.1-3.3-7.9-5.4-11.7l-18.1-36.3h-4.8l-18,36.4
		c-1.9,3.8-3.5,7.3-5.1,11.4c-1-3.9-2.1-7.5-3.3-11.2L538.5,161l-12.3,31.3l19.4,51.8h6.9l26-51.7l25.7,51.7h7l34.6-92.7v-0.6H621.8
		z"/>
	<path class="st0" d="M947.6,188.2c-9.9-3.5-16.8-7-16.8-13.1c0-5.8,6-7.9,13.1-7.9c6.3,0,13.7,1.9,20.6,5.4l7.9-15.2
		c-9.9-5.8-19.7-8.3-30.3-8.3c-17.7,0-32.7,8.9-32.7,26c0,15.2,11.4,22.8,26.1,28.5c9.1,3.5,17.8,6.9,17.8,13.7
		c0,5.8-5.4,9.5-13.7,9.5c-8.7,0-17.4-2.7-25.3-7.7l-1.5-1v21.1c8.7,4.1,17.8,6.2,28.5,6.2c20.3,0,34.2-10.8,34.2-28
		C975.4,201.9,963.8,194.2,947.6,188.2"/>
	<polygon class="st0" points="902.2,230.6 872,195.5 902.2,159.5 902.2,150.7 883.2,150.7 852.5,187.4 852.5,118.7 829.8,118.7
		829.8,243.2 852.5,243.2 852.5,203.7 885.7,243.2 902.2,243.2 	"/>
</g>
<path class="st0" d="M25.5,160.3l0.4,75.4c0.2,38.3,20.8,73.6,54,92.6l65.5,37.4c33.3,19,74.1,18.8,107.2-0.5l65.1-38
	c33.1-19.3,53.4-54.8,53.2-93.1l-0.4-75.4c-0.2-38.3-20.8-73.6-54-92.6L251,28.7c-33.3-19-74.1-18.8-107.2,0.5l-65.2,38
	C45.6,86.5,25.4,122,25.5,160.3"/>
<path class="st1" d="M127.2,172.3c-5.2,0-9.9,0.3-14.5-1c-9.1-2.4-15.3-7.9-17.5-17.3c-2.6-10.6,4.3-21.9,14.8-24.8
	c7.8-2.1,14.7-0.1,20.9,4.8c4.3,3.4,7,7.9,9.6,12.5c2.4,4.3,4.8,8.7,7.8,12.6c3.7,4.8,8.2,8.7,13.4,11.9c5.2,3.3,10.4,6.4,15.9,9.1
	c7.9,3.9,16.2,6,25.3,5c8.4-0.9,15.8-4.3,22.9-8.5c3.1-1.9,6.3-3.6,9.5-5.6c7.3-4.5,13-10.6,17.3-17.9c2.7-4.6,5.1-9.4,8.3-13.8
	c3.8-5.3,8.7-9,15.1-10.5c9.5-2.2,20.6,2.7,24.6,12.7c4.5,11.4-1.2,23.8-12.8,28.4c-3.9,1.6-7.9,2.3-12.1,2.3c-3.7,0-7.3,0-11,0
	c-6.1,0-12.2,0.9-18,2.9c-4.1,1.4-7.9,3.6-11.7,5.7c-3.7,2.1-7.4,4.2-10.9,6.5c-6.3,4-11.5,9-15.2,15.5c-3.2,5.6-5.2,11.6-5.8,18.1
	c-0.5,5.5-0.4,11-0.4,16.6c0,5.9,0.4,11.7,2.2,17.3c1.3,4.3,3.3,8.4,5.5,12.3c2.9,5.3,6.4,10.3,8.3,16.1c1.9,6.1,1.9,12.1-0.8,17.9
	c-3.4,7-8.9,11.2-16.7,12.1c-7,0.9-13-1.4-17.8-6.3c-5-5.1-6.9-11.6-5.9-18.8c0.9-6.8,4.3-12.5,7.7-18.2c3.6-5.9,6.8-11.9,8.1-18.8
	c0.5-2.4,0.7-4.8,0.9-7.3c0.4-5.3,0.4-10.5,0.3-15.8c-0.2-6.8-0.6-13.6-3.5-19.9c-2.2-4.9-4.9-9.5-8.7-13.4
	c-4.1-4.2-8.9-7.5-13.9-10.5c-4.1-2.4-8.2-4.9-12.5-7c-5.9-2.9-12.1-4.5-18.6-5C133.5,172.3,130.1,172.5,127.2,172.3z"/>
</svg>
