<?xml version="1.0" encoding="UTF-8" standalone="no"?>
<svg xmlns="http://www.w3.org/2000/svg" width="762.02686" height="465.9277" viewBox="0 0 762.02687 465.9277" id="svg4155">
  <g id="layer1" transform="translate(4.5848548,-13.684068)">
    <path
       style="fill:#cccccc;fill-opacity:1;fill-rule:evenodd;stroke:#cccccc;stroke-width:1px;stroke-linecap:butt;stroke-linejoin:miter;stroke-opacity:1"
       d="m 35.099829,17.740074 -0.68728,37.80068 -27.4914104,59.793806 -10.99657,43.98626 12.37114,81.09965 13.0584204,30.92784 -4.811,10.99656 20.61856,8.93471 13.05842,15.12027 6.87285,-2.74914 4.12371,14.43299 30.92783,12.37114 c 54.295541,35.05154 55.670111,34.36426 55.670111,34.36426 48.79725,5.49828 48.10996,5.49828 48.10996,5.49828 l 0,-8.93471 25.42956,2.74914 46.04811,54.29554 14.43299,-15.12028 17.86941,2.74914 31.61512,61.85567 32.30241,10.99657 -0.68729,-33.67698 56.35739,-37.1134 51.54639,10.99656 21.30585,-13.7457 -4.811,-5.49828 5.49828,-7.56014 45.36083,-2.74914 19.24398,9.62199 19.24399,-8.93471 16.49484,15.80756 19.93127,46.04811 24.05499,18.5567 10.99656,-0.68728 2.74914,-30.24055 -37.1134,-64.60481 3.43643,-24.74227 24.05498,-25.42955 4.811,-15.80756 10.30927,-1.37457 28.86598,-41.9244 -19.24398,-33.67698 17.18213,-7.56014 -2.06186,-18.5567 8.93471,-13.05842 -2.74914,-13.05842 22.68041,-15.12027 20.61856,-18.5567 -13.74571,-11.68385 3.43643,-26.80412 36.42612,-28.178686 -32.98969,-44.67354 -11.68385,8.24742 -8.24743,44.67354 -57.04467,16.494836 -8.24742,17.86941 8.24742,6.18557 -17.18213,13.05842 -22.68041,4.12371 6.18556,6.87285 -43.98625,32.9897 -17.18213,-5.49829 11.68385,-22.68041 -6.87285,-20.61856 -12.37114,-19.93127 -19.24398,-7.56013 -13.05842,17.18213 -4.811,26.11683 6.87285,17.86942 -8.24742,18.5567 -8.93471,-2.06185 -6.18557,-27.49141 6.18557,-36.42612 -8.93471,15.12027 -2.74914,-4.12371 9.622,-21.99312 39.86254,-8.24742 -3.43643,-11.683846 -39.17525,8.247416 -14.43299,-8.247416 10.30927,-11.68385 -9.62199,-2.06186 -24.05498,23.367696 -19.93127,-2.749136 15.80756,-16.49484 19.24398,-8.93471 -28.17869,0 -2.06186,2.74914 -20.61855,-11.68385 -7.56014,4.811 -8.24742,-4.12371 -5.49829,-13.74571 -5.49828,0 2.06186,7.56014 -109.96564,-5.49828 -221.993131,-39.17526 4.12372,20.61856 z"
       id="path4144"/>
  </g>
</svg>
