<svg id="wlan" xmlns="http://www.w3.org/2000/svg" viewBox="0 0 70 70">
  <path fill="#67B7DC" d="M9.6 45.9C8 42.4 7.2 38.6 7.2 34.6c0-15.2 12.3-27.5 27.5-27.5a27.48 27.48 0 0 1 25.1 38.7l4.4 2C66 43.7 67 39.3 67 34.5A32.4 32.4 0 0 0 34.6 2.1C16.8 2.2 2.3 16.7 2.3 34.6c0 4.7 1 9.2 2.8 13.3l4.5-2z"/>
  <path fill="#67B7DC" d="M18.4 41.8a17.84 17.84 0 0 1 16.3-25 17.84 17.84 0 0 1 16.3 25l4.4 2c1.3-2.8 2-5.9 2-9.2 0-12.5-10.2-22.7-22.7-22.7S12 22.1 12 34.6c0 3.3.7 6.4 2 9.2l4.4-2z"/>
  <path fill="#67B7DC" d="M27.2 37.7a8.15 8.15 0 0 1 7.5-11.2c4.5 0 8.1 3.6 8.1 8.1 0 1.1-.2 2.2-.6 3.1l4.4 2a12.97 12.97 0 0 0-11.9-18.2 12.97 12.97 0 0 0-11.9 18.2l4.4-2z"/>
  <path fill="#afafaf" d="M21.5 52.2c0 .6-.5 1.2-1.2 1.2h-.1c-.6 0-1.2-.5-1.2-1.2V22.4c0-.6.5-1.2 1.2-1.2h.1c.6 0 1.2.5 1.2 1.2v29.8zm29.4 0c0 .6-.5 1.2-1.2 1.2h-.1c-.6 0-1.2-.5-1.2-1.2V22.4c0-.6.5-1.2 1.2-1.2h.1c.6 0 1.2.5 1.2 1.2v29.8z"/>
  <path fill="#afafaf" d="M66.2 56.6c-.1 0-.1 0-.1-.1l-10.4-5.2c-1.2-.6-3.2-1.1-4.4-1.2 0 0-4.8-.4-15.9-.4-9.1 0-16.4.4-16.4.4-1.3.1-3.3.6-4.5 1.2l-10.1 5c-1.1.3-1.9 1.3-1.9 2.4v5.9c0 1.3 1.1 2.4 2.3 2.5 0 0 12 1 30.2 1 18.8 0 30.2-1 30.2-1 1.3-.1 2.3-1.3 2.3-2.6v-5.9c0-.7-.5-1.6-1.3-2zm-30.8-1.3h-.3.3zm-1.5 0h-.1.1z"/>
  <path d="M51.6 56.6c0-.1 0-.1 0 0L46 50.8c-.6-.6-1.7-1.1-2.4-1.2 0 0-2.6-.4-8.5-.4-4.8 0-8.7.4-8.7.4-.7.1-1.8.6-2.4 1.2l-5.4 5.5c-.6.3-1 1.3-1 2.4v6.7c0 1.3.6 2.4 1.3 2.5 0 0 6.4 1 16.1 1 10 0 16.1-1 16.1-1 .7-.1 1.3-1.3 1.3-2.6v-6.7c-.1-.7-.4-1.6-.8-2zm-16.4-1.3h-.1.1zm-.8 0z" fill="#67B7DC"/>
  <path d="M65 59.9h2.6V61H65zm-25.8 2.6h4v2.3h-4zm-6.3.2h4L37 65h-4zm-6.2-.2h4l.1 2.3h-4zm18.7-.3h4l.1 2.3h-4zm-24.9 0h4l.1 2.3h-4.1z" fill="#c8ff00" stroke="#717171" stroke-width=".06" stroke-miterlimit="10"/>
</svg>
