<?xml version="1.0" encoding="utf-8"?>
<!-- ////////////////////////////////////////////////////////////////////////
     // @license
     // This demo file is part of yFiles for HTML 2.6.
     // Copyright (c) 2000-2023 by yWorks GmbH, Vor dem Kreuzberg 28,
     // 72070 Tuebingen, Germany. All rights reserved.
     //
     // yFiles demo files exhibit yFiles for HTML functionalities. Any redistribution
     // of demo files in source code or binary form, with or without
     // modification, is not permitted.
     //
     // Owners of a valid software license for a yFiles for HTML version that this
     // demo is shipped with are allowed to use the demo source code as basis
     // for their own yFiles for HTML powered applications. Use of such programs is
     // governed by the rights and conditions as set out in the yFiles for HTML
     // license agreement.
     //
     // THIS SOFTWARE IS PROVIDED ''AS IS'' AND ANY EXPRESS OR IMPLIED
     // WARRANTIES, INCLUDING, BUT NOT LIMITED TO, THE IMPLIED WARRANTIES OF
     // MERCHANTABILITY AND FITNESS FOR A PARTICULAR PURPOSE ARE DISCLAIMED. IN
     // NO EVENT SHALL yWorks BE LIABLE FOR ANY DIRECT, INDIRECT, INCIDENTAL,
     // SPECIAL, EXEMPLARY, OR CONSEQUENTIAL DAMAGES (INCLUDING, BUT NOT LIMITED
     // TO, PROCUREMENT OF SUBSTITUTE GOODS OR SERVICES; LOSS OF USE, DATA, OR
     // PROFITS; OR BUSINESS INTERRUPTION) HOWEVER CAUSED AND ON ANY THEORY OF
     // LIABILITY, WHETHER IN CONTRACT, STRICT LIABILITY, OR TORT (INCLUDING
     // NEGLIGENCE OR OTHERWISE) ARISING IN ANY WAY OUT OF THE USE OF THIS
     // SOFTWARE, EVEN IF ADVISED OF THE POSSIBILITY OF SUCH DAMAGE.
     //
     ////////////////////////////////////////////////////////////////////////-->

<svg id="workstation" xmlns="http://www.w3.org/2000/svg" viewBox="3 7 65 60">
  <path fill="#afafaf" d="M54.6 59.5c.2.5-.1.8-.6.8H3.9c-.5 0-.6-.3-.2-.6l8-7.2c.4-.3 1.1-.6 1.6-.6h37.3c.5 0 1.1.4 1.3.8l2.7 6.8z"/>
  <path d="M54.6 59.5c.2.5-.1.8-.6.8H3.9c-.5 0-.6-.3-.2-.6l8-7.2c.4-.3 1.1-.6 1.6-.6h37.3c.5 0 1.1.4 1.3.8l2.7 6.8z" fill="none" stroke="#8d8d8d" stroke-width=".25" stroke-linecap="round" stroke-linejoin="round" stroke-miterlimit="10"/>
  <path fill="#6e6e6e" d="M35.4 58.1c0 .3-.2.5-.5.5H7.3c-.3 0-.3-.1-.1-.3l5.6-5.2c.2-.2.5-.3.8-.3H35c.3 0 .5.2.5.5l-.1 4.8zm8.6.1c.1.2.4.4.6.4h7.5c.3 0 .4-.2.3-.4l-2-4.9c-.1-.2-.4-.4-.6-.4h-7.2c-.3 0-.4.2-.3.4l1.7 4.9zm-7.8-.1c0 .3.2.5.5.5h6.1c.3 0 .4-.2.3-.4l-.2-.4c-.1-.2-.4-.4-.6-.4h-1c-.3 0-.5-.2-.6-.4v-.1c-.1-.2-.3-.4-.6-.4h-1.3c-.3 0-.4.2-.4.5v.1c0 .3-.2.5-.4.5h-1.3c-.3 0-.5.2-.5.5zm0-3.5c0 .3.2.5.5.5h4.8c.3 0 .4-.2.3-.4l-.4-1.3c-.1-.2-.3-.4-.6-.4h-4.2c-.3 0-.5.2-.5.5.1-.2.1 1.1.1 1.1zm14.2-6.5c0 1-6.8 1.4-12.4 1.4-3.9 0-10.9-.3-11.4-1.3v1.7c0 .7 4.8 1.2 11.4 1.2s12.4-.6 12.4-1.4v-1.6z"/>
  <path d="M38.5 46.9c6.6 0 11.9.6 11.9 1.3s-5.3 1.4-11.9 1.4c-6.7 0-11.9-.7-11.9-1.4s5.3-1.3 11.9-1.3z" fill="gray"/>
  <path fill="#6e6e6e" d="M41 48.5s-1.5.1-2.5.1-2.5-.1-2.5-.1v-9.8h5v9.8z"/>
  <path fill="#6e6e6e" d="M12.8 9.7c0-1.1.9-2 2-2H63a2 2 0 0 1 2 2v30.1a2 2 0 0 1-2 2H14.8a2 2 0 0 1-2-2V9.7z"/>
  <path d="M12.8 9.7c0-1.1.9-2 2-2H63a2 2 0 0 1 2 2v30.1a2 2 0 0 1-2 2H14.8a2 2 0 0 1-2-2V9.7z" fill="none" stroke="#666" stroke-width=".24" stroke-linecap="round" stroke-linejoin="round" stroke-miterlimit="10"/>
  <path fill="#afafaf" d="M13.8 10.7c0-1.1.9-2 2-2h46.4a2 2 0 0 1 2 2v27.8a2 2 0 0 1-2 2H15.8a2 2 0 0 1-2-2V10.7z"/>
  <path d="M14.4 11.2c0-1.1.9-2 2-2h45.3a2 2 0 0 1 2 2v26.9a2 2 0 0 1-2 2H16.4a2 2 0 0 1-2-2V11.2z" fill="#67B7DC"/>
  <path d="M62.1 54.2c-.2-.1-.4-.3-.7-.5.2.1.5.3.7.5z" fill="#c9c9c9"/>
  <path fill="#afafaf" d="M62.1 54.2h.2c.6-.1 1.3-.2 2.2-.1 2 1.5 3.8 4.6 1.2 5.8-2 .9-3.5.8-4.7-.5-.6-.7-1.2-1.5-1.7-2.3.2-1.2.9-2.5 2.8-2.9z"/>
  <path fill="#afafaf" d="M59.3 57.1c-.9-1.4-1.4-2.9-.7-3.5.2-.2.5-.4.9-.6.6.1 1.3.3 1.9.7.3.2.5.4.7.5-1.9.4-2.6 1.7-2.8 2.9z"/>
  <path fill="#afafaf" d="M59.5 53c1.4-.6 3.3-.3 5 1l.1.1c-.9-.1-1.8 0-2.4.1-.1-.1-.8-.4-.7-.4-.7-.5-1.4-.8-2-.8z"/>
  <path fill="none" stroke="#717171" stroke-width=".11" stroke-linecap="round" d="M59.5 53c1.4-.6 3.3-.3 5 1l.1.1c2 1.5 3.8 4.6 1.2 5.8-2 .9-3.5.8-4.7-.5-.6-.7-1.2-1.5-1.7-2.3-.9-1.4-1.4-2.9-.7-3.5.2-.3.4-.5.8-.6z"/>
  <path fill="none" stroke="#717171" stroke-width=".11" stroke-linecap="round" d="M62.1 54.2c.1 0 .2 0 .3-.1.6-.1 1.3-.2 2.2-.1m-5.3 3.1c.3-1.1.9-2.5 2.8-2.9m-.7-.5c-.6-.3-1.3-.6-1.9-.7m2.6 1.2c-.2-.2-.4-.3-.7-.5"/>
  <path d="M61.6 53.5c.4.3.4.5.5.6-.1 0-.2 0-.3.1-.4-.4-1-.7-1-.7.2-.2.6-.1.8 0z" fill="#4d4d4d"/>
</svg>
