<svg xmlns="http://www.w3.org/2000/svg" width="70" height="70" viewBox="0 0 70 70">
  <path d="M17.45 15.19h35v53.7h-35z" fill="#515151"/>
  <path d="M22.95 15.19c7.9-1.3 16-1.3 24 0v53.7c-7.9 1.3-16 1.3-24 0v-53.7z" fill="#c6c6c6"/>
  <path d="M22.95 28.9h24v40c-7.9 1.3-16 1.3-24 0v-40z" fill="#515151"/>
  <path d="M22.95 19c8-.6 16-.6 24 0v8.1h-24V19z" opacity=".43" fill="#afafaf"/>
  <path d="M22.95 19c8-.6 16-.6 24 0v8.1h-24V19z" opacity=".43" fill="#4d4d4d"/>
  <path stroke-miterlimit="10" d="M23.95 20l3.4-.2v1.1l-3.4.1z" opacity=".43" fill="#565656" stroke="#4d4d4d" stroke-width=".01"/>
  <path d="M48.75 16.8h3.7v1.5h-3.7zm0 3.2h3.7v1.5h-3.7z" stroke-miterlimit="10" fill="#c8ff00" stroke="#717171" stroke-width=".19"/>
  <path d="M22.95 29.1v39.7c7.9 1.3 16 1.3 23.9 0V29.1h-23.9zm22.9 3.8h-2.2V30h2.2v2.9zm-12 23.8v-2.9h2.2v2.9h-2.2zm2.2 1.1v2.9h-2.2v-2.9h2.2zm0-15.8v2.9h-2.2V42h2.2zm-2.2-1.1V38h2.2v2.9h-2.2zm0 7.9v-2.9h2.2v2.9h-2.2zm2.2 1.1v2.9h-2.2v-2.9h2.2zm-3.3-5h-2.2V42h2.2v2.9zm0 1v2.9h-2.2v-2.9h2.2zm0 4v2.9c-.7 0-1.5 0-2.2-.1v-2.9c.7.1 1.5.1 2.2.1zm0 3.9v2.9c-.7 0-1.5 0-2.2-.1v-2.9c.7.1 1.5.1 2.2.1zm4.3 0c.7 0 1.5 0 2.2-.1v2.9c-.7 0-1.5.1-2.2.1v-2.9zm0-1v-2.9h2.2v2.9c-.7-.1-1.4 0-2.2 0zm0-4v-2.9h2.2v2.9h-2.2zm0-3.9V42h2.2v2.9c-.7-.1-1.4-.1-2.2 0zm0-4V38h2.2v2.9h-2.2zm0-3.9v-2.9h2.2V37h-2.2zm-1 0h-2.2v-2.9h2.2V37zm-3.3 0h-2.2v-2.9h2.2V37zm0 1v2.9h-2.2V38h2.2zm-3.3 2.9c-.7 0-1.5 0-2.2-.1V38h2.2v2.9zm0 1v2.9c-.7 0-1.5 0-2.2-.1v-2.9c.8.1 1.5.1 2.2.1zm0 4v2.9c-.7 0-1.5-.1-2.2-.1v-2.9c.8 0 1.5 0 2.2.1zm0 3.9v2.9c-.7 0-1.5-.1-2.2-.1v-2.9c.7 0 1.5.1 2.2.1zm0 3.9v2.9c-.7 0-1.5-.1-2.2-.1v-2.9c.7.1 1.5.1 2.2.1zm0 4v2.9c-.7 0-1.5-.1-2.2-.1v-2.8c.7-.1 1.5-.1 2.2 0zm1.1 0c.7 0 1.5.1 2.2.1v2.9c-.7 0-1.5 0-2.2-.1v-2.9zm2.2 4v2.9c-.7 0-1.5 0-2.2-.1v-2.9c.7.1 1.5.1 2.2.1zm1.1 0h2.2v2.9h-2.2v-2.9zm3.2 0c.7 0 1.5 0 2.2-.1v2.9c-.7 0-1.5.1-2.2.1v-2.9zm0-1v-2.9c.7 0 1.5 0 2.2-.1v2.9c-.7 0-1.4 0-2.2.1zm3.3-3c.7 0 1.5-.1 2.2-.1v2.8c-.7.1-1.5.1-2.2.2v-2.9zm0-1.1v-2.9c.7 0 1.5-.1 2.2-.1v2.9c-.7 0-1.4.1-2.2.1zm0-3.9v-2.9c.7 0 1.5-.1 2.2-.1v2.9c-.7 0-1.4 0-2.2.1zm0-4v-2.9c.7 0 1.5-.1 2.2-.1v2.9c-.7.1-1.5.1-2.2.1zm0-3.9v-2.9c.7 0 1.5 0 2.2-.1v2.9c-.7.1-1.5.1-2.2.1zm0-3.9V38h2.2v2.8c-.7 0-1.5 0-2.2.1zm0-4V34h2.2v2.9h-2.2zm0-3.9v-2.9h2.2V33h-2.2zm-1 0h-2.2v-2.9h2.2V33zm-3.3 0h-2.2v-2.9h2.2V33zm-3.3 0h-2.2v-2.9h2.2V33zm-3.3 0h-2.2v-2.9h2.2V33zm0 1.1V37h-2.2v-2.9h2.2zm-3.2 2.8c-.7 0-1.5 0-2.2-.1V34h2.2v2.9zm0 1v2.8c-.7 0-1.5-.1-2.2-.1v-2.8c.7.1 1.4.1 2.2.1zm0 3.9v2.8c-.7 0-1.5-.1-2.2-.1v-2.8c.7.1 1.4.1 2.2.1zm0 3.9v2.9c-.7 0-1.5-.1-2.2-.1v-2.8h2.2zm0 3.9v2.9c-.7-.1-1.5-.1-2.2-.2v-2.8c.7.1 1.4.1 2.2.1zm0 4v2.9c-.7-.1-1.5-.1-2.2-.2v-2.8c.7-.1 1.4 0 2.2.1zm0 3.9v2.8c-.7-.1-1.5-.1-2.2-.2v-2.8c.7 0 1.4.1 2.2.2zm0 3.8v2.9l-2.2-.3v-2.8c.7.1 1.4.2 2.2.2zm1 .1c.7.1 1.5.1 2.2.2v2.9c-.7 0-1.5-.1-2.2-.2v-2.9zm2.2 4.1v2.9c-.7-.1-1.5-.1-2.2-.2v-2.9c.7.1 1.5.2 2.2.2zm1.1.1c.7 0 1.5.1 2.2.1v2.9c-.7 0-1.5-.1-2.2-.1v-2.9zm3.3.1h2.2v2.9h-2.2v-2.9zm3.2 0c.7 0 1.5 0 2.2-.1v2.9c-.7 0-1.5.1-2.2.1v-2.9zm3.3-.2c.7 0 1.5-.1 2.2-.2v2.9c-.7.1-1.5.1-2.2.2v-2.9zm0-1v-2.9c.7 0 1.5-.1 2.2-.2v2.9c-.7.1-1.4.1-2.2.2zm3.3-3.2c.7-.1 1.5-.1 2.2-.2v2.8l-2.2.3v-2.9zm0-1v-2.8c.7-.1 1.5-.1 2.2-.2v2.8c-.7.1-1.5.1-2.2.2zm0-3.9v-2.8c.7-.1 1.5-.1 2.2-.2v2.8c-.7.1-1.5.1-2.2.2zm0-3.9v-2.9c.7 0 1.5-.1 2.2-.1v2.8c-.7.1-1.5.1-2.2.2zm0-3.9v-2.9c.7 0 1.5-.1 2.2-.1v2.8c-.7.1-1.5.1-2.2.2zm0-3.9v-2.8c.7 0 1.5-.1 2.2-.1v2.8c-.7 0-1.5 0-2.2.1zm0-3.9V38c.7 0 1.5 0 2.2-.1v2.8c-.7 0-1.5 0-2.2.1zm0-3.9V34h2.2v2.8c-.7 0-1.5.1-2.2.1zm-17.4-6.8V33h-2.2v-2.8c.7-.1 1.4-.1 2.2-.1zM23.95 65l2.2.3v2.9l-2.2-.3V65zm19.7 3.1v-2.9l2.2-.3v2.8c-.7.2-1.5.3-2.2.4z" fill="#c6c6c6"/>
</svg>
