<svg xmlns="http://www.w3.org/2000/svg" width="70" height="70" viewBox="0 0 70 70">
  <path fill="#afafaf" d="M54.65 59.48c.19.46-.06.84-.56.84H3.9c-.5 0-.6-.28-.23-.6l8.02-7.2c.37-.33 1.09-.6 1.59-.6h37.25c.5 0 1.07.37 1.27.83l2.86 6.73z"/>
  <path fill="none" stroke="#8D8D8D" stroke-width=".25" stroke-linecap="round" stroke-linejoin="round" stroke-miterlimit="10" d="M54.65 59.48c.19.46-.06.84-.56.84H3.9c-.5 0-.6-.28-.23-.6l8.02-7.2c.37-.33 1.09-.6 1.59-.6h37.25c.5 0 1.07.37 1.27.83l2.86 6.73z"/>
  <path fill="#717171" d="M35.43 58.13c0 .25-.2.46-.46.46H7.34c-.25 0-.3-.14-.12-.3l5.63-5.16c.19-.17.54-.31.8-.31h21.33c.25 0 .45.2.45.45v4.86zm8.62.03a.7.7 0 0 0 .6.43h7.47c.25 0 .38-.19.28-.42l-2.05-4.93a.75.75 0 0 0-.63-.42h-7.17c-.25 0-.38.19-.3.43l1.8 4.91zm-7.85-.03c0 .25.2.46.46.46h6.13c.25 0 .38-.2.3-.43l-.16-.4a.7.7 0 0 0-.62-.42l-1.04.02a.62.62 0 0 1-.58-.43l-.02-.09a.62.62 0 0 0-.57-.44h-1.3a.44.44 0 0 0-.44.46v.06a.43.43 0 0 1-.43.46l-1.26.02a.46.46 0 0 0-.46.46v.27zm0-3.56c0 .25.2.45.46.45h4.84c.25 0 .4-.2.32-.44l-.4-1.33a.65.65 0 0 0-.58-.44h-4.18c-.25 0-.46.2-.46.46v1.3z"/>
  <path fill="#6e6e6e" d="M50.36 48.08c0 .96-6.76 1.4-12.37 1.4-3.9 0-10.92-.35-11.37-1.27v1.66c0 .73 4.8 1.24 11.36 1.24 6.55 0 12.38-.64 12.38-1.36v-1.67z"/>
  <path fill="gray" d="M38.49 46.87c6.56 0 11.87.58 11.87 1.3 0 .73-5.31 1.43-11.87 1.43-6.7 0-11.87-.7-11.87-1.42s5.32-1.31 11.87-1.31z"/>
  <path fill="#6e6e6e" d="M41.05 48.46s-1.48.1-2.5.1-2.5-.1-2.5-.1v-9.77h5v9.77z"/>
  <path fill="#6e6e6e" d="M12.76 9.68c0-1.1.9-2 2-2h48.25a2 2 0 0 1 2 2v30.08a2 2 0 0 1-2 2H14.76a2 2 0 0 1-2-2V9.68z"/>
  <path fill="#afafaf" d="M13.79 10.7c0-1.1.9-2 2-2h46.43a2 2 0 0 1 2 2v27.81a2 2 0 0 1-2 2H15.79a2 2 0 0 1-2-2v-27.8z"/>
  <path fill="#61ace0" d="M14.35 11.16c0-1.1.9-2 2-2h45.3a2 2 0 0 1 2 2v26.9a2 2 0 0 1-2 2h-45.3a2 2 0 0 1-2-2v-26.9z"/>
  <path fill="#C9C9C9" d="M62.09 54.16a2.66 2.66 0 0 1-.71-.48c.27.15.5.32.7.48z"/>
  <path fill="#afafaf" d="M62.08 54.16h.01c.09.03.16.03.22-.02.02 0 .03-.02.04-.04.6-.12 1.33-.15 2.2-.08 2.03 1.54 3.76 4.62 1.17 5.8-2.04.93-3.54.78-4.72-.49a15.13 15.13 0 0 1-1.73-2.26c.27-1.14.9-2.45 2.81-2.91z"/>
  <path fill="#afafaf" d="M59.27 57.07c-.9-1.44-1.35-2.87-.66-3.54.24-.23.54-.42.86-.56.6.06 1.3.35 1.9.7.28.23.53.43.7.48-1.9.47-2.53 1.78-2.8 2.92z"/>
  <path fill="#afafaf" d="M59.47 52.98c1.35-.57 3.29-.27 4.96.95l.11.09a10 10 0 0 0-2.42.08c-.11-.1-.77-.45-.75-.43a4.9 4.9 0 0 0-1.9-.7z"/>
  <path fill="none" stroke="#717171" stroke-width=".11" stroke-linecap="round" stroke-miterlimit="10" d="M59.47 52.98c1.35-.57 3.29-.27 4.96.95l.11.09c2.03 1.54 3.77 4.62 1.18 5.8-2.04.93-3.54.78-4.72-.49a15.27 15.27 0 0 1-1.73-2.26c-.89-1.44-1.35-2.87-.66-3.53.24-.24.54-.43.86-.56z"/>
  <path fill="none" stroke="#717171" stroke-width=".11" stroke-linecap="round" stroke-miterlimit="10" d="M62.09 54.16l.26-.06c.6-.12 1.33-.15 2.2-.09m-5.28 3.07v-.01c.27-1.14.9-2.44 2.82-2.91m-.72-.49a4.9 4.9 0 0 0-1.9-.7m2.62 1.19a5.6 5.6 0 0 0-.71-.48"/>
  <path fill="#4D4D4D" d="M61.57 53.5c.35.26.44.48.55.6l-.26.06c-.36-.4-1-.67-.96-.73.1-.14.47-.08.67.07z"/>
</svg>