<svg id="Ebene_1" xmlns="http://www.w3.org/2000/svg" viewBox="0 0 300 300"><style>.st0{stroke:#000;stroke-miterlimit:10}</style><path class="st0" d="M217 107.1c-12.6 4.2-54.3 20.9-71.3 27.6-2.8 1.1-4.9 2-6.2 2.4-.7.3-1.1.5-1.1.5s-2.9 3.9-7.2 8.6c-.8 1-1.8 2-2.8 3.1-3.9 4.2-8.6 8.6-12.6 10.8l-8 2.8c-1.6-.5-3.4-1-5.4-1.1-6.2-.8-13.2-.2-20.2 2.4-9 3.3-16.2 8.8-20.4 15.2-4.1 6-5.5 12.7-3.3 18.9 4.7 12 22.6 17.1 40.2 10.9 17.6-6.4 28.2-21.5 23.8-33.9-.7-1.8-1.6-3.4-2.8-5.1l15-9.1 34.3-14.7 71.8-31s-8-13.7-23.8-8.3zM96 199.9c-12.1 4.7-24.5 2.4-27.6-5.4-3.1-7.8 4.4-17.9 16.6-22.7s24.5-2.3 27.6 5.4c3.1 7.8-4.4 17.9-16.6 22.7zm47.8-48.8c-2.3 0-4.1-1.8-4.1-4.1s1.8-4.1 4.1-4.1 4.1 1.8 4.1 4.1-1.8 4.1-4.1 4.1z"/><path class="st0" d="M119.6 129.8c1.1-1.5 2.1-3.1 2.8-5.1 4.4-12.6-6.2-27.7-23.8-33.9s-35.6-1.3-40 11.3c-2.1 6-.8 12.9 3.3 18.9 4.2 6.4 11.4 11.9 20.4 15.2 7 2.4 14 3.3 20.2 2.4 2-.2 3.6-.7 5.4-1.1l8.1 2.5c2.8 1.5 6 4.2 9.1 7.3 3.6-3.6 7.3-8.6 9.5-11.6l-15-5.9zm-7-7.1c-3.1 7.6-15.3 10.1-27.6 5.4-12.2-4.7-19.6-14.8-16.6-22.7 3.1-7.8 15.3-10.1 27.6-5.4 12.2 4.7 19.6 14.8 16.6 22.7zm105.9 67c-13.2-4.6-54.8-20.9-71.3-27.6-1.6-.7-1.6-.8-2.6-1.1l23.5-10 74.4 29.5c0-.1-8 14.6-24 9.2z"/></svg>