<svg xmlns="http://www.w3.org/2000/svg" height="40" width="40" viewBox="0 0 40 40.000001"><g display="block"><path d="M36.246 22.561l-2.279 6.263M2.828 16.504v6.993M36.246 17.44l-2.279-6.262M4.977 28.618l3.49 4.158M4.977 11.383l3.49-4.158M19.984 3.012l-6.809 1.2M13.175 35.789l6.809 1.2M30.475 7.139l-5.37-3.1M25.105 35.961l5.37-3.1" stroke="#FFF" stroke-miterlimit="10" fill="none" stroke-width=".1707"/><path d="M8.054 32.776h5.121v5.121h-5.12zM30.475 6.057h5.12v5.12h-5.12zM.268 23.497h5.12v5.12H.269zM.268 11.383h5.12v5.121H.269zM34.618 17.44h5.12v5.121h-5.12zM30.475 28.823h5.12v5.12h-5.12zM19.984 34.88h5.12V40h-5.12zM8.054 2.104h5.121v5.12h-5.12zM19.984 0h5.12v5.121h-5.12z" stroke="#FFF" fill="#FFF"/></g></svg>
