<svg xmlns="http://www.w3.org/2000/svg" width="70px" height="70px" viewBox="0 0 50 50">
  <path fill="#c5c5c5" d="M37 42.9c0 1.1-.9 2.1-2.1 2.1H16.1c-1.1 0-2.1-.9-2.1-2.1V9.1c0-1.2.9-2.1 2.1-2.1h18.8c1.2 0 2.1.9 2.1 2.1v33.8z"/>
  <path d="M36 39.2c0 1-.8 1.8-1.8 1.8H16.8c-1 0-1.8-.8-1.8-1.8V10.8c0-1 .8-1.8 1.8-1.8h17.4c1 0 1.8.8 1.8 1.8v28.4z" fill="#6e6e6e"/>
  <path fill="#5dace2" d="M16 12h19v22H16z"/>
  <ellipse fill="#c5c5c5" cx="25.6" cy="37.4" rx="1.5" ry="1.1"/>
  <ellipse fill="#c5c5c5" cx="29.3" cy="37.4" rx="1" ry=".8"/>
  <ellipse fill="#c5c5c5" cx="33.1" cy="37.4" rx="1" ry=".8"/>
  <ellipse fill="#c5c5c5" cx="18.1" cy="37.4" rx="1" ry=".8"/>
  <ellipse fill="#c5c5c5" cx="21.8" cy="37.4" rx="1" ry=".8"/>
  <linearGradient id="a" gradientUnits="userSpaceOnUse" x1="25.08" y1="40.63" x2="25.08" y2="42.53" gradientTransform="matrix(1 0 0 -1 0 52)">
    <stop offset="0" stop-color="#b8b8b8"/>
    <stop offset="1" stop-color="#a2a2a2"/>
  </linearGradient>
  <ellipse cx="25.1" cy="10.4" rx="1.1" ry="1" fill="url(#a)"/>
  <ellipse fill="#5dace2" cx="25.1" cy="10.4" rx=".6" ry=".5"/>
</svg>