<?xml version="1.0" encoding="utf-8"?>
<!-- ////////////////////////////////////////////////////////////////////////
     // @license
     // This demo file is part of yFiles for HTML 2.1.
     // Copyright (c) 2000-2019 by yWorks GmbH, Vor dem Kreuzberg 28,
     // 72070 Tuebingen, Germany. All rights reserved.
     //
     // yFiles demo files exhibit yFiles for HTML functionalities. Any redistribution
     // of demo files in source code or binary form, with or without
     // modification, is not permitted.
     //
     // Owners of a valid software license for a yFiles for HTML version that this
     // demo is shipped with are allowed to use the demo source code as basis
     // for their own yFiles for HTML powered applications. Use of such programs is
     // governed by the rights and conditions as set out in the yFiles for HTML
     // license agreement.
     //
     // THIS SOFTWARE IS PROVIDED ''AS IS'' AND ANY EXPRESS OR IMPLIED
     // WARRANTIES, INCLUDING, BUT NOT LIMITED TO, THE IMPLIED WARRANTIES OF
     // MERCHANTABILITY AND FITNESS FOR A PARTICULAR PURPOSE ARE DISCLAIMED. IN
     // NO EVENT SHALL yWorks BE LIABLE FOR ANY DIRECT, INDIRECT, INCIDENTAL,
     // SPECIAL, EXEMPLARY, OR CONSEQUENTIAL DAMAGES (INCLUDING, BUT NOT LIMITED
     // TO, PROCUREMENT OF SUBSTITUTE GOODS OR SERVICES; LOSS OF USE, DATA, OR
     // PROFITS; OR BUSINESS INTERRUPTION) HOWEVER CAUSED AND ON ANY THEORY OF
     // LIABILITY, WHETHER IN CONTRACT, STRICT LIABILITY, OR TORT (INCLUDING
     // NEGLIGENCE OR OTHERWISE) ARISING IN ANY WAY OUT OF THE USE OF THIS
     // SOFTWARE, EVEN IF ADVISED OF THE POSSIBILITY OF SUCH DAMAGE.
     // 
     ////////////////////////////////////////////////////////////////////////-->

<svg id="laptop" xmlns="http://www.w3.org/2000/svg" width="70px" height="70px" viewBox="0 0 70 70">
  <path d="M11.8 9.5c0-1 .8-1.8 1.8-1.8h43.3c1 0 1.8.8 1.8 1.8v27c0 1-.8 1.8-1.8 1.8H13.6c-1 0-1.8-.8-1.8-1.8v-27z" fill="#afafaf"/>
  <path fill="#6e6e6e" d="M12.7 10.4c0-1 .8-1.8 1.8-1.8h41.6c1 0 1.8.8 1.8 1.8v24.9c0 1-.8 1.8-1.8 1.8H14.5c-1 0-1.8-.8-1.8-1.8V10.4z"/>
  <path d="M13.3 10.8c0-1 .8-1.8 1.8-1.8h40.6c1 0 1.8.8 1.8 1.8v24.1c0 1-.8 1.8-1.8 1.8H15c-1 0-1.8-.8-1.8-1.8V10.8z" fill="#5dace2"/>
  <path d="M59.9 39.8c-.7-.9-2.2-1.6-3.3-1.6h-43c-1.1 0-2.6.7-3.2 1.6l-7.5 9.7c-1.2 1.6-1.2 1.8-1.2 2.6v.1c.1.4.3 1 1.2 1h64.8c.8 0 1.5-.3 1.5-1v-.1c0-.8 0-.8-1.3-2.6l-8-9.7z" fill="#c6c6c6"/>
  <path fill="#6e6e6e" d="M61.3 44.8c.3.4.2.8-.4.8H9.8c-.6 0-.7-.4-.4-.8l2.8-4c.3-.5 1-.8 1.6-.8h42.7c.6 0 1.3.4 1.6.8l3.2 4zM42 49.5c.1.2-.1.4-.3.4H28.3c-.2 0-.4-.2-.3-.4l.8-2.8c.1-.2.3-.4.5-.4h11.2c.2 0 .5.2.5.4l1 2.8z"/>
</svg>
