<?xml version="1.0" encoding="utf-8"?>
<!-- ////////////////////////////////////////////////////////////////////////
     // @license
     // This demo file is part of yFiles for HTML 2.5.
     // Copyright (c) 2000-2023 by yWorks GmbH, Vor dem Kreuzberg 28,
     // 72070 Tuebingen, Germany. All rights reserved.
     //
     // yFiles demo files exhibit yFiles for HTML functionalities. Any redistribution
     // of demo files in source code or binary form, with or without
     // modification, is not permitted.
     //
     // Owners of a valid software license for a yFiles for HTML version that this
     // demo is shipped with are allowed to use the demo source code as basis
     // for their own yFiles for HTML powered applications. Use of such programs is
     // governed by the rights and conditions as set out in the yFiles for HTML
     // license agreement.
     //
     // THIS SOFTWARE IS PROVIDED ''AS IS'' AND ANY EXPRESS OR IMPLIED
     // WARRANTIES, INCLUDING, BUT NOT LIMITED TO, THE IMPLIED WARRANTIES OF
     // MERCHANTABILITY AND FITNESS FOR A PARTICULAR PURPOSE ARE DISCLAIMED. IN
     // NO EVENT SHALL yWorks BE LIABLE FOR ANY DIRECT, INDIRECT, INCIDENTAL,
     // SPECIAL, EXEMPLARY, OR CONSEQUENTIAL DAMAGES (INCLUDING, BUT NOT LIMITED
     // TO, PROCUREMENT OF SUBSTITUTE GOODS OR SERVICES; LOSS OF USE, DATA, OR
     // PROFITS; OR BUSINESS INTERRUPTION) HOWEVER CAUSED AND ON ANY THEORY OF
     // LIABILITY, WHETHER IN CONTRACT, STRICT LIABILITY, OR TORT (INCLUDING
     // NEGLIGENCE OR OTHERWISE) ARISING IN ANY WAY OUT OF THE USE OF THIS
     // SOFTWARE, EVEN IF ADVISED OF THE POSSIBILITY OF SUCH DAMAGE.
     // 
     ////////////////////////////////////////////////////////////////////////-->

<svg xmlns="http://www.w3.org/2000/svg" width="70px" height="70px" viewBox="0 0 50 50">
  <path fill="#c5c5c5" d="M37 42.9c0 1.1-.9 2.1-2.1 2.1H16.1c-1.1 0-2.1-.9-2.1-2.1V9.1c0-1.2.9-2.1 2.1-2.1h18.8c1.2 0 2.1.9 2.1 2.1v33.8z"/>
  <path d="M36 39.2c0 1-.8 1.8-1.8 1.8H16.8c-1 0-1.8-.8-1.8-1.8V10.8c0-1 .8-1.8 1.8-1.8h17.4c1 0 1.8.8 1.8 1.8v28.4z" fill="#6e6e6e"/>
  <path fill="#5dace2" d="M16 12h19v22H16z"/>
  <ellipse fill="#c5c5c5" cx="25.6" cy="37.4" rx="1.5" ry="1.1"/>
  <ellipse fill="#c5c5c5" cx="29.3" cy="37.4" rx="1" ry=".8"/>
  <ellipse fill="#c5c5c5" cx="33.1" cy="37.4" rx="1" ry=".8"/>
  <ellipse fill="#c5c5c5" cx="18.1" cy="37.4" rx="1" ry=".8"/>
  <ellipse fill="#c5c5c5" cx="21.8" cy="37.4" rx="1" ry=".8"/>
  <linearGradient id="a" gradientUnits="userSpaceOnUse" x1="25.08" y1="40.63" x2="25.08" y2="42.53" gradientTransform="matrix(1 0 0 -1 0 52)">
    <stop offset="0" stop-color="#b8b8b8"/>
    <stop offset="1" stop-color="#a2a2a2"/>
  </linearGradient>
  <ellipse cx="25.1" cy="10.4" rx="1.1" ry="1" fill="url(#a)"/>
  <ellipse fill="#5dace2" cx="25.1" cy="10.4" rx=".6" ry=".5"/>
</svg>
