<?xml version="1.0" encoding="utf-8"?>
<!-- ////////////////////////////////////////////////////////////////////////
     // @license
     // This demo file is part of yFiles for HTML 2.2.
     // Copyright (c) 2000-2019 by yWorks GmbH, Vor dem Kreuzberg 28,
     // 72070 Tuebingen, Germany. All rights reserved.
     //
     // yFiles demo files exhibit yFiles for HTML functionalities. Any redistribution
     // of demo files in source code or binary form, with or without
     // modification, is not permitted.
     //
     // Owners of a valid software license for a yFiles for HTML version that this
     // demo is shipped with are allowed to use the demo source code as basis
     // for their own yFiles for HTML powered applications. Use of such programs is
     // governed by the rights and conditions as set out in the yFiles for HTML
     // license agreement.
     //
     // THIS SOFTWARE IS PROVIDED ''AS IS'' AND ANY EXPRESS OR IMPLIED
     // WARRANTIES, INCLUDING, BUT NOT LIMITED TO, THE IMPLIED WARRANTIES OF
     // MERCHANTABILITY AND FITNESS FOR A PARTICULAR PURPOSE ARE DISCLAIMED. IN
     // NO EVENT SHALL yWorks BE LIABLE FOR ANY DIRECT, INDIRECT, INCIDENTAL,
     // SPECIAL, EXEMPLARY, OR CONSEQUENTIAL DAMAGES (INCLUDING, BUT NOT LIMITED
     // TO, PROCUREMENT OF SUBSTITUTE GOODS OR SERVICES; LOSS OF USE, DATA, OR
     // PROFITS; OR BUSINESS INTERRUPTION) HOWEVER CAUSED AND ON ANY THEORY OF
     // LIABILITY, WHETHER IN CONTRACT, STRICT LIABILITY, OR TORT (INCLUDING
     // NEGLIGENCE OR OTHERWISE) ARISING IN ANY WAY OUT OF THE USE OF THIS
     // SOFTWARE, EVEN IF ADVISED OF THE POSSIBILITY OF SUCH DAMAGE.
     // 
     ////////////////////////////////////////////////////////////////////////-->

<svg xmlns="http://www.w3.org/2000/svg" height="70" width="70" viewBox="0 0 70 70">
  <path d="M68.06 31.33l-.1-.1-11.1-7.9c-1.2-.9-3.3-1.7-4.7-1.9 0 0-5.1-.5-16.9-.5-9.6 0-17.3.6-17.3.6-1.4.1-3.5.9-4.7 1.8l-10.8 7.7c-1.1.5-2 2-2 3.7v9c0 2 1.1 3.7 2.5 3.9 0 0 12.7 1.5 32 1.5 19.9 0 32-1.5 32-1.5 1.4-.2 2.5-1.9 2.5-3.9v-9c0-1.4-.6-2.7-1.4-3.4zm-32.6-1.9h-.3.3zm-1.7 0h-.1.1z" fill="#6e6e6e"/>
  <path stroke-miterlimit="10" d="M63.26 34.43c-.6-.3-18.2-.3-28.3-.3-8.2 0-27.8.1-27.8.1-1 .4-1.7 1.7-1.7 3.2v5.6c0 1.7 1 3.2 2.1 3.3 0 0 10.8.7 27.4.7 17 0 27.4-.7 27.4-.7 1.2-.1 2.1-1.6 2.1-3.3v-5.6c0-1.3-.6-2.7-1.2-3z" fill="#5dace2" stroke="#afafaf" stroke-width=".5"/>
  <g stroke-miterlimit="10">
    <path d="M66.86 36.53h2.8v1.6h-2.8z" fill="#c8ff00" stroke="#717171" stroke-width=".06"/>
    <path d="M49.76 36.43h-6.8v7.1h2v1h2.8l-.1-1h2.1zm-11.5 0h-6.8v7.1h2v1h2.8l-.1-1h2.1zm-11.5 0h-6.8v7.1h2v1h2.7v-1h2.1zm-11.5 0h-6.8v7.1h2v1h2.7v-1h2.1zm46 0h-6.8v7.1h2v1h2.8l-.1-1h2.1z" fill="#4d4d4d" stroke="#d9f1ff" stroke-width=".37"/>
  </g>
</svg>
