<?xml version="1.0" encoding="UTF-8" standalone="no"?>

<svg xmlns="http://www.w3.org/2000/svg" width="255" height="156" viewBox="0 0 280 156" id="svg2">
  <rect width="278" height="128" rx="3.2478337" ry="3.9235017" x="1" y="1"
        transform="matrix(0.99844311,0,0,1.3114163,0.2179646,-7.2420595)"
        style="fill:#ffffff;stroke:#808080;stroke-width:3"/>
  <g transform="translate(1.7199538,-6.6703997)">
    <text x="68" y="64" transform="matrix(0.96385542,0,0,0.97784589,22.442699,49.745696)"
          style="font-size:14px;font-family:sans-serif">Source and Target Grouped
    </text>
    <g transform="translate(-3.9999993e-8,33.726876)">
      <path d="m 12,120 48,0" transform="matrix(0.66722946,0,0,0.97784589,18.901283,-36.138169)"
            style="fill:none;stroke:#ffa500;stroke-width:3;stroke-opacity:1"/>
      <path d="m 29.33894,147.31813 a 3.2598825,3.2598825 0 1 1 -6.519765,0 3.2598825,3.2598825 0 1 1 6.519765,0 z"
            transform="translate(-0.8387936,-66.244817)"
            style="fill:#ffa500;fill-opacity:1;fill-rule:nonzero;stroke:none"/>
      <path d="m 29.33894,147.31813 a 3.2598825,3.2598825 0 1 1 -6.519765,0 3.2598825,3.2598825 0 1 1 6.519765,0 z"
            transform="translate(40.661204,-66.244817)"
            style="fill:#ffa500;fill-opacity:1;fill-rule:nonzero;stroke:none"/>
      <path d="m 40.341041,145.2807 -7.029121,4.05827 0,-8.11653 z" transform="translate(22.943518,-64.43194)"
            style="fill:#ffa500;fill-opacity:1;fill-rule:nonzero;stroke:none"/>
    </g>
    <g transform="translate(-3.9999993e-8,29.33472)">
      <path d="m 12,60 48,0" transform="matrix(0.63106883,0,0,0.97784589,19.059552,13.822742)"
            style="fill:none;stroke:#6495ed;stroke-width:3;stroke-opacity:1"/>
      <path d="m 29.33894,147.31813 a 3.2598825,3.2598825 0 1 1 -6.519765,0 3.2598825,3.2598825 0 1 1 6.519765,0 z"
            transform="translate(40.661204,-74.783903)"
            style="fill:#6495ed;fill-opacity:1;fill-rule:nonzero;stroke:none"/>
      <path d="m 29.33894,147.31813 a 3.2598825,3.2598825 0 1 1 -6.519765,0 3.2598825,3.2598825 0 1 1 6.519765,0 z"
            transform="translate(-0.8387936,-74.783903)"
            style="fill:#6495ed;fill-opacity:1;fill-rule:nonzero;stroke:none"/>
      <path d="m 40.341041,145.2807 -7.029121,4.05827 0,-8.11653 z" transform="translate(22.944055,-72.583313)"
            style="fill:#6495ed;fill-opacity:1;fill-rule:nonzero;stroke:none"/>
    </g>
    <text x="68" y="44" transform="matrix(0.96385542,0,0,0.97784589,22.442699,29.980993)"
          style="font-size:14px;font-family:sans-serif">Target Grouped
    </text>
    <g transform="translate(-3.9999993e-8,20.550408)">
      <path d="m 12,40 48,0" transform="matrix(0.73224663,0,0,0.97784589,13.891688,2.8423497)"
            style="fill:none;stroke:#483d8b;stroke-width:3;stroke-opacity:1"/>
      <path d="m 29.33894,147.31813 a 3.2598825,3.2598825 0 1 1 -6.519765,0 3.2598825,3.2598825 0 1 1 6.519765,0 z"
            transform="translate(40.661204,-105.26429)"
            style="fill:#483d8b;fill-opacity:1;fill-rule:nonzero;stroke:none"/>
      <path d="m 40.341041,145.2807 -7.029121,4.05827 0,-8.11653 z" transform="translate(23.255872,-103.2811)"
            style="fill:#483d8b;fill-opacity:1;fill-rule:nonzero;stroke:none"/>
    </g>
    <g transform="translate(-3.9999993e-8,24.942564)">
      <g transform="translate(10.480381,-64.318546)">
        <path d="m 12,100 48,0" transform="matrix(0.75620616,0,0,0.97784589,3.1599926,16.866064)"
              style="fill:#d2691e;fill-opacity:1;stroke:#d2691e;stroke-width:3;stroke-opacity:1"/>
        <path d="m 29.33894,147.31813 a 3.2598825,3.2598825 0 1 1 -6.519765,0 3.2598825,3.2598825 0 1 1 6.519765,0 z"
              transform="translate(30.180825,-32.740585)"
              style="fill:#d2691e;fill-opacity:1;fill-rule:nonzero;stroke:none"/>
        <path d="m 40.341041,145.2807 -7.029121,4.05827 0,-8.11653 z" transform="translate(12.814465,-30.779434)"
              style="fill:#d2691e;fill-opacity:1;fill-rule:nonzero;stroke:none"/>
      </g>
    </g>
    <text x="68" y="24" transform="matrix(0.96385542,0,0,0.97784589,22.442699,10.216288)"
          style="font-size:14px;font-family:sans-serif">Source Grouped
    </text>
    <g transform="translate(-3.9999993e-8,16.15825)">
      <path d="m 12,80 48,0" transform="matrix(0.73025876,0,0,0.97784589,18.361435,-58.537562)"
            style="fill:none;stroke:#dc143c;stroke-width:3;stroke-opacity:1"/>
      <path d="m 29.33894,147.31813 a 3.2598825,3.2598825 0 1 1 -6.519765,0 3.2598825,3.2598825 0 1 1 6.519765,0 z"
            transform="translate(-0.8387936,-127.64424)"
            style="fill:#dc143c;fill-opacity:1;fill-rule:nonzero;stroke:none"/>
      <path d="m 40.341041,145.2807 -7.029121,4.05827 0,-8.11653 z" transform="translate(28.447988,-125.57736)"
            style="fill:#dc143c;fill-opacity:1;fill-rule:nonzero;stroke:none"/>
    </g>
    <g transform="translate(-3.9999993e-8,11.766094)">
      <path d="m 12,20 48,0" transform="matrix(0.73235341,0,0,0.97784589,18.512697,-8.1380413)"
            style="fill:#fa8072;fill-opacity:1;stroke:#4169e1;stroke-width:3;stroke-opacity:1"/>
      <path d="m 29.33894,147.31813 a 3.2598825,3.2598825 0 1 1 -6.519765,0 3.2598825,3.2598825 0 1 1 6.519765,0 z"
            transform="translate(-0.8387936,-135.74469)"
            style="fill:#4169e1;fill-opacity:1;fill-rule:nonzero;stroke:none"/>
      <path d="m 40.341041,145.2807 -7.029121,4.05827 0,-8.11653 z" transform="translate(28.448369,-133.78605)"
            style="fill:#4169e1;fill-opacity:1;fill-rule:nonzero;stroke:none"/>
    </g>
    <text x="68" y="84" transform="matrix(0.96385542,0,0,0.97784589,22.442699,65.118244)"
          style="font-size:14px;font-family:sans-serif">Ungrouped
    </text>
    <g transform="translate(-3.9999993e-8,40.31511)">
      <path d="m 12,120 48,0" transform="matrix(0.828396,0,0,0.97784589,13.543667,-13.731388)"
            style="fill:#bbbbbb;fill-opacity:1;stroke:#bbbbbb;stroke-width:3.00000644;stroke-linecap:square;stroke-miterlimit:4;stroke-opacity:1;stroke-dasharray:none"/>
      <path d="m 40.341041,145.2807 -7.029121,4.05827 0,-8.11653 z" transform="translate(29.403641,-41.805745)"
            style="fill:#bbbbbb;fill-opacity:1;fill-rule:nonzero;stroke:#bbbbbb;stroke-opacity:1"/>
    </g>
  </g>
</svg>
