<?xml version="1.0" encoding="utf-8"?>
<!-- ////////////////////////////////////////////////////////////////////////
     // @license
     // This demo file is part of yFiles for HTML 2.4.
     // Copyright (c) 2000-2022 by yWorks GmbH, Vor dem Kreuzberg 28,
     // 72070 Tuebingen, Germany. All rights reserved.
     //
     // yFiles demo files exhibit yFiles for HTML functionalities. Any redistribution
     // of demo files in source code or binary form, with or without
     // modification, is not permitted.
     //
     // Owners of a valid software license for a yFiles for HTML version that this
     // demo is shipped with are allowed to use the demo source code as basis
     // for their own yFiles for HTML powered applications. Use of such programs is
     // governed by the rights and conditions as set out in the yFiles for HTML
     // license agreement.
     //
     // THIS SOFTWARE IS PROVIDED ''AS IS'' AND ANY EXPRESS OR IMPLIED
     // WARRANTIES, INCLUDING, BUT NOT LIMITED TO, THE IMPLIED WARRANTIES OF
     // MERCHANTABILITY AND FITNESS FOR A PARTICULAR PURPOSE ARE DISCLAIMED. IN
     // NO EVENT SHALL yWorks BE LIABLE FOR ANY DIRECT, INDIRECT, INCIDENTAL,
     // SPECIAL, EXEMPLARY, OR CONSEQUENTIAL DAMAGES (INCLUDING, BUT NOT LIMITED
     // TO, PROCUREMENT OF SUBSTITUTE GOODS OR SERVICES; LOSS OF USE, DATA, OR
     // PROFITS; OR BUSINESS INTERRUPTION) HOWEVER CAUSED AND ON ANY THEORY OF
     // LIABILITY, WHETHER IN CONTRACT, STRICT LIABILITY, OR TORT (INCLUDING
     // NEGLIGENCE OR OTHERWISE) ARISING IN ANY WAY OUT OF THE USE OF THIS
     // SOFTWARE, EVEN IF ADVISED OF THE POSSIBILITY OF SUCH DAMAGE.
     // 
     ////////////////////////////////////////////////////////////////////////-->

<svg id="printer" xmlns="http://www.w3.org/2000/svg" viewBox="0 0 57 47">
  <path fill="#afafaf" d="M48.4 21.1c.2 1.3-.8 2.4-2.2 2.4H10.7c-1.4 0-2.3-1.1-2.2-2.4L10 9.7a2.9 2.9 0 0 1 2.8-2.4h31.5c1.4 0 2.6 1.1 2.8 2.4l1.3 11.4z"/>
  <path d="M42.1 1.6c-.5-1.3-28 .4-28.9-1s0 21 0 21h29.9s-.6-18.7-1-20z" fill="#efefef"/>
  <path fill="#afafaf" d="M51.8 40.7c-.1-.1-.3-.2-.5-.2H4.6c-.2 0-.4.1-.5.2l-2.5 2.7c-.1.1-.1.3 0 .5l1.7 2.8c.1.2.3.3.5.3h48.7c.2 0 .4-.1.5-.3l1.7-2.8c.1-.1.1-.4-.1-.5l-2.8-2.7z"/>
  <path d="M56.6 39c0 1.4-1.1 2.5-2.5 2.5H2.9C1.5 41.5.4 40.4.4 39V23.7c0-1.4 1.1-2.5 2.5-2.5h51.2c1.4 0 2.5 1.1 2.5 2.5V39z" fill="#6e6e6e"/>
  <path d="M51.8 38c0 1.4-1 2.5-2.2 2.5H7.5c-1.2 0-2.2-1.1-2.2-2.5V23.7h46.5V38z" fill="#67B7DC"/>
  <path d="M54.3 24h2.3v.9h-2.3zm0 2h2.3v.9h-2.3z" fill="#c8ff00" stroke="#717171" stroke-width=".12" stroke-miterlimit="10"/>
  <path d="M5.2 23.7v-2.4m46.6 2.4v-2.4" fill="none" stroke="#afafaf" stroke-width=".2" stroke-miterlimit="10"/>
  <path fill="none" stroke="#afafaf" stroke-width=".19" stroke-miterlimit="10" d="M51.8 23.7H5.2"/>
</svg>
