<?xml version="1.0" encoding="utf-8"?>
<!-- ////////////////////////////////////////////////////////////////////////
     // @license
     // This demo file is part of yFiles for HTML 2.4.
     // Copyright (c) 2000-2022 by yWorks GmbH, Vor dem Kreuzberg 28,
     // 72070 Tuebingen, Germany. All rights reserved.
     //
     // yFiles demo files exhibit yFiles for HTML functionalities. Any redistribution
     // of demo files in source code or binary form, with or without
     // modification, is not permitted.
     //
     // Owners of a valid software license for a yFiles for HTML version that this
     // demo is shipped with are allowed to use the demo source code as basis
     // for their own yFiles for HTML powered applications. Use of such programs is
     // governed by the rights and conditions as set out in the yFiles for HTML
     // license agreement.
     //
     // THIS SOFTWARE IS PROVIDED ''AS IS'' AND ANY EXPRESS OR IMPLIED
     // WARRANTIES, INCLUDING, BUT NOT LIMITED TO, THE IMPLIED WARRANTIES OF
     // MERCHANTABILITY AND FITNESS FOR A PARTICULAR PURPOSE ARE DISCLAIMED. IN
     // NO EVENT SHALL yWorks BE LIABLE FOR ANY DIRECT, INDIRECT, INCIDENTAL,
     // SPECIAL, EXEMPLARY, OR CONSEQUENTIAL DAMAGES (INCLUDING, BUT NOT LIMITED
     // TO, PROCUREMENT OF SUBSTITUTE GOODS OR SERVICES; LOSS OF USE, DATA, OR
     // PROFITS; OR BUSINESS INTERRUPTION) HOWEVER CAUSED AND ON ANY THEORY OF
     // LIABILITY, WHETHER IN CONTRACT, STRICT LIABILITY, OR TORT (INCLUDING
     // NEGLIGENCE OR OTHERWISE) ARISING IN ANY WAY OUT OF THE USE OF THIS
     // SOFTWARE, EVEN IF ADVISED OF THE POSSIBILITY OF SUCH DAMAGE.
     // 
     ////////////////////////////////////////////////////////////////////////-->

<svg id="scanner" xmlns="http://www.w3.org/2000/svg" viewBox="0 0 70 40">
  <path d="M5.6 5.2l10.9 10H35c9.6 0 16.5.2 18.2 0l10.7-9.8C67.7 2.1 67 1 60.5 1H9.1C2.4 1 2.4 2 5.6 5.2z" fill="#afafaf"/>
  <path d="M67.9 27.2L56.4 16.4c-.8-.8-3.3-1.2-4.7-1.3 0 0-5.1-.4-16.9-.4-9.6 0-17.3.4-17.3.4-1.4.1-3.8.5-4.7 1.2L2 26.7c-1.3 1.1-2 1.7-2 2.5v6.4c0 1.4 1.1 2.6 2.5 2.7 0 0 12.7 1 32 1 19.9 0 32-1 32-1 1.4-.1 2.5-1.3 2.5-2.7v-6.8c0-1.1-1.1-1.6-1.1-1.6zm-34.6-1.6h-.1.1z" fill="#c6c6c6"/>
  <path d="M34.3 33.6c6.9 0 12.6-2.2 12.6-4.9 0 0-3.4-.6-12.3-.6-8.6 0-12.8.6-12.8.6-.1 2.7 5.5 4.9 12.5 4.9z" opacity=".6" fill="#afafaf" stroke="#848484" stroke-width=".25" stroke-miterlimit="10"/>
  <path d="M64.5 27.2l-10.1-10c-1-.9-2.2-1.2-4.4-1.2 0 0-4.6-.3-15.3-.3C26 15.6 19 16 19 16c-2.9.1-3.6.5-4.3 1.1L5 27l59.5.2z" fill="#67B7DC"/>
  <path fill="#c8ff00" stroke="#717171" stroke-width=".11" stroke-miterlimit="10" d="M64.5 30.5H69v2.3h-4.5z"/>
</svg>
