<?xml version="1.0" encoding="utf-8"?>
<!-- ////////////////////////////////////////////////////////////////////////
     // @license
     // This demo file is part of yFiles for HTML 2.4.
     // Copyright (c) 2000-2022 by yWorks GmbH, Vor dem Kreuzberg 28,
     // 72070 Tuebingen, Germany. All rights reserved.
     //
     // yFiles demo files exhibit yFiles for HTML functionalities. Any redistribution
     // of demo files in source code or binary form, with or without
     // modification, is not permitted.
     //
     // Owners of a valid software license for a yFiles for HTML version that this
     // demo is shipped with are allowed to use the demo source code as basis
     // for their own yFiles for HTML powered applications. Use of such programs is
     // governed by the rights and conditions as set out in the yFiles for HTML
     // license agreement.
     //
     // THIS SOFTWARE IS PROVIDED ''AS IS'' AND ANY EXPRESS OR IMPLIED
     // WARRANTIES, INCLUDING, BUT NOT LIMITED TO, THE IMPLIED WARRANTIES OF
     // MERCHANTABILITY AND FITNESS FOR A PARTICULAR PURPOSE ARE DISCLAIMED. IN
     // NO EVENT SHALL yWorks BE LIABLE FOR ANY DIRECT, INDIRECT, INCIDENTAL,
     // SPECIAL, EXEMPLARY, OR CONSEQUENTIAL DAMAGES (INCLUDING, BUT NOT LIMITED
     // TO, PROCUREMENT OF SUBSTITUTE GOODS OR SERVICES; LOSS OF USE, DATA, OR
     // PROFITS; OR BUSINESS INTERRUPTION) HOWEVER CAUSED AND ON ANY THEORY OF
     // LIABILITY, WHETHER IN CONTRACT, STRICT LIABILITY, OR TORT (INCLUDING
     // NEGLIGENCE OR OTHERWISE) ARISING IN ANY WAY OUT OF THE USE OF THIS
     // SOFTWARE, EVEN IF ADVISED OF THE POSSIBILITY OF SUCH DAMAGE.
     // 
     ////////////////////////////////////////////////////////////////////////-->

<svg version="1.1" xmlns="http://www.w3.org/2000/svg" xmlns:xlink="http://www.w3.org/1999/xlink" style="display: block" width="60px" height="15px">
  <circle r="5" fill="#DADADA" transform="translate(5.5 5.5)"></circle>
  <circle r="5" fill="#9945E9" transform="translate(5 5)"></circle>
  <path transform="translate(1.5 1.25) scale(0.0045)" fill="white"
        d="M1856 960q-1 32-288 96l-352 32-224 64h-64l-293 352h69q26 0 45 4.5t19 11.5-19 11.5-45 4.5h-320v-32h64v-416h-160l-192 224h-96l-32-32v-192h32v-32h128v-8l-192-24v-128l192-24v-8h-128v-32h-32v-192l32-32h96l192 224h160v-416h-64v-32h320q26 0 45 4.5t19 11.5-19 11.5-45 4.5h-69l293 352h64l224 64 352 32q261 58 287 93z"></path>
  <text fill="#999" style="font-family: Roboto, sans-serif; font-size: 9px" transform="translate(14 8.5)">Travel</text>
</svg>
