<?xml version="1.0" encoding="UTF-8" standalone="no"?>
<svg width="50" height="50" viewBox="0 0 50 50" xmlns="http://www.w3.org/2000/svg">
  <g transform="matrix(0.71505184,0,0,0.71505184,-1.7929925,-4.269503)">
    <path fill="#ead6be" d="M 51.8,52.22 H 46.47 V 38.39 H 28.38 v 13.83 h -5.33 c -6.23,0 -11.55,4.01 -13.55,9.57 6.78,7.85 16.8,12.82 27.99,12.82 11.13,0 21.11,-4.92 27.89,-12.7 -1.96,-5.63 -7.31,-9.69 -13.58,-9.69 z"/>
    <path fill="#e2ccb7" d="M 65.39,61.7 C 63.37,56.19 58.07,52.22 51.88,52.22 H 46.55 V 38.39 H 37.5 V 74.6 C 48.66,74.55 58.64,69.56 65.39,61.7 Z"/>
    <path opacity="0.05" d="m 39.32,48.44 h -3.96 c -6.6,0 -12,-5.4 -12,-12 v -8.89 c 0,-6.6 5.4,-12 12,-12 h 3.96 c 6.6,0 12,5.4 12,12 v 8.89 c 0,6.6 -5.4,12 -12,12 z"/>
    <path fill="#ead6be" d="m 39.48,47.2 h -3.96 c -6.6,0 -12,-5.4 -12,-12 v -8.89 c 0,-6.6 5.4,-12 12,-12 h 3.96 c 6.6,0 12,5.4 12,12 v 8.89 c 0,6.6 -5.4,12 -12,12 z"/>
    <path fill="#e2ccb7" d="M 41.61,14.31 H 37.5 V 47.2 h 4.11 c 5.43,0 9.87,-4.44 9.87,-9.87 V 24.18 c 0,-5.43 -4.44,-9.87 -9.87,-9.87 z"/>
    <path opacity="0.15" fill="#56513a" d="M 51.71,14.56 C 49.62,10.83 43.98,8.15 37.32,8.15 c -6.66,0 -12.29,2.68 -14.39,6.41 -2.29,2.5 -3.7,5.81 -3.7,9.44 v 3.23 c 0,3.94 1.66,7.51 4.3,10.07 V 25.82 c 0,-1.15 0.21,-2.24 0.57,-3.27 2.64,2.87 7.56,4.81 13.21,4.81 3.01,0 6.63,-1.37 8.99,-2.32 -0.58,-0.59 -0.83,-1.27 -0.94,-2.3 -0.15,-1.38 1.03,-2.47 2.47,-2.47 1.62,0 2.96,1.17 3.23,2.71 0.27,0.9 0.43,1.85 0.43,2.83 V 36.9 c 2.42,-2.52 3.92,-5.93 3.92,-9.68 V 24 c 0,-3.63 -1.41,-6.94 -3.7,-9.44 z"/>
    <path fill="#a38f74" d="M 51.71,13.23 C 49.62,9.5 43.98,6.82 37.32,6.82 c -6.66,0 -12.29,2.68 -14.39,6.41 -2.29,2.5 -3.7,5.81 -3.7,9.44 v 4.87 c 0,3.94 1.66,7.51 4.3,10.07 V 24.49 c 0,-1.15 0.21,-2.24 0.57,-3.27 2.64,2.87 7.56,4.81 13.21,4.81 3.01,0 5.8,-0.55 8.16,-1.49 -0.58,-0.59 -0.94,-1.4 -0.94,-2.3 0,-1.82 1.47,-3.29 3.29,-3.29 1.62,0 2.96,1.17 3.23,2.71 0.27,0.9 0.43,1.85 0.43,2.83 V 37.22 C 53.9,34.7 55.4,31.29 55.4,27.54 V 22.67 C 55.41,19.03 54,15.72 51.71,13.23 Z"/>
    <path fill="#af9e80" d="m 36.85,15.24 c 0,-3.27 2.08,-6.15 5.27,-7.95 -1.48,-0.3 -3.05,-0.48 -4.69,-0.48 -6.65,0 -12.29,2.68 -14.39,6.41 -2.29,2.5 -3.7,5.81 -3.7,9.44 v 4.87 c 0,3.94 1.66,7.51 4.3,10.07 V 24.49 c 0,-1.15 0.21,-2.24 0.57,-3.27 2.64,2.87 7.56,4.81 13.21,4.81 2.92,0 5.63,-0.52 7.95,-1.41 -0.03,-0.04 -0.05,-0.08 -0.08,-0.12 -4.92,-1.39 -8.44,-5.01 -8.44,-9.26 z"/>
    <path fill="#ffffff" d="m 51.8,52.22 h -0.97 c 0.01,0.07 0.03,0.14 0.03,0.21 0,2.63 -6.01,4.75 -13.43,4.75 -7.42,0 -13.43,-2.13 -13.43,-4.75 0,-0.07 0.02,-0.14 0.03,-0.21 h -0.97 c -6.23,0 -11.55,4.01 -13.55,9.57 6.78,7.85 16.8,12.82 27.99,12.82 11.13,0 21.11,-4.92 27.89,-12.7 -1.97,-5.63 -7.32,-9.69 -13.59,-9.69 z"/>
    <path fill="#ffffff" d="M 51.87,52.22 H 50.9 c 0.01,0.07 0.03,0.14 0.03,0.21 0,2.63 -6.01,4.75 -13.43,4.75 -0.06,0 -0.12,0 -0.18,0 V 74.6 c 0.06,0 0.12,0 0.18,0 11.16,0 21.16,-4.95 27.94,-12.76 -1.98,-5.58 -7.32,-9.62 -13.57,-9.62 z"/>
    </g>
</svg>
