<svg version="1.1" id="usericon_female2" xmlns="http://www.w3.org/2000/svg" x="0px" y="0px" width="75px" height="75px" viewBox="0 0 75 75" xml:space="preserve">
    <circle fill="#CAEACA" stroke="#C6E5C6" stroke-miterlimit="10" cx="37.5" cy="37.5" r="37"/>
    <rect x="18.37" y="29.42" fill="#A87E5A" width="37.66" height="25.01"/>
    <path fill="#EAD6BE" d="M47.08,52.05h-5.69v-5.67H33v5.67h-6.52c-7.32,0-13.35,5.48-14.24,12.55c6.6,6.14,15.45,9.9,25.18,9.9
      c9.16,0,17.53-3.33,23.99-8.84C61.01,58.08,54.76,52.05,47.08,52.05z"/>
    <path fill="#E2CCB7" d="M47.08,52.05h-5.69v-5.67h-3.97V74.5c0.03,0,0.06,0,0.09,0c9.12,0,17.46-3.3,23.91-8.77
      C61.05,58.12,54.78,52.05,47.08,52.05z"/>
    <circle opacity="0.05" cx="37.19" cy="33.39" r="15.62"/>
    <circle fill="#EAD6BE" cx="36.78" cy="32.05" r="15.62"/>
    <path fill="#E2CCB7" d="M37.19,16.45v31.2c8.43-0.22,15.21-7.11,15.21-15.6S45.63,16.67,37.19,16.45z"/>
    <path opacity="0.1" fill="#56513A" d="M56.71,42.07l-0.23-15.12c-1.23-9.81-9.59-16.07-19.74-16.07c-9.9,0-18.09,6.6-19.62,16.07
      l-0.47,15.1c-3.37,0.5-5.95,3.4-5.95,6.9c0,3.86,3.13,6.99,6.99,6.99c3.35,0,6.88-2.35,7.56-5.49l0,0
      c0.07-0.42,0.16-0.86,0.16-1.3c0,0-0.04-14.81,0-19.42c1.52,0.54,2.51,0.84,4.22,0.84c6.11,0,11.55-1.66,13.71-7
      c1.16,1.45,2.66,2.75,4.69,2.75c0.11,0,0,29.5,0,29.5l8.89,0c3.23-0.62,5.67-3.45,5.67-6.86C62.58,45.48,60.03,42.6,56.71,42.07z"
      />
    <path fill="#C49A6C" d="M56.71,40.82L56.48,25.7c-1.23-9.81-9.59-16.07-19.74-16.07c-9.9,0-18.09,6.6-19.62,16.07l-0.47,15.1
      c-3.37,0.5-5.95,3.4-5.95,6.9c0,3.86,3.13,6.99,6.99,6.99c3.35,0,6.3-2.35,6.98-5.49h-0.03c0.07-0.42,0.11-0.86,0.11-1.3
      c0,0-0.01-14.81,0.03-19.42c1.52,0.54,3.14,0.84,4.85,0.84c6.11,0,11.34-2.13,13.5-7.47c1.16,1.45,3.28,3.21,5.31,3.21
      c0.11,0,0,29.5,0,29.5l8.48,0c3.23-0.62,5.67-3.45,5.67-6.86C62.58,44.23,60.03,41.35,56.71,40.82z"/>
    <path fill="#B78D63" d="M21.41,27.98V46.2h-0.03c-0.25,2.66-2.49,4.74-5.22,4.74c-2.83,0-5.13-2.24-5.23-5.04
      c-0.16,0.58-0.24,1.19-0.24,1.81c0,3.86,3.13,6.99,6.99,6.99c3.35,0,6.3-2.35,6.98-5.49h-0.03c0.07-0.42,0.11-0.86,0.11-1.3
      c0,0-0.01-14.48,0.03-19.25C23.62,28.55,22.49,28.32,21.41,27.98z"/>
    <g>
      <path fill="#AD7E53" d="M56.71,40.85l-0.23-15.12c-1.03-8.25-7.11-13.97-15.05-15.59c0.19,0.97,0.29,1.96,0.29,2.98
        c0,8.63-6.99,15.62-15.62,15.62c-0.23,0-0.46-0.02-0.7-0.04c1.34,0.41,2.75,0.65,4.22,0.65c6.11,0,11.34-2.13,13.5-7.47
        c1.16,1.45,3.28,3.21,5.31,3.21c0.11,0,0,29.5,0,29.5l8.48,0c3.23-0.62,5.67-3.45,5.67-6.86C62.58,44.26,60.03,41.38,56.71,40.85
        z"/>
    </g>
    <path fill="#2D77AA" d="M47.08,52.05l-9.53,13.16L26.48,52.05c-7.29,0-13.3,5.44-14.23,12.48c6.61,6.18,15.49,9.97,25.25,9.97
      c9.12,0,17.46-3.3,23.91-8.77C61.05,58.12,54.78,52.05,47.08,52.05z"/>
    <path fill="#1F639B" d="M47.08,52.05L37.5,65.21v9.29h0c9.12,0,17.46-3.31,23.91-8.77C61.05,58.12,54.78,52.05,47.08,52.05z"/>
  </svg>