<?xml version="1.0" encoding="UTF-8" standalone="no"?>
<svg width="86.12606mm" height="134.48897mm" viewBox="0 0 86.12606 134.48897" xmlns="http://www.w3.org/2000/svg">
  <path
     style="fill:#eb6424;fill-opacity:1;stroke:none;stroke-width:0.3;stroke-linecap:round;stroke-linejoin:round;stroke-dasharray:none;stroke-opacity:1"
     d="m 10.909846,59.027498 3.506452,12.72444 33.907743,0.10844 23.49683,-15.58021 3.25341,-12.36295 -23.24379,15.18257 z"/>
  <path
     style="fill:#a4243b;fill-opacity:1;stroke:none;stroke-width:0.3;stroke-linecap:round;stroke-linejoin:round;stroke-dasharray:none;stroke-opacity:1"
     d="m 4.9666085,37.429388 2.930112,10.09954 47.0064905,0.18702 23.50324,-15.46102 2.6184,-10.286562 -23.4409,15.336332 z"/>
  <path
     style="fill:#dc2f02;fill-opacity:1;stroke:none;stroke-width:0.3;stroke-linecap:round;stroke-linejoin:round;stroke-dasharray:none;stroke-opacity:1"
     d="m 7.7278455,47.467308 3.1298935,11.63792 40.909052,0.0441 23.45217,-15.51722 2.95357,-11.15301 -23.18768,15.16456 z"/>
  <path
     style="fill:#621708;fill-opacity:1;stroke:none;stroke-width:0.3;stroke-linecap:round;stroke-linejoin:round;stroke-dasharray:none;stroke-opacity:1"
     d="m 3.6574105,32.379618 1.371542,5.04977 52.6173385,0.0623 23.56559,-15.585703 1.24685,-4.987427 -23.4409,15.46102 z"/>
  <path
     style="fill:#ba5624;fill-opacity:1;stroke:none;stroke-width:0.3;stroke-linecap:round;stroke-linejoin:round;stroke-dasharray:none;stroke-opacity:1"
     d="m 62.509031,19.848712 -3.24182,12.094506 23.31621,-15.461019 3.11714,-11.9698212 z"/>
  <path
     style="fill:#ba5624;fill-opacity:1;stroke:none;stroke-width:0.299777;stroke-linecap:round;stroke-linejoin:round;stroke-dasharray:none;stroke-opacity:1"
     d="M 22.760158,4.2201498 0.01331451,19.186077 3.8044555,32.479338 l 55.1919555,0.17607 3.52664,-12.941122 23.33063,-15.3727132 -33.56103,-1.019639 -1.58385,1.162321 z"/>
  <path
     style="fill:#00a7e1;fill-opacity:1;stroke:none;stroke-width:0.5;stroke-linecap:round;stroke-linejoin:round;stroke-dasharray:none;stroke-opacity:1"
     d="M 23.429485,4.1383188 0.29089751,19.225283 2.0110943,25.155131 12.365135,24.058398 29.999005,23.574386 53.363271,3.2557418 Z"/>
  <g transform="translate(-64.171579,-77.904832)">
    <path
       style="fill:#f1c40f;fill-opacity:1;stroke:none;stroke-width:0.3;stroke-linecap:round;stroke-linejoin:round;stroke-dasharray:none;stroke-opacity:1"
       d="m 85.926119,176.94924 19.050511,0.0723 23.35224,-15.29102 -3.4703,12.50755 -22.99075,15.11027 -12.390238,0.79528 z"/>
    <path
       style="fill:#f5b041;fill-opacity:1;stroke:none;stroke-width:0.3;stroke-linecap:round;stroke-linejoin:round;stroke-dasharray:none;stroke-opacity:1"
       d="m 81.386819,160.42201 28.168431,0.20449 -4.49877,16.4614 -19.222015,0.0511 z"/>
    <path
       style="fill:#f5b041;fill-opacity:1;stroke:none;stroke-width:0.3;stroke-linecap:round;stroke-linejoin:round;stroke-dasharray:none;stroke-opacity:1"
       d="m 109.55525,160.52425 23.26068,-15.18334 -4.39653,16.41028 -23.20956,15.33671 z"/>
    <path
       style="fill:#f1c40f;fill-opacity:1;stroke:#000000;stroke-width:0.398402;stroke-linecap:round;stroke-linejoin:round;stroke-dasharray:none;stroke-opacity:1"
       id="path15981-0-9"
       d="m -86.033984,-177.39716 a 9.4734316,2.1053245 0 0 1 -4.736716,1.82327 9.4734316,2.1053245 0 0 1 -9.47343,0 9.4734316,2.1053245 0 0 1 -4.73672,-1.82327"
       transform="scale(-1)" />
    <path
       style="fill:#e67e22;fill-opacity:1;stroke:none;stroke-width:0.3;stroke-linecap:round;stroke-linejoin:round;stroke-dasharray:none;stroke-opacity:1"
       d="m 78.515579,149.62062 3.036515,11.02544 27.979306,0.10844 23.31609,-15.47176 2.96422,-10.7001 -23.35224,15.25487 -0.25305,-0.36149 z"/>
    <path
       style="fill:#c87137;fill-opacity:1;stroke:none;stroke-width:0.499999;stroke-linecap:round;stroke-linejoin:round;stroke-dasharray:none;stroke-opacity:1"
       d="m 128.27036,81.404139 17.4404,0.51433 0.15586,0.592258 -16.72347,-0.374054 z"/>
  </g>
  <path
     style="fill:none;stroke:#000000;stroke-width:0.482089;stroke-linecap:round;stroke-linejoin:round"
     d="M 0.24104451,19.391851 C 10.605352,57.648738 20.96966,95.905628 31.333968,134.16252"/>
  <g transform="translate(-64.171579,-77.904832)">
    <path
       style="fill:none;stroke:#000000;stroke-width:0.481021;stroke-linecap:round;stroke-linejoin:round"
       d="M 150.05713,82.689134 C 139.66762,120.68425 129.27811,158.67938 118.8886,196.67452"/>
    <path
       style="fill:none;stroke:#000000;stroke-width:0.482923;stroke-linecap:round;stroke-linejoin:round"
       d="m 126.72346,97.827866 c -10.472,37.994484 -20.944,75.988974 -31.415998,113.983484"/>
    <path
       style="fill:none;stroke:#000000;stroke-width:0.481452;stroke-linecap:round;stroke-linejoin:round;stroke-dasharray:none"
       d="M 64.438454,97.255582 C 71.883879,92.314155 79.329306,87.372728 86.774732,82.431301"/>
    <path
       style="fill:none;stroke:#000000;stroke-width:0.499999;stroke-linecap:round;stroke-linejoin:round;stroke-dasharray:none"
       d="m 95.710155,212.1438 c 7.718435,-5.14097 15.436875,-10.28193 23.155315,-15.4229"/>
    <path
       style="fill:none;stroke:#000000;stroke-width:0.499999;stroke-linecap:round;stroke-linejoin:round;stroke-dasharray:none"
       d="m 101.78554,189.7577 c 7.71843,-5.14097 15.43687,-10.28193 23.15531,-15.4229"/>
    <path
       style="fill:none;stroke:#000000;stroke-width:0.499999;stroke-linecap:round;stroke-linejoin:round;stroke-dasharray:none"
       d="m 105.25583,177.03326 c 7.71844,-5.14097 15.43688,-10.28193 23.15532,-15.4229"/>
    <path
       style="fill:none;stroke:#000000;stroke-width:0.499999;stroke-linecap:round;stroke-linejoin:round;stroke-dasharray:none"
       d="m 109.59371,160.69392 c 7.71844,-5.14097 15.43688,-10.28193 23.15532,-15.4229"/>
    <path
       style="fill:none;stroke:#000000;stroke-width:0.499999;stroke-linecap:round;stroke-linejoin:round;stroke-dasharray:none"
       d="m 112.48563,149.84923 c 7.71843,-5.14097 15.43688,-10.28193 23.15531,-15.4229"/>
    <path
       style="fill:none;stroke:#000000;stroke-width:0.499999;stroke-linecap:round;stroke-linejoin:round;stroke-dasharray:none"
       d="m 116.10053,137.01634 c 7.71844,-5.14097 15.43688,-10.28193 23.15532,-15.4229"/>
    <path
       style="fill:none;stroke:#000000;stroke-width:0.499999;stroke-linecap:round;stroke-linejoin:round;stroke-dasharray:none"
       d="m 119.13704,125.70172 c 7.71844,-5.14097 15.43688,-10.28193 23.15532,-15.4229"/>
    <path
       style="fill:none;stroke:#000000;stroke-width:0.499999;stroke-linecap:round;stroke-linejoin:round;stroke-dasharray:none"
       d="m 121.77507,115.4494 c 7.71844,-5.14097 15.43687,-10.28193 23.15531,-15.4229"/>
    <path
       style="fill:#6c4f77;fill-opacity:1;stroke:#000000;stroke-width:0.499999;stroke-linecap:round;stroke-linejoin:round;stroke-dasharray:none"
       d="m 123.33221,110.20304 c 7.71844,-5.14097 15.43687,-10.281926 23.15531,-15.422896"/>
    <path
       style="fill:none;stroke:#000000;stroke-width:0.499999;stroke-linecap:round;stroke-linejoin:round;stroke-dasharray:none"
       d="m 126.71082,97.817169 c 7.71844,-5.14097 15.43687,-10.28193 23.15531,-15.422899"/>
    <path
       style="fill:#f7dc6f;fill-opacity:1;stroke:#000000;stroke-width:0.3;stroke-linecap:round;stroke-linejoin:round;stroke-dasharray:none;stroke-opacity:1"
       d="m -89.415326,-189.98209 a 6.1264219,1.8459375 0 0 1 -3.063211,1.59863 6.1264219,1.8459375 0 0 1 -6.126422,0 6.1264219,1.8459375 0 0 1 -3.063211,-1.59863"
       transform="scale(-1)" />
    <path
       style="fill:#f5b041;fill-opacity:1;stroke:#000000;stroke-width:0.457508;stroke-linecap:round;stroke-linejoin:round;stroke-dasharray:none;stroke-opacity:1"
       d="m -81.607633,-160.87486 a 13.895175,1.8928572 0 0 1 -6.947587,1.63926 13.895175,1.8928572 0 0 1 -13.89518,0 13.895175,1.8928572 0 0 1 -6.94758,-1.63926"
       transform="scale(-1)" />
    <path
       style="fill:#e67e22;fill-opacity:1;stroke:#000000;stroke-width:0.474244;stroke-linecap:round;stroke-linejoin:round;stroke-dasharray:none;stroke-opacity:1"
       d="m -78.563349,-149.71327 a 16.906134,1.6716383 0 0 1 -8.453067,1.44768 16.906134,1.6716383 0 0 1 -16.906134,0 16.906134,1.6716383 0 0 1 -8.45307,-1.44768"
       transform="scale(-1)" />
    <path
       style="fill:#eb6424;fill-opacity:1;stroke:#000000;stroke-width:0.498301;stroke-linecap:round;stroke-linejoin:round;stroke-dasharray:none;stroke-opacity:1"
       d="m -75.297779,-137.44659 a 20.183155,2.017236 0 0 1 -10.091578,1.74697 20.183155,2.017236 0 0 1 -20.183153,0 20.183155,2.017236 0 0 1 -10.09158,-1.74697"
       transform="scale(-1)" />
    <path
       style="fill:#dc2f02;fill-opacity:1;stroke:#000000;stroke-width:0.570123;stroke-linecap:round;stroke-linejoin:round;stroke-dasharray:none;stroke-opacity:1"
       d="m -72.323076,-125.7307 a 23.311377,1.7520828 0 0 1 -11.655689,1.51735 23.311377,1.7520828 0 0 1 -23.311375,0 23.311377,1.7520828 0 0 1 -11.65569,-1.51735"
       transform="scale(-1)" />
    <path
       style="fill:#a4243b;fill-opacity:1;stroke:#000000;stroke-width:0.5;stroke-linecap:round;stroke-linejoin:round;stroke-dasharray:none;stroke-opacity:1"
       d="m -69.40089,-115.7826 a 26.104992,2.1784575 0 0 1 -13.052497,1.8866 26.104992,2.1784575 0 0 1 -26.104993,0 26.104992,2.1784575 0 0 1 -13.05249,-1.8866"
       transform="scale(-1)" />
    <path
       style="fill:#621708;fill-opacity:1;stroke:#000000;stroke-width:0.5;stroke-linecap:round;stroke-linejoin:round;stroke-dasharray:none;stroke-opacity:1"
       d="m -68.25946,-110.58049 a 27.44812,2.31622 0 0 1 -13.724061,2.00591 27.44812,2.31622 0 0 1 -27.448119,0 27.44812,2.31622 0 0 1 -13.72406,-2.00591"
       transform="scale(-1)" />
    <path
       style="fill:none;stroke:#000000;stroke-width:0.527437;stroke-linecap:round;stroke-linejoin:round;stroke-dasharray:none;stroke-opacity:1"
       transform="scale(-1)"
       d="m -64.787302,-97.598099 a 30.909399,2.2887809 0 0 1 -15.4547,1.982143 30.909399,2.2887809 0 0 1 -30.909398,0 30.909399,2.2887809 0 0 1 -15.4547,-1.982143" />
    <path
       style="fill:none;fill-opacity:1;stroke:#000000;stroke-width:0.6;stroke-linecap:round;stroke-linejoin:round;stroke-dasharray:none;stroke-opacity:1"
       d="m -86.866274,-82.414978 a 31.560316,1.1553636 0 0 1 -15.780156,1.000574 31.560316,1.1553636 0 0 1 -31.56032,0 31.560316,1.1553636 0 0 1 -15.78016,-1.000574"
       transform="scale(-1)" />
    <path
       style="fill:#f7dc6f;fill-opacity:1;stroke:#000000;stroke-width:0.201;stroke-linecap:round;stroke-linejoin:round;stroke-dasharray:none"
       d="m 89.469413,189.65549 6.036186,22.10453 6.072331,-22.14118"/>
    <path
       style="fill:#808000;fill-opacity:1;stroke:#000000;stroke-width:0.4;stroke-linecap:round;stroke-linejoin:round;stroke-dasharray:none;stroke-opacity:1"
       d="m 101.6824,189.56176 23.20956,-15.23447"/>
    <path
       style="fill:#f7dc6f;fill-opacity:1;stroke:#000000;stroke-width:0.4;stroke-linecap:round;stroke-linejoin:round;stroke-dasharray:none;stroke-opacity:1"
       d="m 101.60883,189.43707 23.31181,-15.33671 -6.13469,22.49384 -23.260675,15.43896 z"/>
    <path
       style="fill:#483737;fill-opacity:1;stroke:none;stroke-width:0.3;stroke-linecap:round;stroke-linejoin:round;stroke-dasharray:none;stroke-opacity:1"
       d="m 78.203297,98.922323 c 3.614908,-1.880928 7.229718,-3.761805 10.844427,-5.642629"/>
    <path
       style="fill:#502d16;fill-opacity:1;stroke:none;stroke-width:0.119832;stroke-linecap:round;stroke-linejoin:round;stroke-dasharray:none;stroke-opacity:1"
       d="m 124.87455,90.703084 -14.31177,-0.02514 6.4591,-4.632273 z"/>
    <path
       style="fill:#502d16;fill-opacity:1;stroke:none;stroke-width:0.119832;stroke-linecap:round;stroke-linejoin:round;stroke-dasharray:none;stroke-opacity:1"
       d="m 131.39598,90.746727 -5.29914,-3.171166 -2.78465,1.879334 2.22734,1.303186 z"/>
    <path
       style="fill:#502d16;fill-opacity:1;stroke:none;stroke-width:0.0803561;stroke-linecap:round;stroke-linejoin:round;stroke-dasharray:none;stroke-opacity:1"
       d="m 139.90761,85.608679 -9.42942,-0.01715 4.25563,-3.161489 z"/>
    <path
       style="fill:#502d16;fill-opacity:1;stroke:none;stroke-width:0.0803561;stroke-linecap:round;stroke-linejoin:round;stroke-dasharray:none;stroke-opacity:1"
       d="m 144.20431,85.638465 -3.49138,-2.164295 -1.83469,1.282631 1.4675,0.889413 z"/>
    <path
       style="fill:#502d16;fill-opacity:1;stroke:none;stroke-width:0.0603232;stroke-linecap:round;stroke-linejoin:round;stroke-dasharray:none;stroke-opacity:1"
       d="m 136.87325,88.530434 -7.84124,-0.01162 3.53886,-2.142515 z"/>
    <path
       style="fill:#502d16;fill-opacity:1;stroke:none;stroke-width:0.0603232;stroke-linecap:round;stroke-linejoin:round;stroke-dasharray:none;stroke-opacity:1"
       d="m 140.44626,88.55062 -2.90333,-1.466725 -1.52568,0.869228 1.22033,0.602748 z"/>
    <path
       style="fill:#502d16;fill-opacity:1;stroke:none;stroke-width:0.0603232;stroke-linecap:round;stroke-linejoin:round;stroke-dasharray:none;stroke-opacity:1"
       d="m 115.82944,93.958963 -7.84124,-0.01162 3.53886,-2.142515 z"/>
    <path
       style="fill:#502d16;fill-opacity:1;stroke:none;stroke-width:0.0603232;stroke-linecap:round;stroke-linejoin:round;stroke-dasharray:none;stroke-opacity:1"
       d="m 125.97352,95.61296 -7.84124,-0.01162 3.53886,-2.142515 z"/>
    <path
       style="fill:#502d16;fill-opacity:1;stroke:none;stroke-width:0.0603232;stroke-linecap:round;stroke-linejoin:round;stroke-dasharray:none;stroke-opacity:1"
       d="m 119.40245,93.979149 -2.90333,-1.466725 -1.52568,0.869228 1.22033,0.602748 z"/>
    <path
       style="fill:#502d16;fill-opacity:1;stroke:none;stroke-width:0.0907143;stroke-linecap:round;stroke-linejoin:round;stroke-dasharray:none;stroke-opacity:1"
       d="m 125.53219,86.074066 -11.35667,-0.01815 5.12542,-3.345337 z"/>
    <path
       style="fill:#502d16;fill-opacity:1;stroke:none;stroke-width:0.0907143;stroke-linecap:round;stroke-linejoin:round;stroke-dasharray:none;stroke-opacity:1"
       d="m 130.70707,86.105584 -4.20497,-2.290153 -2.20968,1.357218 1.76744,0.941135 z"/>
    <path
       style="fill:#502d16;fill-opacity:1;stroke:none;stroke-width:0.0840692;stroke-linecap:round;stroke-linejoin:round;stroke-dasharray:none;stroke-opacity:1"
       d="m 121.29593,93.545222 11.20525,-0.0158 -5.05708,-2.912002 z"/>
    <path
       style="fill:#502d16;fill-opacity:1;stroke:none;stroke-width:0.119832;stroke-linecap:round;stroke-linejoin:round;stroke-dasharray:none;stroke-opacity:1"
       d="m 131.11548,82.56224 -14.31177,-0.02513 6.4591,-4.632274 z"/>
    <path
       style="fill:#502d16;fill-opacity:1;stroke:none;stroke-width:0.119832;stroke-linecap:round;stroke-linejoin:round;stroke-dasharray:none;stroke-opacity:1"
       d="m 137.26285,82.605883 -5.29914,-3.171166 -2.78465,1.879335 2.22734,1.303185 z"/>
    <path
       style="fill:#502d16;fill-opacity:1;stroke:none;stroke-width:0.0801821;stroke-linecap:round;stroke-linejoin:round;stroke-dasharray:none;stroke-opacity:1"
       d="m 145.1417,83.211645 -8.87266,-0.01815 4.00436,-3.345337 z"/>
    <path
       style="fill:#502d16;fill-opacity:1;stroke:none;stroke-width:0.0801821;stroke-linecap:round;stroke-linejoin:round;stroke-dasharray:none;stroke-opacity:1"
       d="m 149.1847,83.243163 -3.28523,-2.290154 -1.72636,1.357219 1.38085,0.941134 z"/>
    <path
       style="fill:#009eff;fill-opacity:1;stroke:none;stroke-width:0.499999;stroke-linecap:round;stroke-linejoin:round;stroke-dasharray:none;stroke-opacity:1"
       d="m 115.80179,82.354866 -0.0312,-0.187029"/>
    <path
       style="fill:#009eff;fill-opacity:1;stroke:none;stroke-width:0.499999;stroke-linecap:round;stroke-linejoin:round;stroke-dasharray:none;stroke-opacity:1"
       d="m 115.61476,82.978296 c 0,0 0,0 0,0 z"/>
    <path
       style="fill:none;fill-opacity:1;stroke:none;stroke-width:0.499999;stroke-linecap:round;stroke-linejoin:round;stroke-dasharray:none;stroke-opacity:1"
       d="m 135.14365,81.637925 0.0779,0.109098"/>
    <path
       style="fill:none;fill-opacity:1;stroke:none;stroke-width:0.499999;stroke-linecap:round;stroke-linejoin:round;stroke-dasharray:none;stroke-opacity:1"
       d="m 128.23918,81.404139 8.96178,0.04676 h 0.24937 l -0.65459,0.701357 z"/>
  </g>
</svg>
