<?xml version="1.0" encoding="utf-8"?>
<svg version="1.1" id="usericon_male1" xmlns="http://www.w3.org/2000/svg" x="0px" y="0px"
     width="57px" height="65px" viewBox="0 0 57 65" enable-background="new 0 0 57 65" xml:space="preserve">
	 <defs>
		 <linearGradient id="SVGID_1_1" gradientUnits="userSpaceOnUse" x1="316.4619" y1="-1140.6274" x2="317.7031" y2="-1170.4268" gradientTransform="matrix(1 0 0 -1 -289.5801 -1118.6514)">
			<stop  offset="0.2711" style="stop-color:#FFAB4F"/>
			<stop  offset="1" style="stop-color:#FFD28F"/>
		</linearGradient>
		<radialGradient id="face_x5F_white_1_1" cx="317.7061" cy="-1142.3926" r="23.4239" fx="313.1365" fy="-1144.8823" gradientTransform="matrix(1 0 0 -1 -289.5801 -1118.6514)" gradientUnits="userSpaceOnUse">
			<stop  offset="0" style="stop-color:#FFD28F"/>
			<stop  offset="1" style="stop-color:#FFAB4F"/>
		</radialGradient>
		<linearGradient id="face_highlight_1_1" gradientUnits="userSpaceOnUse" x1="6754.459" y1="-12675.6475" x2="6788.2241" y2="-12809.1807" gradientTransform="matrix(0.275 0 0 -0.2733 -1833.4225 -3465.5386)">
			<stop  offset="0" style="stop-color:#FFFFFF;stop-opacity:0.24"/>
			<stop  offset="1" style="stop-color:#FFFFFF;stop-opacity:0.16"/>
		</linearGradient>
		<radialGradient id="collar_x5F_body_1_1" cx="305.0811" cy="-1173.834" r="32.4004" gradientTransform="matrix(1 0 0 -1 -289.5801 -1118.6514)" gradientUnits="userSpaceOnUse">
			<stop  offset="0" style="stop-color:#B0E8FF"/>
			<stop  offset="1" style="stop-color:#74AEEE"/>
		</radialGradient>
		<radialGradient id="collar_x5F_r_1_1" cx="321.4229" cy="-1163.9609" r="9.2835" gradientTransform="matrix(1 0 0 -1 -289.5801 -1118.6514)" gradientUnits="userSpaceOnUse">
			<stop  offset="0" style="stop-color:#80CCFF"/>
			<stop  offset="1" style="stop-color:#74AEEE"/>
		</radialGradient>
		<radialGradient id="collar_x5F_l_1_1" cx="309.0605" cy="-1164.002" r="9.2834" gradientTransform="matrix(1 0 0 -1 -289.5801 -1118.6514)" gradientUnits="userSpaceOnUse">
			<stop  offset="0" style="stop-color:#80CCFF"/>
			<stop  offset="1" style="stop-color:#74AEEE"/>
		</radialGradient>
	 </defs>
<g>
	<path fill="url(#SVGID_1_1)" stroke="#ED9135" stroke-miterlimit="10" d="M49.752,49.239c-4.396-4.396-10.951-5.885-12.063-6.109
		v-7.316H19.5c0,0,0.038,6.904,0,6.869c0,0-6.874,0.996-12.308,6.432c-5.592,5.592-6.47,11.67-6.47,11.67
		c0,1.938,1.575,3.492,3.523,3.492h48.51c1.947,0,3.521-1.559,3.521-3.492C56.277,60.782,54.434,53.921,49.752,49.239z"/>
	<path id="face_x5F_white_3_" fill="url(#face_x5F_white_1_1)" stroke="#ED9135" stroke-miterlimit="10" d="M43.898,21.371
		c0.086,10.2-6.738,18.521-15.245,18.587c-8.504,0.066-15.468-8.147-15.554-18.345c-0.083-10.199,6.741-18.52,15.246-18.587
		C36.85,2.959,43.813,11.172,43.898,21.371z"/>
	<path id="face_highlight_3_" fill="url(#face_highlight_1_1)" d="M28.181,3.347C22.146,3.394,17.434,7.84,15.394,13.733
		c-0.664,1.919-0.294,4.043,0.98,5.629c2.73,3.398,5.729,6.283,9.461,8.088c3.137,1.518,7.535,2.385,11.893,1.247
		c2.274-0.592,3.988-2.459,4.375-4.766c0.187-1.094,0.293-2.289,0.283-3.553C42.306,10.966,36.494,3.282,28.181,3.347z"/>
	<path id="hair_x5F_gray_1_" fill="#ECECEC" stroke="#9B9B9B" stroke-linecap="round" stroke-linejoin="round" d="M20.5,11.264
		c0,0,5.321,7.25,15,3.75c2.729-0.563,9.059,1.035,9.059,1.035S40.902-0.121,27.512,0.758C9.625,2.139,12.281,23.692,12.281,23.692
		s2.768-0.684,5.036-4.802C18.291,17.12,20.5,11.264,20.5,11.264z"/>
	<path id="collar_x5F_body_3_" fill="url(#collar_x5F_body_1_1)" stroke="#5491CF" d="M0.723,60.782c0,1.938,1.575,3.494,3.523,3.494
		h48.51c1.947,0,3.521-1.559,3.521-3.494c0,0-1.845-6.861-6.525-11.543c-4.815-4.814-11.244-6.146-11.244-6.146
		c-1.771,1.656-5.61,2.803-10.063,2.803c-4.453,0-8.292-1.146-10.063-2.803c0,0-5.755,0.586-11.189,6.021
		C1.601,54.704,0.723,60.782,0.723,60.782z"/>
	<path id="collar_x5F_r_3_" fill="url(#collar_x5F_r_1_1)" stroke="#5491CF" d="M38.382,39.396c0,0-0.574,2.369-3.013,4.441
		c-2.108,1.795-5.783,2.072-5.783,2.072l3.974,6.217c0,0,2.957-1.637,5.009-3.848c1.922-2.072,1.37-5.48,1.37-5.48L38.382,39.396z"
		/>
	<path id="collar_x5F_l_3_" fill="url(#collar_x5F_l_1_1)" stroke="#5491CF" d="M18.853,39.437c0,0,0.576,2.369,3.012,4.441
		c2.109,1.793,5.785,2.072,5.785,2.072l-3.974,6.217c0,0-2.957-1.637-5.007-3.852c-1.922-2.07-1.37-5.479-1.37-5.479L18.853,39.437z
		"/>
</g>
</svg>
