<?xml version="1.0" encoding="utf-8"?>
<svg version="1.1" id="usericon_female2" xmlns="http://www.w3.org/2000/svg" xmlns:xlink="http://www.w3.org/1999/xlink" x="0px" y="0px"
	 width="57px" height="67px" viewBox="0 0 57 67" enable-background="new 0 0 57 67" xml:space="preserve">
<defs>
	<linearGradient id="SVGID_1_5" gradientUnits="userSpaceOnUse" x1="316.2227" y1="-3460.8057" x2="317.4636" y2="-3490.604" gradientTransform="matrix(1 0 0 -1 -289.3398 -3436.7256)">
		<stop  offset="0.2711" style="stop-color:#FFAB4F"/>
		<stop  offset="1" style="stop-color:#FFD28F"/>
	</linearGradient>
	<radialGradient id="face_x5F_white_1_5" cx="317.4668" cy="-3462.5713" r="23.425" fx="312.8972" fy="-3465.061" gradientTransform="matrix(1 0 0 -1 -289.3398 -3436.7256)" gradientUnits="userSpaceOnUse">
		<stop  offset="0" style="stop-color:#FFD28F"/>
		<stop  offset="1" style="stop-color:#FFAB4F"/>
	</radialGradient>
	<linearGradient id="face_highlight_2_5" gradientUnits="userSpaceOnUse" x1="6755.5166" y1="-12679.7598" x2="6789.2813" y2="-12813.293" gradientTransform="matrix(0.275 0 0 -0.2733 -1833.4225 -3464.2654)">
		<stop  offset="0" style="stop-color:#FFFFFF;stop-opacity:0.24"/>
		<stop  offset="1" style="stop-color:#FFFFFF;stop-opacity:0.16"/>
	</linearGradient>
	<linearGradient id="body_1_5" gradientUnits="userSpaceOnUse" x1="389.8281" y1="3569.1104" x2="325.4351" y2="3569.1104" gradientTransform="matrix(0.9852 0 0 0.9852 -323.834 -3460.3235)">
		<stop  offset="0" style="stop-color:#49AD33"/>
		<stop  offset="1" style="stop-color:#C2DA92"/>
	</linearGradient>
</defs>
<g>
	<path fill="url(#SVGID_1_5)" stroke="#ED9135" stroke-miterlimit="10" d="M49.752,51.344c-4.396-4.396-10.951-5.884-12.063-6.108
		v-7.316H19.5c0,0,0.038,6.903,0,6.868c0,0-6.874,0.997-12.308,6.432c-5.592,5.592-6.47,11.67-6.47,11.67
		c0,1.938,1.575,3.492,3.523,3.492h48.51c1.947,0,3.521-1.558,3.521-3.492C56.277,62.887,54.434,56.025,49.752,51.344z"/>
	<path fill="url(#face_x5F_white_1_5)" stroke="#ED9135" stroke-miterlimit="10" d="M43.898,23.476
		c0.086,10.199-6.738,18.52-15.25,18.586c-8.5,0.067-15.464-8.146-15.55-18.344c-0.082-10.199,6.742-18.52,15.247-18.587
		C36.85,5.064,43.813,13.277,43.898,23.476z"/>
	<path fill="url(#face_highlight_2_5)" d="M28.472,5.744c-6.035,0.047-10.747,4.493-12.787,10.386
		c-0.664,1.919-0.294,4.043,0.98,5.629c2.73,3.398,5.729,6.283,9.461,8.088c3.137,1.518,7.535,2.385,11.893,1.247
		c2.274-0.592,3.988-2.459,4.375-4.766c0.187-1.094,0.293-2.289,0.283-3.553C42.597,13.363,36.785,5.679,28.472,5.744z"/>
	<path fill="#5C5C5C" stroke="#353535" stroke-linecap="round" stroke-linejoin="round" d="
		M28.595,0.619c-10.835,0-20.103,7.248-19.219,25.625c0.563,6.563,5.862,12.042,9.366,13.531
		c-2.929-10.968-0.304-25.021-0.585-25.526c-0.281-0.505,3.536,6.728,3.536,6.728l3.183-8.312c5.541,4.28,0.393,11.309,1.049,11.058
		c4.26-1.631,5.34-9.228,5.34-9.228s2.729,3.657,2.701,5.504c-0.054,3.562,2.194-6.067,2.194-6.067l1.026,2.031
		c6.728,9.822,3.685,16.208,1.647,22.781c15.666-0.703,12.291-10.48,9.66-18.407C43.813,6.211,39.429,0.619,28.595,0.619z"/>
	<path fill="url(#body_1_5)" stroke="#008D33" d="M0.723,62.887c0,1.938,1.575,3.494,3.523,3.494h48.51
		c1.947,0,3.521-1.559,3.521-3.494c0,0-1.845-6.86-6.525-11.543c-4.815-4.813-8.244-5.146-8.244-5.146
		c-1.444,6.983-8.555,8.786-13.007,8.786c-4.452,0-11.322-2.643-11.941-9.439c0,0-4.559,1.199-9.367,5.674
		C1.601,56.809,0.723,62.887,0.723,62.887z"/>
</g>
</svg>
