<svg version="1.1" id="usericon_female4" xmlns="http://www.w3.org/2000/svg" x="0px" y="0px" width="75px" height="75px" viewBox="0 0 75 75" xml:space="preserve">
<circle fill="#CAEACA" stroke="#C6E5C6" stroke-miterlimit="10" cx="37.5" cy="37.5" r="37"/>
  <path fill="#EAD6BE" d="M51.8,52.22h-5.33V38.39H28.38v13.83h-5.33c-6.23,0-11.55,4.01-13.55,9.57
      c6.78,7.85,16.8,12.82,27.99,12.82c11.13,0,21.11-4.92,27.89-12.7C63.42,56.28,58.07,52.22,51.8,52.22z"/>
  <path fill="#E2CCB7" d="M65.39,61.7c-2.02-5.51-7.32-9.48-13.51-9.48h-5.33V38.39H37.5V74.6C48.66,74.55,58.64,69.56,65.39,61.7z"
  />
  <path opacity="0.05" d="M39.32,48.44h-3.96c-6.6,0-12-5.4-12-12v-8.89c0-6.6,5.4-12,12-12h3.96c6.6,0,12,5.4,12,12v8.89
      C51.32,43.04,45.92,48.44,39.32,48.44z"/>
  <path fill="#EAD6BE" d="M39.48,47.2h-3.96c-6.6,0-12-5.4-12-12V22.44c0-6.6,5.4-12,12-12h3.96c6.6,0,12,5.4,12,12V35.2
      C51.48,41.8,46.08,47.2,39.48,47.2z"/>
  <path fill="#E2CCB7" d="M41.61,14.31H37.5V47.2h4.11c5.43,0,9.87-4.44,9.87-9.87V24.18C51.48,18.75,47.04,14.31,41.61,14.31z"/>
  <path fill="#FFFFFF" d="M51.8,52.22h-0.97c0.01,0.07,0.03,0.14,0.03,0.21c0,2.63-6.01,4.75-13.43,4.75
      c-7.42,0-13.43-2.13-13.43-4.75c0-0.07,0.02-0.14,0.03-0.21h-0.97c-6.23,0-11.55,4.01-13.55,9.57
      c6.78,7.85,16.8,12.82,27.99,12.82c11.13,0,21.11-4.92,27.89-12.7C63.42,56.28,58.07,52.22,51.8,52.22z"/>
  <path fill="#F0F2F2" d="M51.87,52.22H50.9c0.01,0.07,0.03,0.14,0.03,0.21c0,2.63-6.01,4.75-13.43,4.75c-0.06,0-0.12,0-0.18,0V74.6
      c0.06,0,0.12,0,0.18,0c11.16,0,21.16-4.95,27.94-12.76C63.46,56.26,58.12,52.22,51.87,52.22z"/>
  <path opacity="0.15" fill="#56513A" d="M51.89,14.67c-2.09-3.73-7.73-6.41-14.39-6.41s-12.29,2.68-14.39,6.41
      c-2.29,2.5-3.7,5.81-3.7,9.44v4.87c0,3.94,1.66,5.51,4.3,8.07V25.93c0-1.15,0.21-4.24,0.57-5.27c2.64,2.87,7.56,3.81,13.21,3.81
      c3.01,0,6.36-0.81,7.28-1.41c1.16-0.76,1.41-2.67,3.23-2.67c1.62,0,2.96,1.17,3.23,2.71c0.27,0.9,0.43,1.85,0.43,2.83v10.73
      c2.42-2.52,2.92-5.93,2.92-9.68v-2.87C54.59,20.48,54.18,17.17,51.89,14.67z"/>
  <path fill="#D2D5D6" d="M51.71,13.23c-2.09-3.73-7.73-6.41-14.39-6.41s-12.29,2.68-14.39,6.41c-2.29,2.5-3.7,5.81-3.7,9.44v4.87
      c0,3.94,1.66,7.51,4.3,10.07V24.49c0-1.15,0.21-4.24,0.57-5.27c2.64,2.87,7.56,3.81,13.21,3.81c3.01,0,6.36-0.81,7.28-1.41
      c1.16-0.76,1.41-2.67,3.23-2.67c1.62,0,2.96,1.17,3.23,2.71c0.27,0.9,0.43,1.85,0.43,2.83v12.73c2.42-2.52,3.92-5.93,3.92-9.68
      v-4.87C55.41,19.03,54,15.72,51.71,13.23z"/>
  <path fill="#C1C5C6" d="M51.66,13.28c-1.19-2.12-3.53-3.9-6.55-5.05c0.42,1.1,0.66,2.27,0.66,3.5c0,6.1-5.68,11.04-12.7,11.04
      c-0.35,0-0.7-0.02-1.04-0.05c1.64,0.23,3.39,0.35,5.24,0.35c3.01,0,6.36-0.81,7.28-1.41c1.17-0.76,1.41-2.67,3.23-2.67
      c1.62,0,2.96,1.17,3.23,2.71c0.27,0.9,0.43,1.85,0.43,2.83v12.73c2.42-2.52,3.92-5.93,3.92-9.68v-4.87
      C55.36,19.09,53.95,15.78,51.66,13.28z"/>
  <path fill="#3E587C" d="M51.97,52.22h-0.97c0.01,0.07,0.06,0.14,0.03,0.21c-2.15,4.07-11.11,22.13-9.97,22.02
      c9.76-0.91,18.41-5.6,24.48-12.6C63.55,56.26,58.22,52.22,51.97,52.22z"/>
  <path fill="#4E6887" d="M23.08,52.3h0.97c-0.01,0.07-0.06,0.14-0.03,0.21c2.15,4.07,11.11,22.13,9.97,22.02
      c-9.76-0.91-18.41-5.6-24.48-12.6C11.49,56.34,16.83,52.3,23.08,52.3z"/>
</svg>
