<?xml version="1.0" encoding="utf-8"?>
<!DOCTYPE svg PUBLIC "-//W3C//DTD SVG 1.1//EN" "http://www.w3.org/Graphics/SVG/1.1/DTD/svg11.dtd">
<svg version="1.1" id="Ebene_1" xmlns="http://www.w3.org/2000/svg" xmlns:xlink="http://www.w3.org/1999/xlink" x="0px" y="0px"
	 width="70px" height="70px" viewBox="0 0 70 70" enable-background="new 0 0 70 70" xml:space="preserve">
<g>

		<linearGradient id="SVGID_1_" gradientUnits="userSpaceOnUse" x1="187.6543" y1="782.5605" x2="118.4749" y2="782.5605" gradientTransform="matrix(1 0 0 1 -118.5601 -747.5605)">
		<stop  offset="0" style="stop-color:#6E6E6E"/>
		<stop  offset="0.1059" style="stop-color:#707070"/>
		<stop  offset="0.1647" style="stop-color:#787878"/>
		<stop  offset="0.1939" style="stop-color:#808080"/>
		<stop  offset="0.4146" style="stop-color:#838383"/>
		<stop  offset="0.5499" style="stop-color:#8B8B8B"/>
		<stop  offset="0.6622" style="stop-color:#999999"/>
		<stop  offset="0.7614" style="stop-color:#AEAEAE"/>
		<stop  offset="0.7818" style="stop-color:#B3B3B3"/>
	</linearGradient>
	<path fill="url(#SVGID_1_)" d="M67.969,31.333c0.004,0,0.016,0.002,0.016,0.002l-0.061-0.044c-0.027-0.021-0.055-0.038-0.082-0.059
		l-11.061-7.867c-1.225-0.884-3.346-1.729-4.713-1.876c0,0-5.07-0.55-16.858-0.55c-9.637,0-17.334,0.619-17.334,0.619
		c-1.37,0.111-3.495,0.915-4.725,1.786L2.412,31.022h0.001c-1.125,0.463-1.978,2-1.978,3.717v8.953c0,1.971,1.118,3.711,2.484,3.871
		c0,0,12.681,1.488,32.001,1.498c19.942,0.008,32.001-1.48,32.001-1.48c1.365-0.17,2.48-1.918,2.48-3.889v-8.953
		C69.408,33.311,68.814,32.006,67.969,31.333z M35.396,29.369c-0.091,0-0.181,0-0.271,0c0.028,0,0.058,0,0.087,0
		C35.273,29.369,35.335,29.369,35.396,29.369z M33.749,29.375c-0.047,0-0.095,0-0.142,0C33.654,29.375,33.702,29.375,33.749,29.375z
		"/>

		<linearGradient id="SVGID_2_" gradientUnits="userSpaceOnUse" x1="182.96" y1="788.0459" x2="124.0078" y2="788.0459" gradientTransform="matrix(1 0 0 1 -118.5601 -747.5605)">
		<stop  offset="0" style="stop-color:#3C89C9"/>
		<stop  offset="0.0948" style="stop-color:#579FD8"/>
		<stop  offset="0.2096" style="stop-color:#70B3E6"/>
		<stop  offset="0.338" style="stop-color:#84C3F1"/>
		<stop  offset="0.4855" style="stop-color:#92CFF9"/>
		<stop  offset="0.6692" style="stop-color:#9AD5FE"/>
		<stop  offset="1" style="stop-color:#9CD7FF"/>
	</linearGradient>
	<path fill="url(#SVGID_2_)" stroke="#8D8D8D" stroke-width="0.3116" stroke-miterlimit="10" d="M63.184,34.388
		c-0.643-0.3-18.186-0.318-28.26-0.318c-8.237,0-27.787,0.051-27.787,0.051h0.001c-0.961,0.395-1.689,1.709-1.689,3.176v5.57
		c0,1.686,0.956,3.174,2.124,3.311c0,0,10.838,0.715,27.352,0.723c17.047,0.006,27.355-0.709,27.355-0.709
		c1.166-0.145,2.121-1.639,2.121-3.322v-5.57C64.398,36.076,63.826,34.688,63.184,34.388z"/>
	<path opacity="0.29" fill="#FFFFFF" d="M63.184,34.388c-0.643-0.3-18.186-0.318-28.26-0.318
		c-8.237,0-27.787,0.051-27.787,0.051h0.001c-0.961,0.395-1.689,1.709-1.689,3.176v5.57l58.95-2.928v-2.643
		C64.398,36.076,63.826,34.688,63.184,34.388z"/>
	<g id="Ebene_2">

			<rect x="66.76" y="36.453" fill="#C8FF00" stroke="#717171" stroke-width="0.0623" stroke-miterlimit="10" width="2.805" height="1.641"/>
		<polygon fill="#4D4D4D" stroke="#D9F1FF" stroke-width="0.3739" stroke-miterlimit="10" points="49.727,36.377 42.873,36.377
			42.873,43.539 44.949,43.539 44.949,44.514 47.65,44.514 47.648,43.539 49.727,43.539 		"/>
		<polygon fill="#4D4D4D" stroke="#D9F1FF" stroke-width="0.3739" stroke-miterlimit="10" points="38.227,36.377 31.372,36.377
			31.372,43.539 33.448,43.539 33.448,44.514 36.15,44.514 36.148,43.539 38.227,43.539 		"/>
		<polygon fill="#4D4D4D" stroke="#D9F1FF" stroke-width="0.3739" stroke-miterlimit="10" points="26.727,36.377 19.872,36.377
			19.872,43.539 21.948,43.539 21.948,44.514 24.649,44.514 24.648,43.539 26.727,43.539 		"/>
		<polygon fill="#4D4D4D" stroke="#D9F1FF" stroke-width="0.3739" stroke-miterlimit="10" points="15.227,36.377 8.372,36.377
			8.372,43.539 10.448,43.539 10.448,44.514 13.149,44.514 13.148,43.539 15.227,43.539 		"/>
		<polygon fill="#4D4D4D" stroke="#D9F1FF" stroke-width="0.3739" stroke-miterlimit="10" points="61.227,36.377 54.373,36.377
			54.373,43.539 56.449,43.539 56.449,44.514 59.15,44.514 59.148,43.539 61.227,43.539 		"/>
	</g>
</g>
</svg>
