<?xml version="1.0" encoding="utf-8"?>
<svg version="1.1" id="usericon_female3" xmlns="http://www.w3.org/2000/svg" xmlns:xlink="http://www.w3.org/1999/xlink" x="0px" y="0px"
     width="57px" height="67px" viewBox="0 0 57 67" enable-background="new 0 0 57 67" xml:space="preserve">
    <defs>
        <linearGradient id="SVGID_1_0" gradientUnits="userSpaceOnUse" x1="605.8818" y1="3889.7666" x2="607.1227" y2="3919.564" gradientTransform="matrix(1 0 0 1 -579 -3865.6855)">
            <stop  offset="0.2711" style="stop-color:#FFAB4F"/>
            <stop  offset="1" style="stop-color:#FFD28F"/>
        </linearGradient>
        <radialGradient id="face_x5F_white_1_0" cx="607.127" cy="3891.5313" r="23.4257" fx="602.5572" fy="3889.0415" gradientTransform="matrix(1 0 0 1 -579 -3865.6855)" gradientUnits="userSpaceOnUse">
            <stop  offset="0" style="stop-color:#FFD28F"/>
            <stop  offset="1" style="stop-color:#FFAB4F"/>
        </radialGradient>
        <linearGradient id="face_highlight_2_0" gradientUnits="userSpaceOnUse" x1="-7.3335" y1="18.2822" x2="-6.8335" y2="18.2822">
            <stop  offset="0" style="stop-color:#FFFFFF;stop-opacity:0.24"/>
            <stop  offset="1" style="stop-color:#FFFFFF;stop-opacity:0.16"/>
        </linearGradient>
        <radialGradient id="collar_x5F_body_1_00" cx="594.7861" cy="-762.0566" r="32.4003" gradientTransform="matrix(1 0 0 -1 -579.2803 -707.7656)" gradientUnits="userSpaceOnUse">
            <stop  offset="0" style="stop-color:#FCB57A"/>
            <stop  offset="1" style="stop-color:#FF8C36"/>
        </radialGradient>
        <radialGradient id="collar_x5F_r_1_0" cx="611.125" cy="-756.082" r="9.2818" gradientTransform="matrix(1 0 0 -1 -579.2803 -707.7656)" gradientUnits="userSpaceOnUse">
            <stop  offset="0" style="stop-color:#FCB57A"/>
            <stop  offset="1" style="stop-color:#FF8C36"/>
        </radialGradient>
        <radialGradient id="collar_x5F_l_1_0" cx="598.7607" cy="-756.123" r="9.2846" gradientTransform="matrix(1 0 0 -1 -579.2803 -707.7656)" gradientUnits="userSpaceOnUse">
            <stop  offset="0" style="stop-color:#FCB57A"/>
            <stop  offset="1" style="stop-color:#FF8C36"/>
        </radialGradient>
        <radialGradient id="body_1_0" cx="638.1289" cy="-3918.1875" r="32.8882" gradientTransform="matrix(0.9852 0 0 -0.9852 -613.1836 -3805.905)" gradientUnits="userSpaceOnUse">
            <stop  offset="0" style="stop-color:#FCB57A"/>
            <stop  offset="1" style="stop-color:#FF8C36"/>
        </radialGradient>
        <radialGradient id="turtleneck_1_0" cx="602.2861" cy="3913.1807" r="13.5362" gradientTransform="matrix(1 0 0 1 -579 -3865.6855)" gradientUnits="userSpaceOnUse">
            <stop  offset="0" style="stop-color:#FCB57A"/>
            <stop  offset="1" style="stop-color:#FF8C36"/>
        </radialGradient>
    </defs>
<g>
    <path fill="url(#SVGID_1_0)" stroke="#ED9135" stroke-miterlimit="10" d="M49.752,51.344c-4.396-4.396-10.951-5.884-12.063-6.107
        V37.92H19.5c0,0,0.038,6.903,0,6.868c0,0-6.874,0.997-12.308,6.433c-5.592,5.592-6.47,11.67-6.47,11.67
        c0,1.938,1.575,3.491,3.523,3.491h48.51c1.947,0,3.521-1.558,3.521-3.491C56.277,62.887,54.434,56.025,49.752,51.344z"/>
    <path fill="url(#face_x5F_white_1_0)" stroke="#ED9135" stroke-miterlimit="10" d="M43.898,23.476
        c0.086,10.199-6.738,18.52-15.25,18.586c-8.5,0.066-15.464-8.146-15.55-18.345C13.016,13.519,19.84,5.198,28.345,5.131
        C36.85,5.064,43.813,13.277,43.898,23.476z"/>
    <path fill="url(#face_highlight_2_0)" d="M28.181,5.347C22.146,5.394,17.434,9.84,15.394,15.733
        c-0.664,1.919-0.294,4.043,0.98,5.629c2.73,3.398,5.729,6.283,9.461,8.088c3.137,1.518,7.535,2.385,11.894,1.247
        c2.273-0.592,3.987-2.459,4.375-4.766c0.187-1.094,0.293-2.289,0.283-3.553C42.307,12.966,36.494,5.282,28.181,5.347z"/>
    <path fill="#CC9869" stroke="#99724F" stroke-linecap="round" stroke-linejoin="round" d="
        M28.595,0.619c-10.835,0-20.103,7.248-19.219,25.625c0.563,6.563,5.862,12.042,9.366,13.531
        c-2.929-10.968-0.304-25.021-0.585-25.526c-0.281-0.505,3.536,6.728,3.536,6.728l3.183-8.312c5.541,4.28,0.393,11.309,1.049,11.058
        c4.261-1.631,5.341-9.228,5.341-9.228s2.729,3.657,2.7,5.504c-0.054,3.562,2.194-6.067,2.194-6.067l1.025,2.031
        c6.729,9.822,3.686,16.208,1.647,22.781c15.666-0.703,12.291-10.48,9.66-18.407C43.813,6.211,39.43,0.619,28.595,0.619z"/>
    <path fill="url(#collar_x5F_body_1_00)" stroke="#E55E03" d="M0.723,62.887c0,1.938,1.575,3.494,3.523,3.494
        h48.51c1.947,0,3.521-1.559,3.521-3.494c0,0-1.846-6.859-6.525-11.543c-4.814-4.813-11.244-6.146-11.244-6.146
        C36.736,46.854,32.896,48,28.445,48c-4.453,0-8.292-1.146-10.063-2.802c0,0-5.755,0.586-11.189,6.021
        C1.601,56.809,0.723,62.887,0.723,62.887z"/>
    <path fill="url(#collar_x5F_r_1_0)" stroke="#E55E03" d="M38.382,41.5c0,0-0.573,2.369-3.013,4.441
        c-2.108,1.795-5.783,2.072-5.783,2.072l3.975,6.217c0,0,2.957-1.638,5.008-3.849c1.923-2.071,1.371-5.479,1.371-5.479L38.382,41.5z
        "/>
    <path fill="url(#collar_x5F_l_1_0)" stroke="#E55E03" d="M18.853,41.541c0,0,0.576,2.369,3.012,4.441
        c2.109,1.793,5.785,2.072,5.785,2.072l-3.974,6.217c0,0-2.957-1.638-5.007-3.852c-1.922-2.07-1.37-5.479-1.37-5.479L18.853,41.541z
        "/>
    <path fill="url(#body_1_0)" stroke="#E55E03" d="M0.723,62.887c0,1.938,1.575,3.494,3.523,3.494h48.51
        c1.947,0,3.521-1.559,3.521-3.494c0,0-1.846-6.859-6.525-11.543c-4.814-4.813-11.244-6.146-11.244-6.146
        C36.736,46.854,32.896,48,28.445,48c-4.453,0-8.292-1.146-10.063-2.802c0,0-5.755,0.586-11.189,6.021
        C1.601,56.809,0.723,62.887,0.723,62.887z"/>
    <path fill="url(#turtleneck_1_0)" stroke="#E55E03" d="M39.938,44.904L38.381,41.5c0,0-0.574,2.369-3.012,4.441
        c-2.109,1.795-6.786,2.072-6.786,2.072s-4.753-0.356-6.722-2.031c-2.436-2.072-3.012-4.441-3.012-4.441l-1.555,3.404
        c0,0-0.552,1.404,1.37,3.479c1.025,1.105,5.203,3.611,9.682,3.582s9.265-2.594,10.218-3.623
        C40.488,46.311,39.938,44.904,39.938,44.904z"/>
</g>
</svg>
