<?xml version="1.0" encoding="utf-8"?>
<svg version="1.1" id="usericon_female1" xmlns="http://www.w3.org/2000/svg" xmlns:xlink="http://www.w3.org/1999/xlink" x="0px" y="0px"
     width="57px" height="65px" viewBox="0 0 57 65" enable-background="new 0 0 57 65" xml:space="preserve">
<defs>
    <linearGradient id="SVGID_1_4" gradientUnits="userSpaceOnUse" x1="316.2227" y1="-3460.7314" x2="317.4636" y2="-3490.5293" gradientTransform="matrix(1 0 0 -1 -289.3398 -3438.7256)">
        <stop  offset="0.2711" style="stop-color:#FFAB4F"/>
        <stop  offset="1" style="stop-color:#FFD28F"/>
    </linearGradient>
    <radialGradient id="face_x5F_white_1_4" cx="317.4668" cy="-3462.4976" r="23.425" fx="312.8972" fy="-3464.9873" gradientTransform="matrix(1 0 0 -1 -289.3398 -3438.7256)" gradientUnits="userSpaceOnUse">
        <stop  offset="0" style="stop-color:#FFD28F"/>
        <stop  offset="1" style="stop-color:#FFAB4F"/>
    </radialGradient>
    <linearGradient id="face_highlight_2_4" gradientUnits="userSpaceOnUse" x1="6754.459" y1="-12675.6475" x2="6788.2241" y2="-12809.1807" gradientTransform="matrix(0.275 0 0 -0.2733 -1833.4225 -3465.5386)">
        <stop  offset="0" style="stop-color:#FFFFFF;stop-opacity:0.24"/>
        <stop  offset="1" style="stop-color:#FFFFFF;stop-opacity:0.16"/>
    </linearGradient>
    <radialGradient id="body_1_4" cx="344.4336" cy="3567.5361" r="32.8445" gradientTransform="matrix(0.9852 0 0 0.9852 -323.834 -3462.3237)" gradientUnits="userSpaceOnUse">
        <stop  offset="0" style="stop-color:#FFC373"/>
        <stop  offset="1" style="stop-color:#FFB448"/>
    </radialGradient>
</defs>
<g>
    <polygon fill="#FAE1AA" stroke="#F9C969" stroke-linecap="round" stroke-linejoin="round" points="44.588,47.076 13.324,51.467
        12.414,28.51 43.631,29.137     "/>
    <path fill="url(#SVGID_1_4)" stroke="#ED9135" stroke-miterlimit="10" d="M49.752,49.27c-4.396-4.396-10.951-5.884-12.063-6.108
        v-7.316H19.5c0,0,0.038,6.903,0,6.868c0,0-6.874,0.997-12.308,6.432c-5.592,5.592-6.47,11.67-6.47,11.67
        c0,1.938,1.575,3.492,3.523,3.492h48.51c1.947,0,3.521-1.558,3.521-3.492C56.277,60.813,54.434,53.951,49.752,49.27z"/>
    <path fill="url(#face_x5F_white_1_4)" stroke="#ED9135" stroke-miterlimit="10" d="M43.898,21.402
        c0.086,10.2-6.738,18.52-15.25,18.586c-8.5,0.067-15.464-8.146-15.55-18.344c-0.082-10.199,6.742-18.52,15.247-18.587
        C36.85,2.99,43.813,11.204,43.898,21.402z"/>
    <path fill="url(#face_highlight_2_4)" d="M28.181,3.347C22.146,3.394,17.434,7.84,15.394,13.733
        c-0.664,1.919-0.294,4.043,0.98,5.629c2.73,3.398,5.729,6.283,9.461,8.088c3.137,1.518,7.535,2.385,11.893,1.247
        c2.274-0.592,3.988-2.459,4.375-4.766c0.187-1.094,0.293-2.289,0.283-3.553C42.306,10.966,36.494,3.282,28.181,3.347z"/>
    <path fill="#FAE1AA" stroke="#E2B354" stroke-linecap="round" stroke-linejoin="round" d="M17.977,43.049
        c-0.413-3.02-0.771-6.182-0.946-9.033c-0.574-9.348,2.886-17.72,2.886-17.72l0.882-2.078l0.94,2.419l1.872-4.956l-0.049,4.553
        l1.311-0.749l0.701-1.653l0.364,2.214l1.055-0.988l2.13-0.729l0.939,0.717l0.479-2.375l0.834,2.554L32.5,14.2l1.681-0.214
        l1.069,1.372l-0.242-4.246l1.883,3.967l0.943-0.034c0,0,5.595,10.622,3.313,29.099c2.154,0.76,4.916,2.017,7.316,3.977
        c0.001-0.001,0.011-0.014,0.011-0.014l-4.14-30.682c-1.032-6.507-5.359-16.781-15.381-16.732C5.375,0.613,13.248,40.1,9.167,47.379
        c-0.007,0.014-0.012,0.025-0.02,0.039C12.515,44.773,16.032,43.561,17.977,43.049z"/>
    <path fill="url(#body_1_4)" stroke="#ED8D00" d="M0.723,60.813c0,1.938,1.575,3.494,3.523,3.494h48.51
        c1.947,0,3.521-1.559,3.521-3.494c0,0-1.845-6.86-6.525-11.543c-4.815-4.813-8.244-5.146-8.244-5.146
        c-1.444,6.983-8.555,8.786-13.007,8.786c-4.452,0-11.322-2.643-11.941-9.439c0,0-4.559,1.199-9.367,5.674
        C1.601,54.734,0.723,60.813,0.723,60.813z"/>
</g>
</svg>
