<?xml version="1.0" encoding="utf-8"?>
<svg version="1.1" id="usericon_male2" xmlns="http://www.w3.org/2000/svg" xmlns:xlink="http://www.w3.org/1999/xlink" x="0px" y="0px"
     width="57px" height="65px" viewBox="0 0 57 65" enable-background="new 0 0 57 65" xml:space="preserve">
     <defs>
        <linearGradient id="SVGID_1_2" gradientUnits="userSpaceOnUse" x1="316.2598" y1="2704.9004" x2="317.5007" y2="2734.6978" gradientTransform="matrix(1 0 0 1 -289.3799 -2682.8799)">
        <stop  offset="0.2711" style="stop-color:#FFAB4F"/>
        <stop  offset="1" style="stop-color:#FFD28F"/>
    </linearGradient>
    <radialGradient id="SVGID_2_2" cx="304.123" cy="418.916" r="53.2458" gradientTransform="matrix(1 0 0 1 -289.6201 -364.8057)" gradientUnits="userSpaceOnUse">
        <stop  offset="0" style="stop-color:#74AEEE"/>
        <stop  offset="1" style="stop-color:#2068A3"/>
    </radialGradient>
    <linearGradient id="SVGID_3_2" gradientUnits="userSpaceOnUse" x1="336.3301" y1="2702.7354" x2="330.7451" y2="2725.606" gradientTransform="matrix(1 0 0 1 -289.3799 -2682.8799)">
        <stop  offset="0" style="stop-color:#D0D0D0"/>
        <stop  offset="0.7289" style="stop-color:#4B4B4B"/>
    </linearGradient>
    <linearGradient id="SVGID_4_2" gradientUnits="userSpaceOnUse" x1="303.252" y1="2702.6289" x2="297.6153" y2="2725.7117" gradientTransform="matrix(1 0 0 1 -289.3799 -2682.8799)">
        <stop  offset="0" style="stop-color:#D0D0D0"/>
        <stop  offset="0.7289" style="stop-color:#4B4B4B"/>
    </linearGradient>
    <radialGradient id="face_x5F_white_1_2" cx="317.5039" cy="2706.6631" r="23.425" fx="312.9343" fy="2704.1733" gradientTransform="matrix(1 0 0 1 -289.3799 -2682.8799)" gradientUnits="userSpaceOnUse">
        <stop  offset="0" style="stop-color:#FFD28F"/>
        <stop  offset="1" style="stop-color:#FFAB4F"/>
    </radialGradient>
    <linearGradient id="face_highlight_2_2" gradientUnits="userSpaceOnUse" x1="6754.459" y1="-12679.3066" x2="6788.2241" y2="-12812.8398" gradientTransform="matrix(0.275 0 0 -0.2733 -1833.4225 -3465.5386)">
        <stop  offset="0" style="stop-color:#FFFFFF;stop-opacity:0.24"/>
        <stop  offset="1" style="stop-color:#FFFFFF;stop-opacity:0.16"/>
    </linearGradient>
     </defs>
<g>
    <path fill="url(#SVGID_1_2)" stroke="#ED9135" stroke-miterlimit="10" d="M49.75,49.281c-4.396-4.395-10.951-5.883-12.063-6.107
        v-7.316H19.499c0,0,0.038,6.902,0,6.867c0,0-6.874,0.998-12.308,6.432c-5.592,5.592-6.47,11.67-6.47,11.67
        c0,1.939,1.575,3.492,3.523,3.492h48.51c1.947,0,3.521-1.557,3.521-3.492C56.275,60.824,54.432,53.963,49.75,49.281z"/>
    <path id="body_13_" fill="#ECECEC" stroke="#9B9B9B" stroke-miterlimit="10" d="M0.721,60.824c0,1.939,1.575,3.494,3.523,3.494
        h48.51c1.947,0,3.521-1.559,3.521-3.494c0,0-1.845-6.859-6.525-11.543c-4.815-4.813-11.244-6.145-11.244-6.145
        c-1.771,1.654-5.61,3.801-10.063,3.801c-4.453,0-8.292-2.146-10.063-3.801c0,0-5.755,0.586-11.189,6.02
        C1.599,54.746,0.721,60.824,0.721,60.824z"/>
    <path fill="#2068A3" stroke="#2068A3" d="M28.327,31.543c-8.112,0-12.688,4.312-12.688,10.437c0,7.422,12.688,10.438,12.688,10.438
        s14.688-3.016,14.688-10.438C43.014,36.807,36.436,31.543,28.327,31.543z M26.509,51.107c0,0-7.135-2.092-8.805-7.201
        c-0.222-0.682,0.147-1.156,0.795-1.52v-6.529h20.188v6.662c0.235,0.352,1.109,0.738,1.229,1.387
        C40.666,47.975,26.509,51.107,26.509,51.107z"/>
    <path fill="url(#SVGID_2_2)" stroke="#2068A3" stroke-miterlimit="10" d="M49.75,49.281c-2.239-2.24-5.041-3.723-7.396-4.67
        c-2.854,5.51-14.022,7.807-14.022,7.807s-10.472-2.482-12.387-8.514c-2.439,0.771-5.787,2.287-8.749,5.25
        c-5.592,5.592-6.47,11.67-6.47,11.67c0,1.939,1.575,3.492,3.523,3.492h48.51c1.946,0,3.521-1.557,3.521-3.492
        C56.275,60.824,54.432,53.963,49.75,49.281z"/>
    <path fill="#5491CF" stroke="#2068A3" d="M13.625,42.23c1.15-1.811,2.039-3.832,3.332-5.398c-0.514,1.027-1.669,4.084-1.669,5.148
        c0,5.186,10.366,9.08,14.688,10.438c-3.472,1.629-9.134-1.496-11.335-2.359c-3.601-1.418-4.071-3.063-5.89-4.854
        C12.744,45.191,13.099,43.057,13.625,42.23z"/>
    <path fill="#5491CF" stroke="#2068A3" d="M45.998,41.98c-1.317-1.568-5.11-9.423-6.604-6.617c0.517,1.025,3.617,3.693,3.617,6.617
        c0,5.186-10.271,8.576-16.698,9.145c1.429,4.939,11.372,1.293,13.805-0.313c3.563-2.354,4.563-5.133,7.854-3.705
        C47.975,47.102,48.227,44.631,45.998,41.98z"/>
    <path fill="none" stroke="#2068A3" stroke-linecap="round" d="M30.998,52.225c0.356,0.836-0.153,1.982-0.353,2.813
        c-0.256,1.084-0.071,2.104,0.103,3.186c0.164,1.02,0.156,2.107,0.25,3.168c0.082,0.916,0.481,1.848,0.356,2.75"/>
    <path fill="none" stroke="#2068A3" stroke-linecap="round" d="M23.916,51.475c-0.508,0.584-0.476,2.209-0.398,3
        c0.116,1.182,0.456,2.098,0.333,3.332c-0.192,1.943,0.154,4.479-0.436,6.334"/>
    <path fill="none" stroke="#4B4B4B" stroke-miterlimit="10" d="M46.184,20.88c0.021-0.378,0.051-0.753,0.051-1.137
        c0-11.08-7.916-19.062-17.677-19.062c-9.765,0-17.682,7.981-17.682,19.062c0,0.357,0.031,0.705,0.047,1.057
        C16.36,19.792,40.617,19.819,46.184,20.88z"/>
    <path fill="#4B4B4B" d="M46.334,29.781c0.24-0.548,0.517-1.453,0.822-2.948c0.305-1.48,0.407-2.426,0.403-3.034l1.267,0.26
        c0.022,0.438-0.069,1.52-0.383,3.039c-0.313,1.52-0.65,2.551-0.847,2.943L46.334,29.781z"/>
    <path fill="#4B4B4B" d="M48.037,24.408l0.283,0.058c-0.026,0.497-0.123,1.353-0.365,2.532c-0.242,1.179-0.49,2.004-0.661,2.471
        l-0.281-0.058c0.201-0.595,0.413-1.396,0.635-2.477C47.865,25.866,47.988,25.043,48.037,24.408 M46.929,23.159
        c0.25,0.052,0.133,1.652-0.263,3.574c-0.387,1.891-0.897,3.389-1.153,3.389c-0.005,0-0.01,0-0.015-0.001l2.269,0.465
        c0.004,0.001,0.011,0.001,0.019,0.001c0.259,0,0.771-1.499,1.149-3.389c0.396-1.922,0.519-3.522,0.269-3.574L46.929,23.159
        L46.929,23.159z"/>
    <path fill="url(#SVGID_3_2)" d="M42.289,32.198c0.693-1.253,1.312-3.722,1.757-5.894c0.596-2.901,0.829-4.943,0.704-6.108
        l3.228,0.662c0.108,0.562,0.022,2.665-0.685,6.113c-0.707,3.447-1.457,5.413-1.78,5.887L42.289,32.198z"/>
    <path fill="#4B4B4B" d="M45.297,20.818l2.22,0.456c0.033,0.838-0.146,2.83-0.713,5.597c-0.565,2.765-1.188,4.667-1.549,5.424
        l-2.232-0.459c0.447-1.039,0.957-2.717,1.519-5.431C45.087,23.717,45.291,21.965,45.297,20.818 M44.041,19.54
        c0.47,0.096,0.25,3.08-0.485,6.664c-0.724,3.525-1.679,6.319-2.153,6.319c-0.009,0-0.017-0.001-0.021-0.002l4.229,0.868
        c0.01,0.002,0.018,0.002,0.021,0.002c0.479,0,1.437-2.793,2.153-6.317c0.73-3.584,0.955-6.568,0.482-6.664L44.041,19.54
        L44.041,19.54z"/>
    <path fill="#4B4B4B" d="M9.781,30.041c-0.193-0.393-0.534-1.424-0.846-2.943c-0.312-1.52-0.405-2.602-0.382-3.039L9.819,23.8
        c-0.005,0.607,0.101,1.554,0.404,3.034c0.306,1.495,0.583,2.4,0.824,2.948L9.781,30.041z"/>
    <path fill="#4B4B4B" d="M9.342,24.408c0.049,0.635,0.173,1.458,0.392,2.525c0.221,1.081,0.433,1.882,0.634,2.477l-0.281,0.058
        c-0.171-0.467-0.419-1.292-0.662-2.471c-0.242-1.179-0.339-2.035-0.365-2.532L9.342,24.408 M10.453,23.159l-2.268,0.465
        c-0.251,0.052-0.134,1.652,0.261,3.574c0.388,1.89,0.9,3.389,1.155,3.389c0.004,0,0.009,0,0.013-0.001l2.268-0.465
        c-0.004,0.001-0.008,0.001-0.013,0.001c-0.255,0-0.768-1.499-1.155-3.389C10.319,24.811,10.202,23.211,10.453,23.159L10.453,23.159
        z"/>
    <path fill="url(#SVGID_4_2)" d="M11.837,32.858c-0.323-0.474-1.073-2.44-1.781-5.887c-0.708-3.448-0.792-5.551-0.683-6.113
        l3.226-0.662c-0.125,1.166,0.11,3.207,0.705,6.108c0.446,2.172,1.062,4.639,1.756,5.894L11.837,32.858z"/>
    <path fill="#4B4B4B" d="M12.054,20.818c0.004,1.147,0.209,2.898,0.761,5.586c0.557,2.714,1.065,4.393,1.512,5.432l-2.232,0.457
        c-0.361-0.756-0.981-2.658-1.549-5.423c-0.567-2.767-0.747-4.759-0.713-5.597L12.054,20.818 M13.309,19.54L9.08,20.408
        c-0.469,0.096-0.249,3.08,0.486,6.664c0.723,3.524,1.678,6.316,2.154,6.316c0.008,0,0.016,0,0.023-0.002l4.228-0.867
        c-0.008,0.001-0.016,0.002-0.023,0.002c-0.475,0-1.431-2.794-2.154-6.319C13.059,22.62,12.84,19.636,13.309,19.54L13.309,19.54z"/>
    <path id="face_x5F_white_3_" fill="url(#face_x5F_white_1_2)" stroke="#ED9135" stroke-miterlimit="10" d="M43.896,21.414
        c0.086,10.2-6.738,18.52-15.25,18.586c-8.5,0.068-15.464-8.146-15.55-18.344c-0.082-10.199,6.742-18.52,15.247-18.587
        C36.848,3.002,43.811,11.215,43.896,21.414z"/>
    <path id="face_highlight_1_" fill="url(#face_highlight_2_2)" d="M28.181,4.347C22.146,4.394,17.434,8.84,15.394,14.733
        c-0.664,1.919-0.294,4.043,0.98,5.629c2.73,3.398,5.729,6.283,9.461,8.088c3.137,1.518,7.535,2.385,11.893,1.247
        c2.274-0.592,3.988-2.459,4.375-4.766c0.187-1.094,0.293-2.289,0.283-3.553C42.306,11.966,36.494,4.282,28.181,4.347z"/>
    <path fill="none" stroke="#4B4B4B" stroke-miterlimit="10" d="M24.249,35.855c-2.04,0.127-7.98-2.51-10.435-3.941
        c-1.519-0.884-3.79-2.722-4.19-3.23"/>
    <path fill="#4B4B4B" stroke="#4B4B4B" stroke-miterlimit="10" d="M29.162,35.855c0,0.293-2.085,0.529-3.425,0.529
        c-1.339,0-2.425-0.236-2.425-0.529c0-0.291,1.086-0.529,2.425-0.529C27.077,35.326,29.162,35.564,29.162,35.855z"/>
    <path id="Hair_Young_Brown_1_" fill="#CC9869" stroke="#99724F" stroke-linecap="round" stroke-linejoin="round" d="M20.499,11.307
        c3.417,4.333,9.333,6.917,9.333,6.917l-1.417-3.5c0,0,7.094,4.691,8.083,4.333c0.968-0.2-1.082-3.807-1.082-3.807
        s3.138,1.795,4.854,3.969c1.803,2.28,4.285,3.504,4.285,3.504S47.248,0.776,27.51,0.801C8.499,0.766,12.279,25.735,12.279,25.735
        l2.637-10.678c0,0,0.914,5.757,1.399,4.875C18.082,13.268,19.082,9.557,20.499,11.307z"/>
</g>
</svg>
