<?xml version="1.0" encoding="utf-8"?>
<svg id="loading-background" version="1.1" xmlns="http://www.w3.org/2000/svg" x="0px" y="0px" width="162px"
     height="195px" viewBox="0 792 622 802" enable-background="new 0 792 612 792" xml:space="preserve">
  <path id="ylogo-foreground" fill="#333" d="M343,796.4c-56.8,0-107.9,71.7-132.1,149.4c2,10.5,9.3,18.5,21.7,14.9   c24.2-48.7,43.9-88.2,67.2-88.2c21.7,0,41.5,45.1,43.9,173.5c1.2,98.6-7.2,204.9-23,264.1c-21.6,76.6-72.7,149.5-101.7,173.6   c-27.8,23-48.7,32.2-63.6,32.2c-18.5,0-29-14.9-32.2-20.9c-8.1-11.7-19.7-18.5-31-18.5c-25.8,0-46.7,20.9-46.7,49.9   s22.9,53.1,60.4,53.1c37,0,94.6-18.5,180.8-117.2c92.6-105.1,133.3-182,191.3-277.8c103-174.7,135.2-324,134-353   c0-12.5-3.2-18.5-10.5-23c-9.3-6-24.2-10.5-32.2-10.5s-25.8,2.4-27.8,36.2c-1.2,30.2-18.5,147-42.7,214.2   c-25.8,70.5-59.2,142.5-97.4,199.3H397c16.5-95.8,18.5-180.8,17.7-254.9C411.5,912,402.2,796.4,343,796.4"/>
</svg>
