<?xml version="1.0" encoding="utf-8"?>
<!-- ////////////////////////////////////////////////////////////////////////
     // @license
     // This demo file is part of yFiles for HTML 2.6.
     // Copyright (c) 2000-2023 by yWorks GmbH, Vor dem Kreuzberg 28,
     // 72070 Tuebingen, Germany. All rights reserved.
     //
     // yFiles demo files exhibit yFiles for HTML functionalities. Any redistribution
     // of demo files in source code or binary form, with or without
     // modification, is not permitted.
     //
     // Owners of a valid software license for a yFiles for HTML version that this
     // demo is shipped with are allowed to use the demo source code as basis
     // for their own yFiles for HTML powered applications. Use of such programs is
     // governed by the rights and conditions as set out in the yFiles for HTML
     // license agreement.
     //
     // THIS SOFTWARE IS PROVIDED ''AS IS'' AND ANY EXPRESS OR IMPLIED
     // WARRANTIES, INCLUDING, BUT NOT LIMITED TO, THE IMPLIED WARRANTIES OF
     // MERCHANTABILITY AND FITNESS FOR A PARTICULAR PURPOSE ARE DISCLAIMED. IN
     // NO EVENT SHALL yWorks BE LIABLE FOR ANY DIRECT, INDIRECT, INCIDENTAL,
     // SPECIAL, EXEMPLARY, OR CONSEQUENTIAL DAMAGES (INCLUDING, BUT NOT LIMITED
     // TO, PROCUREMENT OF SUBSTITUTE GOODS OR SERVICES; LOSS OF USE, DATA, OR
     // PROFITS; OR BUSINESS INTERRUPTION) HOWEVER CAUSED AND ON ANY THEORY OF
     // LIABILITY, WHETHER IN CONTRACT, STRICT LIABILITY, OR TORT (INCLUDING
     // NEGLIGENCE OR OTHERWISE) ARISING IN ANY WAY OUT OF THE USE OF THIS
     // SOFTWARE, EVEN IF ADVISED OF THE POSSIBILITY OF SUCH DAMAGE.
     //
     ////////////////////////////////////////////////////////////////////////-->

<svg xmlns="http://www.w3.org/2000/svg" viewBox="0 0 231 93.74641" preserveAspectRatio="xMinYMid">
  <path fill="#242265" d="M0 37.6L.1 57a27.6 27.6 0 0014 23.8l16.8 9.6a27.6 27.6 0 0027.6-.1l16.8-9.9a27.6 27.6 0 0013.6-24V37a27.6 27.6 0 00-14-23.8L58 3.6a27.6 27.6 0 00-27.6.2l-16.7 9.8A27.6 27.6 0 000 37.6"/>
  <path fill="#242265" d="M54.2 66.2a14.5 14.5 0 012 3.1 5.8 5.8 0 01-1 6.3 5.4 5.4 0 01-7.3.7 5.8 5.8 0 01-2.2-5 10.6 10.6 0 011.1-4 32.2 32.2 0 001.5-3.5 12.8 12.8 0 00.4-4.5 45.2 45.2 0 00-.5-4.7 11.4 11.4 0 00-2.8-6 14.5 14.5 0 00-5.3-3.4L37.6 44a13.1 13.1 0 00-6.4-1c-1.3.2-2.7.5-4 .5a6.5 6.5 0 01-4.5-1.6 5.5 5.5 0 01-1.1-7 5.6 5.6 0 017.8-1.7 8.2 8.2 0 012.3 2.2l1.7 2.3a14 14 0 003.3 3.3 19 19 0 003 1.5l3 1.3a11.3 11.3 0 005.5.8 11.6 11.6 0 004.6-1.6c1.2-.7 2.4-1.6 3.5-2.4a15.3 15.3 0 003.3-3 16.5 16.5 0 001.7-3 22.7 22.7 0 012-4.2 6 6 0 013.9-2.6 5.4 5.4 0 016.4 6.3 5.6 5.6 0 01-3 4 12 12 0 01-5 1.2 15 15 0 00-5 1.2 18.5 18.5 0 00-1.7.9 33.3 33.3 0 00-3.3 2.3 13.5 13.5 0 00-3.6 3.8 11.5 11.5 0 00-1.4 3.8 16.3 16.3 0 000 4.5c0 1.2.2 2.4.4 3.6a13 13 0 001.8 4.6c.4.8 1 1.5 1.4 2"/>
  <path fill="#242265" d="M59.1 54.4a14.4 14.4 0 013.7.8 5.8 5.8 0 013.7 5 5.4 5.4 0 01-4.7 5.8 5.8 5.8 0 01-5.1-2 10.5 10.5 0 01-2-3.6 29 29 0 00-1.4-3.5 12.7 12.7 0 00-3-3.6 35 35 0 00-3.6-2.9 11.5 11.5 0 00-6.2-2.3 14.3 14.3 0 00-6.2 1.3l-2.6 1a13.1 13.1 0 00-5 4l-2.7 3a6.6 6.6 0 01-4.3 2 5.5 5.5 0 01-5.7-4.1 5.6 5.6 0 014.3-6.7 8.2 8.2 0 013.2-.1l2.8.4a14.3 14.3 0 004.7 0 18.1 18.1 0 003.2-1l3-1.3a11.3 11.3 0 004.4-3.3 11.6 11.6 0 002.2-4.3c.4-1.4.6-2.8.8-4.2a15.2 15.2 0 00.1-4.5 16.7 16.7 0 00-1-3.3 22.6 22.6 0 01-1.4-4.5 6 6 0 011-4.4 5.4 5.4 0 018.9-.2 5.6 5.6 0 01.8 5 11.9 11.9 0 01-2.7 4.3 14.8 14.8 0 00-2.8 4.5 18.5 18.5 0 00-.5 1.8 33.4 33.4 0 00-.7 4 13.5 13.5 0 00.1 5.1 11.3 11.3 0 001.7 3.8 16.5 16.5 0 003.1 3.2l3 2.2a13 13 0 004.5 2l2.4.5"/>
  <path fill="#00d8ff" d="M54.2 66.2a14.5 14.5 0 012 3.1 5.8 5.8 0 01-1 6.3 5.4 5.4 0 01-7.3.7 5.8 5.8 0 01-2.2-5 10.6 10.6 0 011.1-4 32.2 32.2 0 001.5-3.5 12.8 12.8 0 00.4-4.5 45.2 45.2 0 00-.5-4.7 11.4 11.4 0 00-2.8-6 14.5 14.5 0 00-5.3-3.4L37.6 44a13.1 13.1 0 00-6.4-1c-1.3.2-2.7.5-4 .5a6.5 6.5 0 01-4.5-1.6 5.5 5.5 0 01-1.1-7 5.6 5.6 0 017.8-1.7 8.2 8.2 0 012.3 2.2l1.7 2.3a14 14 0 003.3 3.3 19 19 0 003 1.5l3 1.3a11.3 11.3 0 005.5.8 11.6 11.6 0 004.6-1.6c1.2-.7 2.4-1.6 3.5-2.4a15.3 15.3 0 003.3-3 16.5 16.5 0 001.7-3 22.7 22.7 0 012-4.2 6 6 0 013.9-2.6 5.4 5.4 0 016.4 6.3 5.6 5.6 0 01-3 4 12 12 0 01-5 1.2 15 15 0 00-5 1.2 18.5 18.5 0 00-1.7.9 33.3 33.3 0 00-3.3 2.3 13.5 13.5 0 00-3.6 3.8 11.5 11.5 0 00-1.4 3.8 16.3 16.3 0 000 4.5c0 1.2.2 2.4.4 3.6a13 13 0 001.8 4.6c.4.8 1 1.5 1.4 2"/>
  <path fill="#00d8ff" d="M59.1 54.4a14.4 14.4 0 013.7.8 5.8 5.8 0 013.7 5 5.4 5.4 0 01-4.7 5.8 5.8 5.8 0 01-5.1-2 10.5 10.5 0 01-2-3.6 29 29 0 00-1.4-3.5 12.7 12.7 0 00-3-3.6 35 35 0 00-3.6-2.9 11.5 11.5 0 00-6.2-2.3 14.3 14.3 0 00-6.2 1.3l-2.6 1a13.1 13.1 0 00-5 4l-2.7 3a6.6 6.6 0 01-4.3 2 5.5 5.5 0 01-5.7-4.1 5.6 5.6 0 014.3-6.7 8.2 8.2 0 013.2-.1l2.8.4a14.3 14.3 0 004.7 0 18.1 18.1 0 003.2-1l3-1.3a11.3 11.3 0 004.4-3.3 11.6 11.6 0 002.2-4.3c.4-1.4.6-2.8.8-4.2a15.2 15.2 0 00.1-4.5 16.7 16.7 0 00-1-3.3 22.6 22.6 0 01-1.4-4.5 6 6 0 011-4.4 5.4 5.4 0 018.9-.2 5.6 5.6 0 01.8 5 11.9 11.9 0 01-2.7 4.3 14.8 14.8 0 00-2.8 4.5 18.5 18.5 0 00-.5 1.8 33.4 33.4 0 00-.7 4 13.5 13.5 0 00.1 5.1 11.3 11.3 0 001.7 3.8 16.5 16.5 0 003.1 3.2l3 2.2a13 13 0 004.5 2l2.4.5"/>
  <path fill="#242265" d="M130.5 37.9v.1l-14 35.2h-6.1V73l5.2-12.2-10-22.9v.1h6.2l5 12a39 39 0 011.6 4.7l1.4-4.6 4.6-12.1zm4.9-12.4h22.5v5.8h-16.3v10.4h14.6v5.6h-14.6v14.2h-6.2zm27 4A3.6 3.6 0 11166 33a3.4 3.4 0 01-3.6-3.5zm.7 8.4h5.8v23.6H163zm12.5-14.5h5.8v38.1h-5.8zm34.1 25.5a26.1 26.1 0 01-.2 2.7h-17c.8 3.8 3.8 5.8 7.6 5.8a9 9 0 006.2-2.2l2.5 3.7a14 14 0 01-9.3 3.3c-7.5 0-12.7-5.1-12.7-12.5 0-7 5-12.4 12.2-12.4 6.6 0 10.7 4.5 10.7 11.6zm-17.1-1.2h11.7c-.2-3.8-2.4-5.7-5.4-5.7-3.2 0-5.7 2-6.3 5.7zM213 59.5l2.3-4.1a12.1 12.1 0 006.5 2c2.1 0 3.5-1 3.5-2.5 0-1.7-2.2-2.6-4.6-3.5-3.7-1.4-6.6-3.4-6.6-7.3 0-4.3 3.8-6.6 8.3-6.6a14.8 14.8 0 017.8 2.1l-2 4a12 12 0 00-5.3-1.5c-1.8 0-3.3.6-3.3 2 0 1.6 1.7 2.5 4.3 3.4 4.1 1.5 7 3.5 7 7.4 0 4.4-3.5 7.2-8.7 7.2a16.4 16.4 0 01-9.1-2.6z"/>
</svg>
