<svg version="1.1" id="movie" xmlns="http://www.w3.org/2000/svg" xmlns:xlink="http://www.w3.org/1999/xlink" x="0px" y="0px"
     viewBox="0 0 48 48" enable-background="new 0 0 48 48" xml:space="preserve" data-referencesafe="true">
<defs>
	<linearGradient id="MOVIE_ID_01" gradientUnits="userSpaceOnUse" x1="225.8613" y1="590.7773" x2="225.8613" y2="566.9873" gradientTransform="matrix(1 0 0 1 -201.9199 -546.3203)">
	<stop  offset="0" style="stop-color:#000000"/>
    <stop  offset="0.8788" style="stop-color:#8A8A8A"/>
    <stop  offset="1" style="stop-color:#424242"/>
</linearGradient>
  <linearGradient id="MOVIE_ID_02" gradientUnits="userSpaceOnUse" x1="428" y1="1109.5508" x2="428" y2="1114.6267" gradientTransform="matrix(1 0 0 1 -404.0879 -1091.709)">
	<stop  offset="0" style="stop-color:#FFFFFF"/>
    <stop  offset="1" style="stop-color:#C4C4C9"/>
</linearGradient>
  <linearGradient id="MOVIE_ID_03" gradientUnits="userSpaceOnUse" x1="-1767.9546" y1="1318.5508" x2="-1767.9546" y2="1323.4955" gradientTransform="matrix(-0.9808 0.1952 0.1952 0.9808 -1968.6603 -937.5378)">
	<stop  offset="0" style="stop-color:#FFFFFF"/>
    <stop  offset="0.238" style="stop-color:#F8F8F8"/>
    <stop  offset="0.5934" style="stop-color:#E3E3E6"/>
    <stop  offset="1" style="stop-color:#C4C4C9"/>
</linearGradient>
</defs>
  <path fill="url(#MOVIE_ID_01)" stroke="#000000" stroke-width="0.5" d="M41.134,41.25c0,1.1-0.899,2-2,2H8.75c-1.1,0-2-0.9-2-2V22.498
	c0-1.1,0.9-2,2-2h30.384c1.101,0,2,0.9,2,2V41.25z"/>
  <rect x="4.606" y="18.667" fill="url(#MOVIE_ID_02)" stroke="#000000" stroke-width="0.5" width="38.613" height="3.661"/>
  <polygon points="21.549,18.667 23.56,22.328 26.335,22.328 24.324,18.667 "/>
  <polygon points="15.875,18.667 17.886,22.328 20.66,22.328 18.648,18.667 "/>
  <polygon points="27.225,18.667 29.234,22.328 32.008,22.328 29.999,18.667 "/>
  <polygon points="4.527,18.667 6.538,22.328 9.312,22.328 7.301,18.667 "/>
  <polygon points="10.2,18.667 12.211,22.328 14.985,22.328 12.975,18.667 "/>
  <polygon points="32.84,18.667 34.85,22.328 37.624,22.328 35.613,18.667 "/>
  <polygon points="38.514,18.667 40.521,22.328 43.298,22.328 41.288,18.667 "/>
  <polygon fill="url(#MOVIE_ID_03)" stroke="#000000" stroke-width="0.5" points="42.48,10.927 4.611,18.464 3.897,14.873 41.768,7.336
	"/>
  <polygon points="25.15,10.643 23.892,14.626 21.17,15.168 22.428,11.185 "/>
  <polygon points="30.714,9.536 29.457,13.519 26.736,14.061 27.994,10.077 "/>
  <polygon points="19.584,11.751 18.327,15.734 15.607,16.275 16.862,12.292 "/>
  <polygon points="41.844,7.32 40.587,11.304 37.866,11.845 39.124,7.862 "/>
  <polygon points="36.279,8.428 35.021,12.411 32.302,12.953 33.561,8.969 "/>
  <polygon points="14.076,12.847 12.82,16.83 10.099,17.372 11.355,13.389 "/>
  <polygon points="8.512,13.955 7.256,17.938 4.534,18.479 5.791,14.496 "/>
  <line fill="none" stroke="#DBDBDB" stroke-width="2.5" x1="10.637" y1="26.594" x2="22.734" y2="26.594"/>
  <line fill="none" stroke="#DBDBDB" stroke-width="2.5" x1="10.637" y1="32.402" x2="37.305" y2="32.402"/>
  <line fill="none" stroke="#DBDBDB" stroke-width="2.5" x1="10.637" y1="38.213" x2="37.363" y2="38.213"/>
</svg>
