<svg xmlns="http://www.w3.org/2000/svg" height="70" width="70" viewBox="0 0 70 70">
  <path d="M68.06 31.33l-.1-.1-11.1-7.9c-1.2-.9-3.3-1.7-4.7-1.9 0 0-5.1-.5-16.9-.5-9.6 0-17.3.6-17.3.6-1.4.1-3.5.9-4.7 1.8l-10.8 7.7c-1.1.5-2 2-2 3.7v9c0 2 1.1 3.7 2.5 3.9 0 0 12.7 1.5 32 1.5 19.9 0 32-1.5 32-1.5 1.4-.2 2.5-1.9 2.5-3.9v-9c0-1.4-.6-2.7-1.4-3.4zm-32.6-1.9h-.3.3zm-1.7 0h-.1.1z" fill="#6e6e6e"/>
  <path stroke-miterlimit="10" d="M63.26 34.43c-.6-.3-18.2-.3-28.3-.3-8.2 0-27.8.1-27.8.1-1 .4-1.7 1.7-1.7 3.2v5.6c0 1.7 1 3.2 2.1 3.3 0 0 10.8.7 27.4.7 17 0 27.4-.7 27.4-.7 1.2-.1 2.1-1.6 2.1-3.3v-5.6c0-1.3-.6-2.7-1.2-3z" fill="#5dace2" stroke="#afafaf" stroke-width=".5"/>
  <g stroke-miterlimit="10">
    <path d="M66.86 36.53h2.8v1.6h-2.8z" fill="#c8ff00" stroke="#717171" stroke-width=".06"/>
    <path d="M49.76 36.43h-6.8v7.1h2v1h2.8l-.1-1h2.1zm-11.5 0h-6.8v7.1h2v1h2.8l-.1-1h2.1zm-11.5 0h-6.8v7.1h2v1h2.7v-1h2.1zm-11.5 0h-6.8v7.1h2v1h2.7v-1h2.1zm46 0h-6.8v7.1h2v1h2.8l-.1-1h2.1z" fill="#4d4d4d" stroke="#d9f1ff" stroke-width=".37"/>
  </g>
</svg>