<svg xmlns="http://www.w3.org/2000/svg" width="70" height="70" viewBox="0 0 70 70">
  <path fill="#9CD7FF" d="M9.58 45.85a27.54 27.54 0 1 1 50.29 0l4.41 2.03a32.4 32.4 0 1 0-59.12 0l4.42-2.03z"/>
  <path fill="#9cd7ff" d="M18.42 41.8a17.82 17.82 0 1 1 32.6 0l4.42 2.02a22.68 22.68 0 1 0-41.43 0l4.4-2.03z"/>
  <path fill="#9cd7ff" d="M27.25 37.74a8.1 8.1 0 1 1 14.95 0l4.41 2.03a12.96 12.96 0 1 0-23.78 0l4.42-2.03z"/>
  <path fill="#afafaf" d="M21.48 52.22c0 .65-.53 1.18-1.18 1.18h-.14c-.65 0-1.18-.53-1.18-1.18v-29.8c0-.64.53-1.17 1.18-1.17h.14c.65 0 1.18.53 1.18 1.18v29.8zm29.4 0c0 .65-.53 1.18-1.18 1.18h-.14c-.65 0-1.18-.53-1.18-1.18v-29.8c0-.64.53-1.17 1.18-1.17h.14c.65 0 1.18.53 1.18 1.18v29.8z"/>
  <path fill="#afafaf" d="M66.18 56.55h.02l-.06-.02-.08-.04-10.43-5.17a14.2 14.2 0 0 0-4.45-1.23s-4.78-.36-15.9-.36c-9.1 0-16.36.4-16.36.4-1.3.08-3.3.6-4.46 1.18L4.33 56.35a2.6 2.6 0 0 0-1.87 2.44v5.88a2.6 2.6 0 0 0 2.35 2.54s11.96.98 30.2.99c18.8 0 30.19-.98 30.19-.98a2.62 2.62 0 0 0 2.34-2.55v-5.88c0-.94-.56-1.8-1.36-2.24zm-30.73-1.29h-.26.26zm-1.56 0h-.13.13z"/>
  <path fill="#5dace2" d="M51.62 56.55h.01l-.03-.02-.04-.04-5.58-5.66a5.22 5.22 0 0 0-2.38-1.23s-2.55-.37-8.47-.37c-4.85 0-8.73.41-8.73.41-.68.07-1.75.6-2.37 1.18l-5.38 5.53c-.57.3-1 1.31-1 2.44v6.68c0 1.3.57 2.44 1.26 2.55 0 0 6.37.98 16.1.98 10.02 0 16.09-.97 16.09-.97.69-.11 1.25-1.27 1.25-2.56v-6.68c0-.94-.3-1.8-.73-2.24zm-16.38-1.29h-.14.14zm-.83 0h-.07.07z"/>
  <path d="M65.04 59.91h2.65v1.08h-2.65zm-25.88 2.57h4.02l.06 2.31h-4.02zm-6.23.22h4.02L37 65h-4.02zm-6.23-.22h4.02l.06 2.31h-4.02zm18.69-.29h4.02l.06 2.3h-4.02zm-24.92 0h4.02l.06 2.3h-4.02z" fill="#C8FF00" stroke="#717171" stroke-width=".06" stroke-miterlimit="10"/>
</svg>